<?xml version="1.0" encoding="utf-8" standalone="no"?>
<!DOCTYPE svg PUBLIC "-//W3C//DTD SVG 1.1//EN"
  "http://www.w3.org/Graphics/SVG/1.1/DTD/svg11.dtd">
<!-- Created with matplotlib (https://matplotlib.org/) -->
<svg height="576pt" version="1.1" viewBox="0 0 864 576" width="864pt" xmlns="http://www.w3.org/2000/svg" xmlns:xlink="http://www.w3.org/1999/xlink">
 <metadata>
  <rdf:RDF xmlns:cc="http://creativecommons.org/ns#" xmlns:dc="http://purl.org/dc/elements/1.1/" xmlns:rdf="http://www.w3.org/1999/02/22-rdf-syntax-ns#">
   <cc:Work>
    <dc:type rdf:resource="http://purl.org/dc/dcmitype/StillImage"/>
    <dc:date>2023-04-23T10:35:52.204731</dc:date>
    <dc:format>image/svg+xml</dc:format>
    <dc:creator>
     <cc:Agent>
      <dc:title>Matplotlib v3.3.4, https://matplotlib.org/</dc:title>
     </cc:Agent>
    </dc:creator>
   </cc:Work>
  </rdf:RDF>
 </metadata>
 <defs>
  <style type="text/css">*{stroke-linecap:butt;stroke-linejoin:round;}</style>
 </defs>
 <g id="figure_1">
  <g id="patch_1">
   <path d="M 0 576 
L 864 576 
L 864 0 
L 0 0 
z
" style="fill:#ffffff;"/>
  </g>
  <g id="axes_1">
   <g id="patch_2">
    <path d="M 108 512.64 
L 777.6 512.64 
L 777.6 69.12 
L 108 69.12 
z
" style="fill:#ffffff;"/>
   </g>
   <g id="PathCollection_1">
    <defs>
     <path d="M 0 3 
C 0.795609 3 1.55874 2.683901 2.12132 2.12132 
C 2.683901 1.55874 3 0.795609 3 0 
C 3 -0.795609 2.683901 -1.55874 2.12132 -2.12132 
C 1.55874 -2.683901 0.795609 -3 0 -3 
C -0.795609 -3 -1.55874 -2.683901 -2.12132 -2.12132 
C -2.683901 -1.55874 -3 -0.795609 -3 0 
C -3 0.795609 -2.683901 1.55874 -2.12132 2.12132 
C -1.55874 2.683901 -0.795609 3 0 3 
z
" id="m99ccfd7664" style="stroke:#800080;"/>
    </defs>
    <g clip-path="url(#p71ed9e442c)">
     <use style="fill:#800080;stroke:#800080;" x="121.392" xlink:href="#m99ccfd7664" y="69.12"/>
     <use style="fill:#800080;stroke:#800080;" x="134.784" xlink:href="#m99ccfd7664" y="88.40013"/>
     <use style="fill:#800080;stroke:#800080;" x="148.176" xlink:href="#m99ccfd7664" y="107.805699"/>
     <use style="fill:#800080;stroke:#800080;" x="161.568" xlink:href="#m99ccfd7664" y="137.029396"/>
     <use style="fill:#800080;stroke:#800080;" x="174.96" xlink:href="#m99ccfd7664" y="185.223878"/>
     <use style="fill:#800080;stroke:#800080;" x="188.352" xlink:href="#m99ccfd7664" y="234.108224"/>
     <use style="fill:#800080;stroke:#800080;" x="201.744" xlink:href="#m99ccfd7664" y="291.865424"/>
     <use style="fill:#800080;stroke:#800080;" x="215.136" xlink:href="#m99ccfd7664" y="350.995233"/>
     <use style="fill:#800080;stroke:#800080;" x="228.528" xlink:href="#m99ccfd7664" y="394.858003"/>
     <use style="fill:#800080;stroke:#800080;" x="241.92" xlink:href="#m99ccfd7664" y="404.05576"/>
     <use style="fill:#800080;stroke:#800080;" x="255.312" xlink:href="#m99ccfd7664" y="417.386917"/>
     <use style="fill:#800080;stroke:#800080;" x="268.704" xlink:href="#m99ccfd7664" y="428.648224"/>
     <use style="fill:#800080;stroke:#800080;" x="282.096" xlink:href="#m99ccfd7664" y="436.13242"/>
     <use style="fill:#800080;stroke:#800080;" x="295.488" xlink:href="#m99ccfd7664" y="437.166816"/>
     <use style="fill:#800080;stroke:#800080;" x="308.88" xlink:href="#m99ccfd7664" y="447.791374"/>
     <use style="fill:#800080;stroke:#800080;" x="322.272" xlink:href="#m99ccfd7664" y="448.732337"/>
     <use style="fill:#800080;stroke:#800080;" x="335.664" xlink:href="#m99ccfd7664" y="453.069472"/>
     <use style="fill:#800080;stroke:#800080;" x="349.056" xlink:href="#m99ccfd7664" y="459.472895"/>
     <use style="fill:#800080;stroke:#800080;" x="362.448" xlink:href="#m99ccfd7664" y="464.038487"/>
     <use style="fill:#800080;stroke:#800080;" x="375.84" xlink:href="#m99ccfd7664" y="470.756588"/>
     <use style="fill:#800080;stroke:#800080;" x="389.232" xlink:href="#m99ccfd7664" y="473.694657"/>
     <use style="fill:#800080;stroke:#800080;" x="402.624" xlink:href="#m99ccfd7664" y="471.828268"/>
     <use style="fill:#800080;stroke:#800080;" x="416.016" xlink:href="#m99ccfd7664" y="476.798573"/>
     <use style="fill:#800080;stroke:#800080;" x="429.408" xlink:href="#m99ccfd7664" y="471.723808"/>
     <use style="fill:#800080;stroke:#800080;" x="442.8" xlink:href="#m99ccfd7664" y="480.496585"/>
     <use style="fill:#800080;stroke:#800080;" x="456.192" xlink:href="#m99ccfd7664" y="477.598412"/>
     <use style="fill:#800080;stroke:#800080;" x="469.584" xlink:href="#m99ccfd7664" y="483.611876"/>
     <use style="fill:#800080;stroke:#800080;" x="482.976" xlink:href="#m99ccfd7664" y="487.070584"/>
     <use style="fill:#800080;stroke:#800080;" x="496.368" xlink:href="#m99ccfd7664" y="489.817645"/>
     <use style="fill:#800080;stroke:#800080;" x="509.76" xlink:href="#m99ccfd7664" y="484.636813"/>
     <use style="fill:#800080;stroke:#800080;" x="523.152" xlink:href="#m99ccfd7664" y="488.661991"/>
     <use style="fill:#800080;stroke:#800080;" x="536.544" xlink:href="#m99ccfd7664" y="490.087039"/>
     <use style="fill:#800080;stroke:#800080;" x="549.936" xlink:href="#m99ccfd7664" y="491.000998"/>
     <use style="fill:#800080;stroke:#800080;" x="563.328" xlink:href="#m99ccfd7664" y="494.759283"/>
     <use style="fill:#800080;stroke:#800080;" x="576.72" xlink:href="#m99ccfd7664" y="493.620117"/>
     <use style="fill:#800080;stroke:#800080;" x="590.112" xlink:href="#m99ccfd7664" y="503.065065"/>
     <use style="fill:#800080;stroke:#800080;" x="603.504" xlink:href="#m99ccfd7664" y="503.07005"/>
     <use style="fill:#800080;stroke:#800080;" x="616.896" xlink:href="#m99ccfd7664" y="500.717185"/>
     <use style="fill:#800080;stroke:#800080;" x="630.288" xlink:href="#m99ccfd7664" y="503.477036"/>
     <use style="fill:#800080;stroke:#800080;" x="643.68" xlink:href="#m99ccfd7664" y="503.156507"/>
     <use style="fill:#800080;stroke:#800080;" x="657.072" xlink:href="#m99ccfd7664" y="503.10445"/>
     <use style="fill:#800080;stroke:#800080;" x="670.464" xlink:href="#m99ccfd7664" y="504.158611"/>
     <use style="fill:#800080;stroke:#800080;" x="683.856" xlink:href="#m99ccfd7664" y="509.715352"/>
     <use style="fill:#800080;stroke:#800080;" x="697.248" xlink:href="#m99ccfd7664" y="508.860662"/>
     <use style="fill:#800080;stroke:#800080;" x="710.64" xlink:href="#m99ccfd7664" y="507.657261"/>
     <use style="fill:#800080;stroke:#800080;" x="724.032" xlink:href="#m99ccfd7664" y="507.928956"/>
     <use style="fill:#800080;stroke:#800080;" x="737.424" xlink:href="#m99ccfd7664" y="509.521495"/>
     <use style="fill:#800080;stroke:#800080;" x="750.816" xlink:href="#m99ccfd7664" y="508.606478"/>
     <use style="fill:#800080;stroke:#800080;" x="764.208" xlink:href="#m99ccfd7664" y="512.64"/>
     <use style="fill:#800080;stroke:#800080;" x="777.6" xlink:href="#m99ccfd7664" y="511.198436"/>
    </g>
   </g>
   <g id="PathCollection_2">
    <defs>
     <path d="M 0 3 
C 0.795609 3 1.55874 2.683901 2.12132 2.12132 
C 2.683901 1.55874 3 0.795609 3 0 
C 3 -0.795609 2.683901 -1.55874 2.12132 -2.12132 
C 1.55874 -2.683901 0.795609 -3 0 -3 
C -0.795609 -3 -1.55874 -2.683901 -2.12132 -2.12132 
C -2.683901 -1.55874 -3 -0.795609 -3 0 
C -3 0.795609 -2.683901 1.55874 -2.12132 2.12132 
C -1.55874 2.683901 -0.795609 3 0 3 
z
" id="m20301ad3f6" style="stroke:#0000ff;"/>
    </defs>
    <g clip-path="url(#p71ed9e442c)">
     <use style="fill:#0000ff;stroke:#0000ff;" x="121.392" xlink:href="#m20301ad3f6" y="69.12"/>
     <use style="fill:#0000ff;stroke:#0000ff;" x="134.784" xlink:href="#m20301ad3f6" y="89.681597"/>
     <use style="fill:#0000ff;stroke:#0000ff;" x="148.176" xlink:href="#m20301ad3f6" y="108.16825"/>
     <use style="fill:#0000ff;stroke:#0000ff;" x="161.568" xlink:href="#m20301ad3f6" y="137.503793"/>
     <use style="fill:#0000ff;stroke:#0000ff;" x="174.96" xlink:href="#m20301ad3f6" y="160.50525"/>
     <use style="fill:#0000ff;stroke:#0000ff;" x="188.352" xlink:href="#m20301ad3f6" y="207.002828"/>
     <use style="fill:#0000ff;stroke:#0000ff;" x="201.744" xlink:href="#m20301ad3f6" y="245.272988"/>
     <use style="fill:#0000ff;stroke:#0000ff;" x="215.136" xlink:href="#m20301ad3f6" y="284.088549"/>
     <use style="fill:#0000ff;stroke:#0000ff;" x="228.528" xlink:href="#m20301ad3f6" y="322.762918"/>
     <use style="fill:#0000ff;stroke:#0000ff;" x="241.92" xlink:href="#m20301ad3f6" y="357.046594"/>
     <use style="fill:#0000ff;stroke:#0000ff;" x="255.312" xlink:href="#m20301ad3f6" y="389.540245"/>
     <use style="fill:#0000ff;stroke:#0000ff;" x="268.704" xlink:href="#m20301ad3f6" y="396.021302"/>
     <use style="fill:#0000ff;stroke:#0000ff;" x="282.096" xlink:href="#m20301ad3f6" y="412.107078"/>
     <use style="fill:#0000ff;stroke:#0000ff;" x="295.488" xlink:href="#m20301ad3f6" y="413.95996"/>
     <use style="fill:#0000ff;stroke:#0000ff;" x="308.88" xlink:href="#m20301ad3f6" y="437.762423"/>
     <use style="fill:#0000ff;stroke:#0000ff;" x="322.272" xlink:href="#m20301ad3f6" y="433.939399"/>
     <use style="fill:#0000ff;stroke:#0000ff;" x="335.664" xlink:href="#m20301ad3f6" y="443.277421"/>
     <use style="fill:#0000ff;stroke:#0000ff;" x="349.056" xlink:href="#m20301ad3f6" y="440.961262"/>
     <use style="fill:#0000ff;stroke:#0000ff;" x="362.448" xlink:href="#m20301ad3f6" y="446.542205"/>
     <use style="fill:#0000ff;stroke:#0000ff;" x="375.84" xlink:href="#m20301ad3f6" y="457.613919"/>
     <use style="fill:#0000ff;stroke:#0000ff;" x="389.232" xlink:href="#m20301ad3f6" y="462.604515"/>
     <use style="fill:#0000ff;stroke:#0000ff;" x="402.624" xlink:href="#m20301ad3f6" y="465.817659"/>
     <use style="fill:#0000ff;stroke:#0000ff;" x="416.016" xlink:href="#m20301ad3f6" y="469.290495"/>
     <use style="fill:#0000ff;stroke:#0000ff;" x="429.408" xlink:href="#m20301ad3f6" y="474.570733"/>
     <use style="fill:#0000ff;stroke:#0000ff;" x="442.8" xlink:href="#m20301ad3f6" y="473.757056"/>
     <use style="fill:#0000ff;stroke:#0000ff;" x="456.192" xlink:href="#m20301ad3f6" y="480.406985"/>
     <use style="fill:#0000ff;stroke:#0000ff;" x="469.584" xlink:href="#m20301ad3f6" y="482.172894"/>
     <use style="fill:#0000ff;stroke:#0000ff;" x="482.976" xlink:href="#m20301ad3f6" y="488.493747"/>
     <use style="fill:#0000ff;stroke:#0000ff;" x="496.368" xlink:href="#m20301ad3f6" y="484.674514"/>
     <use style="fill:#0000ff;stroke:#0000ff;" x="509.76" xlink:href="#m20301ad3f6" y="486.89165"/>
     <use style="fill:#0000ff;stroke:#0000ff;" x="523.152" xlink:href="#m20301ad3f6" y="487.43815"/>
     <use style="fill:#0000ff;stroke:#0000ff;" x="536.544" xlink:href="#m20301ad3f6" y="480.356036"/>
     <use style="fill:#0000ff;stroke:#0000ff;" x="549.936" xlink:href="#m20301ad3f6" y="483.21069"/>
     <use style="fill:#0000ff;stroke:#0000ff;" x="563.328" xlink:href="#m20301ad3f6" y="484.586864"/>
     <use style="fill:#0000ff;stroke:#0000ff;" x="576.72" xlink:href="#m20301ad3f6" y="483.007289"/>
     <use style="fill:#0000ff;stroke:#0000ff;" x="590.112" xlink:href="#m20301ad3f6" y="485.50647"/>
     <use style="fill:#0000ff;stroke:#0000ff;" x="603.504" xlink:href="#m20301ad3f6" y="490.910254"/>
     <use style="fill:#0000ff;stroke:#0000ff;" x="616.896" xlink:href="#m20301ad3f6" y="490.221913"/>
     <use style="fill:#0000ff;stroke:#0000ff;" x="630.288" xlink:href="#m20301ad3f6" y="489.477"/>
     <use style="fill:#0000ff;stroke:#0000ff;" x="643.68" xlink:href="#m20301ad3f6" y="492.601804"/>
     <use style="fill:#0000ff;stroke:#0000ff;" x="657.072" xlink:href="#m20301ad3f6" y="495.859851"/>
     <use style="fill:#0000ff;stroke:#0000ff;" x="670.464" xlink:href="#m20301ad3f6" y="492.488504"/>
     <use style="fill:#0000ff;stroke:#0000ff;" x="683.856" xlink:href="#m20301ad3f6" y="504.690145"/>
     <use style="fill:#0000ff;stroke:#0000ff;" x="697.248" xlink:href="#m20301ad3f6" y="511.519121"/>
     <use style="fill:#0000ff;stroke:#0000ff;" x="710.64" xlink:href="#m20301ad3f6" y="512.64"/>
     <use style="fill:#0000ff;stroke:#0000ff;" x="724.032" xlink:href="#m20301ad3f6" y="508.290981"/>
     <use style="fill:#0000ff;stroke:#0000ff;" x="737.424" xlink:href="#m20301ad3f6" y="511.241473"/>
     <use style="fill:#0000ff;stroke:#0000ff;" x="750.816" xlink:href="#m20301ad3f6" y="512.539469"/>
     <use style="fill:#0000ff;stroke:#0000ff;" x="764.208" xlink:href="#m20301ad3f6" y="510.726529"/>
     <use style="fill:#0000ff;stroke:#0000ff;" x="777.6" xlink:href="#m20301ad3f6" y="512.086269"/>
    </g>
   </g>
   <g id="PathCollection_3">
    <defs>
     <path d="M 0 3 
C 0.795609 3 1.55874 2.683901 2.12132 2.12132 
C 2.683901 1.55874 3 0.795609 3 0 
C 3 -0.795609 2.683901 -1.55874 2.12132 -2.12132 
C 1.55874 -2.683901 0.795609 -3 0 -3 
C -0.795609 -3 -1.55874 -2.683901 -2.12132 -2.12132 
C -2.683901 -1.55874 -3 -0.795609 -3 0 
C -3 0.795609 -2.683901 1.55874 -2.12132 2.12132 
C -1.55874 2.683901 -0.795609 3 0 3 
z
" id="m2318e0a16c" style="stroke:#008000;"/>
    </defs>
    <g clip-path="url(#p71ed9e442c)">
     <use style="fill:#008000;stroke:#008000;" x="121.392" xlink:href="#m2318e0a16c" y="69.12"/>
     <use style="fill:#008000;stroke:#008000;" x="134.784" xlink:href="#m2318e0a16c" y="81.744362"/>
     <use style="fill:#008000;stroke:#008000;" x="148.176" xlink:href="#m2318e0a16c" y="98.172182"/>
     <use style="fill:#008000;stroke:#008000;" x="161.568" xlink:href="#m2318e0a16c" y="122.351756"/>
     <use style="fill:#008000;stroke:#008000;" x="174.96" xlink:href="#m2318e0a16c" y="158.568628"/>
     <use style="fill:#008000;stroke:#008000;" x="188.352" xlink:href="#m2318e0a16c" y="187.251412"/>
     <use style="fill:#008000;stroke:#008000;" x="201.744" xlink:href="#m2318e0a16c" y="207.608007"/>
     <use style="fill:#008000;stroke:#008000;" x="215.136" xlink:href="#m2318e0a16c" y="269.868641"/>
     <use style="fill:#008000;stroke:#008000;" x="228.528" xlink:href="#m2318e0a16c" y="313.092874"/>
     <use style="fill:#008000;stroke:#008000;" x="241.92" xlink:href="#m2318e0a16c" y="333.77078"/>
     <use style="fill:#008000;stroke:#008000;" x="255.312" xlink:href="#m2318e0a16c" y="362.546836"/>
     <use style="fill:#008000;stroke:#008000;" x="268.704" xlink:href="#m2318e0a16c" y="390.406052"/>
     <use style="fill:#008000;stroke:#008000;" x="282.096" xlink:href="#m2318e0a16c" y="384.194104"/>
     <use style="fill:#008000;stroke:#008000;" x="295.488" xlink:href="#m2318e0a16c" y="401.26738"/>
     <use style="fill:#008000;stroke:#008000;" x="308.88" xlink:href="#m2318e0a16c" y="420.819074"/>
     <use style="fill:#008000;stroke:#008000;" x="322.272" xlink:href="#m2318e0a16c" y="414.440788"/>
     <use style="fill:#008000;stroke:#008000;" x="335.664" xlink:href="#m2318e0a16c" y="425.721067"/>
     <use style="fill:#008000;stroke:#008000;" x="349.056" xlink:href="#m2318e0a16c" y="438.580944"/>
     <use style="fill:#008000;stroke:#008000;" x="362.448" xlink:href="#m2318e0a16c" y="440.630787"/>
     <use style="fill:#008000;stroke:#008000;" x="375.84" xlink:href="#m2318e0a16c" y="447.59554"/>
     <use style="fill:#008000;stroke:#008000;" x="389.232" xlink:href="#m2318e0a16c" y="441.799488"/>
     <use style="fill:#008000;stroke:#008000;" x="402.624" xlink:href="#m2318e0a16c" y="457.862637"/>
     <use style="fill:#008000;stroke:#008000;" x="416.016" xlink:href="#m2318e0a16c" y="460.291314"/>
     <use style="fill:#008000;stroke:#008000;" x="429.408" xlink:href="#m2318e0a16c" y="464.940865"/>
     <use style="fill:#008000;stroke:#008000;" x="442.8" xlink:href="#m2318e0a16c" y="465.947886"/>
     <use style="fill:#008000;stroke:#008000;" x="456.192" xlink:href="#m2318e0a16c" y="455.101318"/>
     <use style="fill:#008000;stroke:#008000;" x="469.584" xlink:href="#m2318e0a16c" y="471.394437"/>
     <use style="fill:#008000;stroke:#008000;" x="482.976" xlink:href="#m2318e0a16c" y="470.652672"/>
     <use style="fill:#008000;stroke:#008000;" x="496.368" xlink:href="#m2318e0a16c" y="473.943038"/>
     <use style="fill:#008000;stroke:#008000;" x="509.76" xlink:href="#m2318e0a16c" y="477.060581"/>
     <use style="fill:#008000;stroke:#008000;" x="523.152" xlink:href="#m2318e0a16c" y="480.950075"/>
     <use style="fill:#008000;stroke:#008000;" x="536.544" xlink:href="#m2318e0a16c" y="480.480479"/>
     <use style="fill:#008000;stroke:#008000;" x="549.936" xlink:href="#m2318e0a16c" y="490.518853"/>
     <use style="fill:#008000;stroke:#008000;" x="563.328" xlink:href="#m2318e0a16c" y="486.916236"/>
     <use style="fill:#008000;stroke:#008000;" x="576.72" xlink:href="#m2318e0a16c" y="490.144523"/>
     <use style="fill:#008000;stroke:#008000;" x="590.112" xlink:href="#m2318e0a16c" y="489.037013"/>
     <use style="fill:#008000;stroke:#008000;" x="603.504" xlink:href="#m2318e0a16c" y="485.049829"/>
     <use style="fill:#008000;stroke:#008000;" x="616.896" xlink:href="#m2318e0a16c" y="492.554038"/>
     <use style="fill:#008000;stroke:#008000;" x="630.288" xlink:href="#m2318e0a16c" y="491.88877"/>
     <use style="fill:#008000;stroke:#008000;" x="643.68" xlink:href="#m2318e0a16c" y="492.488649"/>
     <use style="fill:#008000;stroke:#008000;" x="657.072" xlink:href="#m2318e0a16c" y="501.772853"/>
     <use style="fill:#008000;stroke:#008000;" x="670.464" xlink:href="#m2318e0a16c" y="497.357026"/>
     <use style="fill:#008000;stroke:#008000;" x="683.856" xlink:href="#m2318e0a16c" y="504.661195"/>
     <use style="fill:#008000;stroke:#008000;" x="697.248" xlink:href="#m2318e0a16c" y="501.223006"/>
     <use style="fill:#008000;stroke:#008000;" x="710.64" xlink:href="#m2318e0a16c" y="500.696194"/>
     <use style="fill:#008000;stroke:#008000;" x="724.032" xlink:href="#m2318e0a16c" y="504.645548"/>
     <use style="fill:#008000;stroke:#008000;" x="737.424" xlink:href="#m2318e0a16c" y="512.64"/>
     <use style="fill:#008000;stroke:#008000;" x="750.816" xlink:href="#m2318e0a16c" y="501.703096"/>
     <use style="fill:#008000;stroke:#008000;" x="764.208" xlink:href="#m2318e0a16c" y="505.87271"/>
     <use style="fill:#008000;stroke:#008000;" x="777.6" xlink:href="#m2318e0a16c" y="511.768073"/>
    </g>
   </g>
   <g id="PathCollection_4">
    <defs>
     <path d="M 0 3 
C 0.795609 3 1.55874 2.683901 2.12132 2.12132 
C 2.683901 1.55874 3 0.795609 3 0 
C 3 -0.795609 2.683901 -1.55874 2.12132 -2.12132 
C 1.55874 -2.683901 0.795609 -3 0 -3 
C -0.795609 -3 -1.55874 -2.683901 -2.12132 -2.12132 
C -2.683901 -1.55874 -3 -0.795609 -3 0 
C -3 0.795609 -2.683901 1.55874 -2.12132 2.12132 
C -1.55874 2.683901 -0.795609 3 0 3 
z
" id="m211b449fae" style="stroke:#bfbf00;"/>
    </defs>
    <g clip-path="url(#p71ed9e442c)">
     <use style="fill:#bfbf00;stroke:#bfbf00;" x="121.392" xlink:href="#m211b449fae" y="69.12"/>
     <use style="fill:#bfbf00;stroke:#bfbf00;" x="134.784" xlink:href="#m211b449fae" y="87.787443"/>
     <use style="fill:#bfbf00;stroke:#bfbf00;" x="148.176" xlink:href="#m211b449fae" y="120.797211"/>
     <use style="fill:#bfbf00;stroke:#bfbf00;" x="161.568" xlink:href="#m211b449fae" y="153.426582"/>
     <use style="fill:#bfbf00;stroke:#bfbf00;" x="174.96" xlink:href="#m211b449fae" y="196.999402"/>
     <use style="fill:#bfbf00;stroke:#bfbf00;" x="188.352" xlink:href="#m211b449fae" y="205.487649"/>
     <use style="fill:#bfbf00;stroke:#bfbf00;" x="201.744" xlink:href="#m211b449fae" y="255.8112"/>
     <use style="fill:#bfbf00;stroke:#bfbf00;" x="215.136" xlink:href="#m211b449fae" y="296.899962"/>
     <use style="fill:#bfbf00;stroke:#bfbf00;" x="228.528" xlink:href="#m211b449fae" y="310.643587"/>
     <use style="fill:#bfbf00;stroke:#bfbf00;" x="241.92" xlink:href="#m211b449fae" y="336.718662"/>
     <use style="fill:#bfbf00;stroke:#bfbf00;" x="255.312" xlink:href="#m211b449fae" y="329.640144"/>
     <use style="fill:#bfbf00;stroke:#bfbf00;" x="268.704" xlink:href="#m211b449fae" y="373.013316"/>
     <use style="fill:#bfbf00;stroke:#bfbf00;" x="282.096" xlink:href="#m211b449fae" y="378.679344"/>
     <use style="fill:#bfbf00;stroke:#bfbf00;" x="295.488" xlink:href="#m211b449fae" y="375.788758"/>
     <use style="fill:#bfbf00;stroke:#bfbf00;" x="308.88" xlink:href="#m211b449fae" y="380.576753"/>
     <use style="fill:#bfbf00;stroke:#bfbf00;" x="322.272" xlink:href="#m211b449fae" y="386.31761"/>
     <use style="fill:#bfbf00;stroke:#bfbf00;" x="335.664" xlink:href="#m211b449fae" y="398.915012"/>
     <use style="fill:#bfbf00;stroke:#bfbf00;" x="349.056" xlink:href="#m211b449fae" y="410.625788"/>
     <use style="fill:#bfbf00;stroke:#bfbf00;" x="362.448" xlink:href="#m211b449fae" y="429.85829"/>
     <use style="fill:#bfbf00;stroke:#bfbf00;" x="375.84" xlink:href="#m211b449fae" y="415.746076"/>
     <use style="fill:#bfbf00;stroke:#bfbf00;" x="389.232" xlink:href="#m211b449fae" y="437.275598"/>
     <use style="fill:#bfbf00;stroke:#bfbf00;" x="402.624" xlink:href="#m211b449fae" y="440.230602"/>
     <use style="fill:#bfbf00;stroke:#bfbf00;" x="416.016" xlink:href="#m211b449fae" y="444.478708"/>
     <use style="fill:#bfbf00;stroke:#bfbf00;" x="429.408" xlink:href="#m211b449fae" y="443.568832"/>
     <use style="fill:#bfbf00;stroke:#bfbf00;" x="442.8" xlink:href="#m211b449fae" y="457.451076"/>
     <use style="fill:#bfbf00;stroke:#bfbf00;" x="456.192" xlink:href="#m211b449fae" y="459.256626"/>
     <use style="fill:#bfbf00;stroke:#bfbf00;" x="469.584" xlink:href="#m211b449fae" y="453.149485"/>
     <use style="fill:#bfbf00;stroke:#bfbf00;" x="482.976" xlink:href="#m211b449fae" y="460.318744"/>
     <use style="fill:#bfbf00;stroke:#bfbf00;" x="496.368" xlink:href="#m211b449fae" y="461.255606"/>
     <use style="fill:#bfbf00;stroke:#bfbf00;" x="509.76" xlink:href="#m211b449fae" y="474.225686"/>
     <use style="fill:#bfbf00;stroke:#bfbf00;" x="523.152" xlink:href="#m211b449fae" y="467.659651"/>
     <use style="fill:#bfbf00;stroke:#bfbf00;" x="536.544" xlink:href="#m211b449fae" y="481.520724"/>
     <use style="fill:#bfbf00;stroke:#bfbf00;" x="549.936" xlink:href="#m211b449fae" y="476.228561"/>
     <use style="fill:#bfbf00;stroke:#bfbf00;" x="563.328" xlink:href="#m211b449fae" y="478.248799"/>
     <use style="fill:#bfbf00;stroke:#bfbf00;" x="576.72" xlink:href="#m211b449fae" y="490.323361"/>
     <use style="fill:#bfbf00;stroke:#bfbf00;" x="590.112" xlink:href="#m211b449fae" y="491.469757"/>
     <use style="fill:#bfbf00;stroke:#bfbf00;" x="603.504" xlink:href="#m211b449fae" y="497.011752"/>
     <use style="fill:#bfbf00;stroke:#bfbf00;" x="616.896" xlink:href="#m211b449fae" y="489.390883"/>
     <use style="fill:#bfbf00;stroke:#bfbf00;" x="630.288" xlink:href="#m211b449fae" y="491.912005"/>
     <use style="fill:#bfbf00;stroke:#bfbf00;" x="643.68" xlink:href="#m211b449fae" y="497.984701"/>
     <use style="fill:#bfbf00;stroke:#bfbf00;" x="657.072" xlink:href="#m211b449fae" y="500.675149"/>
     <use style="fill:#bfbf00;stroke:#bfbf00;" x="670.464" xlink:href="#m211b449fae" y="505.610775"/>
     <use style="fill:#bfbf00;stroke:#bfbf00;" x="683.856" xlink:href="#m211b449fae" y="503.235432"/>
     <use style="fill:#bfbf00;stroke:#bfbf00;" x="697.248" xlink:href="#m211b449fae" y="507.80701"/>
     <use style="fill:#bfbf00;stroke:#bfbf00;" x="710.64" xlink:href="#m211b449fae" y="506.217649"/>
     <use style="fill:#bfbf00;stroke:#bfbf00;" x="724.032" xlink:href="#m211b449fae" y="506.058525"/>
     <use style="fill:#bfbf00;stroke:#bfbf00;" x="737.424" xlink:href="#m211b449fae" y="511.349535"/>
     <use style="fill:#bfbf00;stroke:#bfbf00;" x="750.816" xlink:href="#m211b449fae" y="511.687121"/>
     <use style="fill:#bfbf00;stroke:#bfbf00;" x="764.208" xlink:href="#m211b449fae" y="511.221956"/>
     <use style="fill:#bfbf00;stroke:#bfbf00;" x="777.6" xlink:href="#m211b449fae" y="512.64"/>
    </g>
   </g>
   <g id="PathCollection_5">
    <defs>
     <path d="M 0 3 
C 0.795609 3 1.55874 2.683901 2.12132 2.12132 
C 2.683901 1.55874 3 0.795609 3 0 
C 3 -0.795609 2.683901 -1.55874 2.12132 -2.12132 
C 1.55874 -2.683901 0.795609 -3 0 -3 
C -0.795609 -3 -1.55874 -2.683901 -2.12132 -2.12132 
C -2.683901 -1.55874 -3 -0.795609 -3 0 
C -3 0.795609 -2.683901 1.55874 -2.12132 2.12132 
C -1.55874 2.683901 -0.795609 3 0 3 
z
" id="m3e7d0e2a6b" style="stroke:#ff0000;"/>
    </defs>
    <g clip-path="url(#p71ed9e442c)">
     <use style="fill:#ff0000;stroke:#ff0000;" x="121.392" xlink:href="#m3e7d0e2a6b" y="69.12"/>
     <use style="fill:#ff0000;stroke:#ff0000;" x="134.784" xlink:href="#m3e7d0e2a6b" y="86.536272"/>
     <use style="fill:#ff0000;stroke:#ff0000;" x="148.176" xlink:href="#m3e7d0e2a6b" y="95.147925"/>
     <use style="fill:#ff0000;stroke:#ff0000;" x="161.568" xlink:href="#m3e7d0e2a6b" y="106.599059"/>
     <use style="fill:#ff0000;stroke:#ff0000;" x="174.96" xlink:href="#m3e7d0e2a6b" y="102.288514"/>
     <use style="fill:#ff0000;stroke:#ff0000;" x="188.352" xlink:href="#m3e7d0e2a6b" y="124.832012"/>
     <use style="fill:#ff0000;stroke:#ff0000;" x="201.744" xlink:href="#m3e7d0e2a6b" y="108.909991"/>
     <use style="fill:#ff0000;stroke:#ff0000;" x="215.136" xlink:href="#m3e7d0e2a6b" y="126.671618"/>
     <use style="fill:#ff0000;stroke:#ff0000;" x="228.528" xlink:href="#m3e7d0e2a6b" y="142.909947"/>
     <use style="fill:#ff0000;stroke:#ff0000;" x="241.92" xlink:href="#m3e7d0e2a6b" y="166.350669"/>
     <use style="fill:#ff0000;stroke:#ff0000;" x="255.312" xlink:href="#m3e7d0e2a6b" y="155.001377"/>
     <use style="fill:#ff0000;stroke:#ff0000;" x="268.704" xlink:href="#m3e7d0e2a6b" y="179.705236"/>
     <use style="fill:#ff0000;stroke:#ff0000;" x="282.096" xlink:href="#m3e7d0e2a6b" y="204.669393"/>
     <use style="fill:#ff0000;stroke:#ff0000;" x="295.488" xlink:href="#m3e7d0e2a6b" y="189.348509"/>
     <use style="fill:#ff0000;stroke:#ff0000;" x="308.88" xlink:href="#m3e7d0e2a6b" y="233.161921"/>
     <use style="fill:#ff0000;stroke:#ff0000;" x="322.272" xlink:href="#m3e7d0e2a6b" y="229.690098"/>
     <use style="fill:#ff0000;stroke:#ff0000;" x="335.664" xlink:href="#m3e7d0e2a6b" y="261.218441"/>
     <use style="fill:#ff0000;stroke:#ff0000;" x="349.056" xlink:href="#m3e7d0e2a6b" y="234.187407"/>
     <use style="fill:#ff0000;stroke:#ff0000;" x="362.448" xlink:href="#m3e7d0e2a6b" y="281.792185"/>
     <use style="fill:#ff0000;stroke:#ff0000;" x="375.84" xlink:href="#m3e7d0e2a6b" y="280.81762"/>
     <use style="fill:#ff0000;stroke:#ff0000;" x="389.232" xlink:href="#m3e7d0e2a6b" y="266.924226"/>
     <use style="fill:#ff0000;stroke:#ff0000;" x="402.624" xlink:href="#m3e7d0e2a6b" y="319.223997"/>
     <use style="fill:#ff0000;stroke:#ff0000;" x="416.016" xlink:href="#m3e7d0e2a6b" y="313.010086"/>
     <use style="fill:#ff0000;stroke:#ff0000;" x="429.408" xlink:href="#m3e7d0e2a6b" y="341.371994"/>
     <use style="fill:#ff0000;stroke:#ff0000;" x="442.8" xlink:href="#m3e7d0e2a6b" y="362.55139"/>
     <use style="fill:#ff0000;stroke:#ff0000;" x="456.192" xlink:href="#m3e7d0e2a6b" y="360.769478"/>
     <use style="fill:#ff0000;stroke:#ff0000;" x="469.584" xlink:href="#m3e7d0e2a6b" y="360.623086"/>
     <use style="fill:#ff0000;stroke:#ff0000;" x="482.976" xlink:href="#m3e7d0e2a6b" y="408.629971"/>
     <use style="fill:#ff0000;stroke:#ff0000;" x="496.368" xlink:href="#m3e7d0e2a6b" y="389.018694"/>
     <use style="fill:#ff0000;stroke:#ff0000;" x="509.76" xlink:href="#m3e7d0e2a6b" y="411.364442"/>
     <use style="fill:#ff0000;stroke:#ff0000;" x="523.152" xlink:href="#m3e7d0e2a6b" y="436.695455"/>
     <use style="fill:#ff0000;stroke:#ff0000;" x="536.544" xlink:href="#m3e7d0e2a6b" y="438.512583"/>
     <use style="fill:#ff0000;stroke:#ff0000;" x="549.936" xlink:href="#m3e7d0e2a6b" y="418.083951"/>
     <use style="fill:#ff0000;stroke:#ff0000;" x="563.328" xlink:href="#m3e7d0e2a6b" y="445.27543"/>
     <use style="fill:#ff0000;stroke:#ff0000;" x="576.72" xlink:href="#m3e7d0e2a6b" y="450.931811"/>
     <use style="fill:#ff0000;stroke:#ff0000;" x="590.112" xlink:href="#m3e7d0e2a6b" y="446.200356"/>
     <use style="fill:#ff0000;stroke:#ff0000;" x="603.504" xlink:href="#m3e7d0e2a6b" y="446.714548"/>
     <use style="fill:#ff0000;stroke:#ff0000;" x="616.896" xlink:href="#m3e7d0e2a6b" y="490.125349"/>
     <use style="fill:#ff0000;stroke:#ff0000;" x="630.288" xlink:href="#m3e7d0e2a6b" y="463.042888"/>
     <use style="fill:#ff0000;stroke:#ff0000;" x="643.68" xlink:href="#m3e7d0e2a6b" y="472.504047"/>
     <use style="fill:#ff0000;stroke:#ff0000;" x="657.072" xlink:href="#m3e7d0e2a6b" y="478.254619"/>
     <use style="fill:#ff0000;stroke:#ff0000;" x="670.464" xlink:href="#m3e7d0e2a6b" y="490.44334"/>
     <use style="fill:#ff0000;stroke:#ff0000;" x="683.856" xlink:href="#m3e7d0e2a6b" y="462.107819"/>
     <use style="fill:#ff0000;stroke:#ff0000;" x="697.248" xlink:href="#m3e7d0e2a6b" y="491.345384"/>
     <use style="fill:#ff0000;stroke:#ff0000;" x="710.64" xlink:href="#m3e7d0e2a6b" y="493.947583"/>
     <use style="fill:#ff0000;stroke:#ff0000;" x="724.032" xlink:href="#m3e7d0e2a6b" y="479.566991"/>
     <use style="fill:#ff0000;stroke:#ff0000;" x="737.424" xlink:href="#m3e7d0e2a6b" y="496.492392"/>
     <use style="fill:#ff0000;stroke:#ff0000;" x="750.816" xlink:href="#m3e7d0e2a6b" y="492.767247"/>
     <use style="fill:#ff0000;stroke:#ff0000;" x="764.208" xlink:href="#m3e7d0e2a6b" y="486.295094"/>
     <use style="fill:#ff0000;stroke:#ff0000;" x="777.6" xlink:href="#m3e7d0e2a6b" y="512.64"/>
    </g>
   </g>
   <g id="matplotlib.axis_1">
    <g id="xtick_1">
     <g id="line2d_1">
      <defs>
       <path d="M 0 0 
L 0 3.5 
" id="m54c8264dfc" style="stroke:#000000;stroke-width:0.8;"/>
      </defs>
      <g>
       <use style="stroke:#000000;stroke-width:0.8;" x="108" xlink:href="#m54c8264dfc" y="512.64"/>
      </g>
     </g>
     <g id="text_1">
      <!-- 0 -->
      <g transform="translate(101.6375 534.836875)scale(0.2 -0.2)">
       <defs>
        <path d="M 31.78125 66.40625 
Q 24.171875 66.40625 20.328125 58.90625 
Q 16.5 51.421875 16.5 36.375 
Q 16.5 21.390625 20.328125 13.890625 
Q 24.171875 6.390625 31.78125 6.390625 
Q 39.453125 6.390625 43.28125 13.890625 
Q 47.125 21.390625 47.125 36.375 
Q 47.125 51.421875 43.28125 58.90625 
Q 39.453125 66.40625 31.78125 66.40625 
z
M 31.78125 74.21875 
Q 44.046875 74.21875 50.515625 64.515625 
Q 56.984375 54.828125 56.984375 36.375 
Q 56.984375 17.96875 50.515625 8.265625 
Q 44.046875 -1.421875 31.78125 -1.421875 
Q 19.53125 -1.421875 13.0625 8.265625 
Q 6.59375 17.96875 6.59375 36.375 
Q 6.59375 54.828125 13.0625 64.515625 
Q 19.53125 74.21875 31.78125 74.21875 
z
" id="DejaVuSans-48"/>
       </defs>
       <use xlink:href="#DejaVuSans-48"/>
      </g>
     </g>
    </g>
    <g id="xtick_2">
     <g id="line2d_2">
      <g>
       <use style="stroke:#000000;stroke-width:0.8;" x="241.92" xlink:href="#m54c8264dfc" y="512.64"/>
      </g>
     </g>
     <g id="text_2">
      <!-- 10 -->
      <g transform="translate(229.195 534.836875)scale(0.2 -0.2)">
       <defs>
        <path d="M 12.40625 8.296875 
L 28.515625 8.296875 
L 28.515625 63.921875 
L 10.984375 60.40625 
L 10.984375 69.390625 
L 28.421875 72.90625 
L 38.28125 72.90625 
L 38.28125 8.296875 
L 54.390625 8.296875 
L 54.390625 0 
L 12.40625 0 
z
" id="DejaVuSans-49"/>
       </defs>
       <use xlink:href="#DejaVuSans-49"/>
       <use x="63.623047" xlink:href="#DejaVuSans-48"/>
      </g>
     </g>
    </g>
    <g id="xtick_3">
     <g id="line2d_3">
      <g>
       <use style="stroke:#000000;stroke-width:0.8;" x="375.84" xlink:href="#m54c8264dfc" y="512.64"/>
      </g>
     </g>
     <g id="text_3">
      <!-- 20 -->
      <g transform="translate(363.115 534.836875)scale(0.2 -0.2)">
       <defs>
        <path d="M 19.1875 8.296875 
L 53.609375 8.296875 
L 53.609375 0 
L 7.328125 0 
L 7.328125 8.296875 
Q 12.9375 14.109375 22.625 23.890625 
Q 32.328125 33.6875 34.8125 36.53125 
Q 39.546875 41.84375 41.421875 45.53125 
Q 43.3125 49.21875 43.3125 52.78125 
Q 43.3125 58.59375 39.234375 62.25 
Q 35.15625 65.921875 28.609375 65.921875 
Q 23.96875 65.921875 18.8125 64.3125 
Q 13.671875 62.703125 7.8125 59.421875 
L 7.8125 69.390625 
Q 13.765625 71.78125 18.9375 73 
Q 24.125 74.21875 28.421875 74.21875 
Q 39.75 74.21875 46.484375 68.546875 
Q 53.21875 62.890625 53.21875 53.421875 
Q 53.21875 48.921875 51.53125 44.890625 
Q 49.859375 40.875 45.40625 35.40625 
Q 44.1875 33.984375 37.640625 27.21875 
Q 31.109375 20.453125 19.1875 8.296875 
z
" id="DejaVuSans-50"/>
       </defs>
       <use xlink:href="#DejaVuSans-50"/>
       <use x="63.623047" xlink:href="#DejaVuSans-48"/>
      </g>
     </g>
    </g>
    <g id="xtick_4">
     <g id="line2d_4">
      <g>
       <use style="stroke:#000000;stroke-width:0.8;" x="509.76" xlink:href="#m54c8264dfc" y="512.64"/>
      </g>
     </g>
     <g id="text_4">
      <!-- 30 -->
      <g transform="translate(497.035 534.836875)scale(0.2 -0.2)">
       <defs>
        <path d="M 40.578125 39.3125 
Q 47.65625 37.796875 51.625 33 
Q 55.609375 28.21875 55.609375 21.1875 
Q 55.609375 10.40625 48.1875 4.484375 
Q 40.765625 -1.421875 27.09375 -1.421875 
Q 22.515625 -1.421875 17.65625 -0.515625 
Q 12.796875 0.390625 7.625 2.203125 
L 7.625 11.71875 
Q 11.71875 9.328125 16.59375 8.109375 
Q 21.484375 6.890625 26.8125 6.890625 
Q 36.078125 6.890625 40.9375 10.546875 
Q 45.796875 14.203125 45.796875 21.1875 
Q 45.796875 27.640625 41.28125 31.265625 
Q 36.765625 34.90625 28.71875 34.90625 
L 20.21875 34.90625 
L 20.21875 43.015625 
L 29.109375 43.015625 
Q 36.375 43.015625 40.234375 45.921875 
Q 44.09375 48.828125 44.09375 54.296875 
Q 44.09375 59.90625 40.109375 62.90625 
Q 36.140625 65.921875 28.71875 65.921875 
Q 24.65625 65.921875 20.015625 65.03125 
Q 15.375 64.15625 9.8125 62.3125 
L 9.8125 71.09375 
Q 15.4375 72.65625 20.34375 73.4375 
Q 25.25 74.21875 29.59375 74.21875 
Q 40.828125 74.21875 47.359375 69.109375 
Q 53.90625 64.015625 53.90625 55.328125 
Q 53.90625 49.265625 50.4375 45.09375 
Q 46.96875 40.921875 40.578125 39.3125 
z
" id="DejaVuSans-51"/>
       </defs>
       <use xlink:href="#DejaVuSans-51"/>
       <use x="63.623047" xlink:href="#DejaVuSans-48"/>
      </g>
     </g>
    </g>
    <g id="xtick_5">
     <g id="line2d_5">
      <g>
       <use style="stroke:#000000;stroke-width:0.8;" x="643.68" xlink:href="#m54c8264dfc" y="512.64"/>
      </g>
     </g>
     <g id="text_5">
      <!-- 40 -->
      <g transform="translate(630.955 534.836875)scale(0.2 -0.2)">
       <defs>
        <path d="M 37.796875 64.3125 
L 12.890625 25.390625 
L 37.796875 25.390625 
z
M 35.203125 72.90625 
L 47.609375 72.90625 
L 47.609375 25.390625 
L 58.015625 25.390625 
L 58.015625 17.1875 
L 47.609375 17.1875 
L 47.609375 0 
L 37.796875 0 
L 37.796875 17.1875 
L 4.890625 17.1875 
L 4.890625 26.703125 
z
" id="DejaVuSans-52"/>
       </defs>
       <use xlink:href="#DejaVuSans-52"/>
       <use x="63.623047" xlink:href="#DejaVuSans-48"/>
      </g>
     </g>
    </g>
    <g id="xtick_6">
     <g id="line2d_6">
      <g>
       <use style="stroke:#000000;stroke-width:0.8;" x="777.6" xlink:href="#m54c8264dfc" y="512.64"/>
      </g>
     </g>
     <g id="text_6">
      <!-- 50 -->
      <g transform="translate(764.875 534.836875)scale(0.2 -0.2)">
       <defs>
        <path d="M 10.796875 72.90625 
L 49.515625 72.90625 
L 49.515625 64.59375 
L 19.828125 64.59375 
L 19.828125 46.734375 
Q 21.96875 47.46875 24.109375 47.828125 
Q 26.265625 48.1875 28.421875 48.1875 
Q 40.625 48.1875 47.75 41.5 
Q 54.890625 34.8125 54.890625 23.390625 
Q 54.890625 11.625 47.5625 5.09375 
Q 40.234375 -1.421875 26.90625 -1.421875 
Q 22.3125 -1.421875 17.546875 -0.640625 
Q 12.796875 0.140625 7.71875 1.703125 
L 7.71875 11.625 
Q 12.109375 9.234375 16.796875 8.0625 
Q 21.484375 6.890625 26.703125 6.890625 
Q 35.15625 6.890625 40.078125 11.328125 
Q 45.015625 15.765625 45.015625 23.390625 
Q 45.015625 31 40.078125 35.4375 
Q 35.15625 39.890625 26.703125 39.890625 
Q 22.75 39.890625 18.8125 39.015625 
Q 14.890625 38.140625 10.796875 36.28125 
z
" id="DejaVuSans-53"/>
       </defs>
       <use xlink:href="#DejaVuSans-53"/>
       <use x="63.623047" xlink:href="#DejaVuSans-48"/>
      </g>
     </g>
    </g>
    <g id="text_7">
     <!-- Iterations -->
     <g transform="translate(395.173437 558.193125)scale(0.2 -0.2)">
      <defs>
       <path d="M 9.8125 72.90625 
L 19.671875 72.90625 
L 19.671875 0 
L 9.8125 0 
z
" id="DejaVuSans-73"/>
       <path d="M 18.3125 70.21875 
L 18.3125 54.6875 
L 36.8125 54.6875 
L 36.8125 47.703125 
L 18.3125 47.703125 
L 18.3125 18.015625 
Q 18.3125 11.328125 20.140625 9.421875 
Q 21.96875 7.515625 27.59375 7.515625 
L 36.8125 7.515625 
L 36.8125 0 
L 27.59375 0 
Q 17.1875 0 13.234375 3.875 
Q 9.28125 7.765625 9.28125 18.015625 
L 9.28125 47.703125 
L 2.6875 47.703125 
L 2.6875 54.6875 
L 9.28125 54.6875 
L 9.28125 70.21875 
z
" id="DejaVuSans-116"/>
       <path d="M 56.203125 29.59375 
L 56.203125 25.203125 
L 14.890625 25.203125 
Q 15.484375 15.921875 20.484375 11.0625 
Q 25.484375 6.203125 34.421875 6.203125 
Q 39.59375 6.203125 44.453125 7.46875 
Q 49.3125 8.734375 54.109375 11.28125 
L 54.109375 2.78125 
Q 49.265625 0.734375 44.1875 -0.34375 
Q 39.109375 -1.421875 33.890625 -1.421875 
Q 20.796875 -1.421875 13.15625 6.1875 
Q 5.515625 13.8125 5.515625 26.8125 
Q 5.515625 40.234375 12.765625 48.109375 
Q 20.015625 56 32.328125 56 
Q 43.359375 56 49.78125 48.890625 
Q 56.203125 41.796875 56.203125 29.59375 
z
M 47.21875 32.234375 
Q 47.125 39.59375 43.09375 43.984375 
Q 39.0625 48.390625 32.421875 48.390625 
Q 24.90625 48.390625 20.390625 44.140625 
Q 15.875 39.890625 15.1875 32.171875 
z
" id="DejaVuSans-101"/>
       <path d="M 41.109375 46.296875 
Q 39.59375 47.171875 37.8125 47.578125 
Q 36.03125 48 33.890625 48 
Q 26.265625 48 22.1875 43.046875 
Q 18.109375 38.09375 18.109375 28.8125 
L 18.109375 0 
L 9.078125 0 
L 9.078125 54.6875 
L 18.109375 54.6875 
L 18.109375 46.1875 
Q 20.953125 51.171875 25.484375 53.578125 
Q 30.03125 56 36.53125 56 
Q 37.453125 56 38.578125 55.875 
Q 39.703125 55.765625 41.0625 55.515625 
z
" id="DejaVuSans-114"/>
       <path d="M 34.28125 27.484375 
Q 23.390625 27.484375 19.1875 25 
Q 14.984375 22.515625 14.984375 16.5 
Q 14.984375 11.71875 18.140625 8.90625 
Q 21.296875 6.109375 26.703125 6.109375 
Q 34.1875 6.109375 38.703125 11.40625 
Q 43.21875 16.703125 43.21875 25.484375 
L 43.21875 27.484375 
z
M 52.203125 31.203125 
L 52.203125 0 
L 43.21875 0 
L 43.21875 8.296875 
Q 40.140625 3.328125 35.546875 0.953125 
Q 30.953125 -1.421875 24.3125 -1.421875 
Q 15.921875 -1.421875 10.953125 3.296875 
Q 6 8.015625 6 15.921875 
Q 6 25.140625 12.171875 29.828125 
Q 18.359375 34.515625 30.609375 34.515625 
L 43.21875 34.515625 
L 43.21875 35.40625 
Q 43.21875 41.609375 39.140625 45 
Q 35.0625 48.390625 27.6875 48.390625 
Q 23 48.390625 18.546875 47.265625 
Q 14.109375 46.140625 10.015625 43.890625 
L 10.015625 52.203125 
Q 14.9375 54.109375 19.578125 55.046875 
Q 24.21875 56 28.609375 56 
Q 40.484375 56 46.34375 49.84375 
Q 52.203125 43.703125 52.203125 31.203125 
z
" id="DejaVuSans-97"/>
       <path d="M 9.421875 54.6875 
L 18.40625 54.6875 
L 18.40625 0 
L 9.421875 0 
z
M 9.421875 75.984375 
L 18.40625 75.984375 
L 18.40625 64.59375 
L 9.421875 64.59375 
z
" id="DejaVuSans-105"/>
       <path d="M 30.609375 48.390625 
Q 23.390625 48.390625 19.1875 42.75 
Q 14.984375 37.109375 14.984375 27.296875 
Q 14.984375 17.484375 19.15625 11.84375 
Q 23.34375 6.203125 30.609375 6.203125 
Q 37.796875 6.203125 41.984375 11.859375 
Q 46.1875 17.53125 46.1875 27.296875 
Q 46.1875 37.015625 41.984375 42.703125 
Q 37.796875 48.390625 30.609375 48.390625 
z
M 30.609375 56 
Q 42.328125 56 49.015625 48.375 
Q 55.71875 40.765625 55.71875 27.296875 
Q 55.71875 13.875 49.015625 6.21875 
Q 42.328125 -1.421875 30.609375 -1.421875 
Q 18.84375 -1.421875 12.171875 6.21875 
Q 5.515625 13.875 5.515625 27.296875 
Q 5.515625 40.765625 12.171875 48.375 
Q 18.84375 56 30.609375 56 
z
" id="DejaVuSans-111"/>
       <path d="M 54.890625 33.015625 
L 54.890625 0 
L 45.90625 0 
L 45.90625 32.71875 
Q 45.90625 40.484375 42.875 44.328125 
Q 39.84375 48.1875 33.796875 48.1875 
Q 26.515625 48.1875 22.3125 43.546875 
Q 18.109375 38.921875 18.109375 30.90625 
L 18.109375 0 
L 9.078125 0 
L 9.078125 54.6875 
L 18.109375 54.6875 
L 18.109375 46.1875 
Q 21.34375 51.125 25.703125 53.5625 
Q 30.078125 56 35.796875 56 
Q 45.21875 56 50.046875 50.171875 
Q 54.890625 44.34375 54.890625 33.015625 
z
" id="DejaVuSans-110"/>
       <path d="M 44.28125 53.078125 
L 44.28125 44.578125 
Q 40.484375 46.53125 36.375 47.5 
Q 32.28125 48.484375 27.875 48.484375 
Q 21.1875 48.484375 17.84375 46.4375 
Q 14.5 44.390625 14.5 40.28125 
Q 14.5 37.15625 16.890625 35.375 
Q 19.28125 33.59375 26.515625 31.984375 
L 29.59375 31.296875 
Q 39.15625 29.25 43.1875 25.515625 
Q 47.21875 21.78125 47.21875 15.09375 
Q 47.21875 7.46875 41.1875 3.015625 
Q 35.15625 -1.421875 24.609375 -1.421875 
Q 20.21875 -1.421875 15.453125 -0.5625 
Q 10.6875 0.296875 5.421875 2 
L 5.421875 11.28125 
Q 10.40625 8.6875 15.234375 7.390625 
Q 20.0625 6.109375 24.8125 6.109375 
Q 31.15625 6.109375 34.5625 8.28125 
Q 37.984375 10.453125 37.984375 14.40625 
Q 37.984375 18.0625 35.515625 20.015625 
Q 33.0625 21.96875 24.703125 23.78125 
L 21.578125 24.515625 
Q 13.234375 26.265625 9.515625 29.90625 
Q 5.8125 33.546875 5.8125 39.890625 
Q 5.8125 47.609375 11.28125 51.796875 
Q 16.75 56 26.8125 56 
Q 31.78125 56 36.171875 55.265625 
Q 40.578125 54.546875 44.28125 53.078125 
z
" id="DejaVuSans-115"/>
      </defs>
      <use xlink:href="#DejaVuSans-73"/>
      <use x="29.492188" xlink:href="#DejaVuSans-116"/>
      <use x="68.701172" xlink:href="#DejaVuSans-101"/>
      <use x="130.224609" xlink:href="#DejaVuSans-114"/>
      <use x="171.337891" xlink:href="#DejaVuSans-97"/>
      <use x="232.617188" xlink:href="#DejaVuSans-116"/>
      <use x="271.826172" xlink:href="#DejaVuSans-105"/>
      <use x="299.609375" xlink:href="#DejaVuSans-111"/>
      <use x="360.791016" xlink:href="#DejaVuSans-110"/>
      <use x="424.169922" xlink:href="#DejaVuSans-115"/>
     </g>
    </g>
   </g>
   <g id="matplotlib.axis_2">
    <g id="ytick_1">
     <g id="line2d_7">
      <defs>
       <path d="M 0 0 
L -3.5 0 
" id="m3c9a749ed5" style="stroke:#000000;stroke-width:0.8;"/>
      </defs>
      <g>
       <use style="stroke:#000000;stroke-width:0.8;" x="108" xlink:href="#m3c9a749ed5" y="512.64"/>
      </g>
     </g>
     <g id="text_8">
      <!-- 0.0 -->
      <g transform="translate(69.19375 520.238438)scale(0.2 -0.2)">
       <defs>
        <path d="M 10.6875 12.40625 
L 21 12.40625 
L 21 0 
L 10.6875 0 
z
" id="DejaVuSans-46"/>
       </defs>
       <use xlink:href="#DejaVuSans-48"/>
       <use x="63.623047" xlink:href="#DejaVuSans-46"/>
       <use x="95.410156" xlink:href="#DejaVuSans-48"/>
      </g>
     </g>
    </g>
    <g id="ytick_2">
     <g id="line2d_8">
      <g>
       <use style="stroke:#000000;stroke-width:0.8;" x="108" xlink:href="#m3c9a749ed5" y="290.88"/>
      </g>
     </g>
     <g id="text_9">
      <!-- 0.5 -->
      <g transform="translate(69.19375 298.478437)scale(0.2 -0.2)">
       <use xlink:href="#DejaVuSans-48"/>
       <use x="63.623047" xlink:href="#DejaVuSans-46"/>
       <use x="95.410156" xlink:href="#DejaVuSans-53"/>
      </g>
     </g>
    </g>
    <g id="ytick_3">
     <g id="line2d_9">
      <g>
       <use style="stroke:#000000;stroke-width:0.8;" x="108" xlink:href="#m3c9a749ed5" y="69.12"/>
      </g>
     </g>
     <g id="text_10">
      <!-- 1.0 -->
      <g transform="translate(69.19375 76.718437)scale(0.2 -0.2)">
       <use xlink:href="#DejaVuSans-49"/>
       <use x="63.623047" xlink:href="#DejaVuSans-46"/>
       <use x="95.410156" xlink:href="#DejaVuSans-48"/>
      </g>
     </g>
    </g>
    <g id="text_11">
     <!-- RER -->
     <g transform="translate(61.034375 311.095625)rotate(-90)scale(0.2 -0.2)">
      <defs>
       <path d="M 44.390625 34.1875 
Q 47.5625 33.109375 50.5625 29.59375 
Q 53.5625 26.078125 56.59375 19.921875 
L 66.609375 0 
L 56 0 
L 46.6875 18.703125 
Q 43.0625 26.03125 39.671875 28.421875 
Q 36.28125 30.8125 30.421875 30.8125 
L 19.671875 30.8125 
L 19.671875 0 
L 9.8125 0 
L 9.8125 72.90625 
L 32.078125 72.90625 
Q 44.578125 72.90625 50.734375 67.671875 
Q 56.890625 62.453125 56.890625 51.90625 
Q 56.890625 45.015625 53.6875 40.46875 
Q 50.484375 35.9375 44.390625 34.1875 
z
M 19.671875 64.796875 
L 19.671875 38.921875 
L 32.078125 38.921875 
Q 39.203125 38.921875 42.84375 42.21875 
Q 46.484375 45.515625 46.484375 51.90625 
Q 46.484375 58.296875 42.84375 61.546875 
Q 39.203125 64.796875 32.078125 64.796875 
z
" id="DejaVuSans-82"/>
       <path d="M 9.8125 72.90625 
L 55.90625 72.90625 
L 55.90625 64.59375 
L 19.671875 64.59375 
L 19.671875 43.015625 
L 54.390625 43.015625 
L 54.390625 34.71875 
L 19.671875 34.71875 
L 19.671875 8.296875 
L 56.78125 8.296875 
L 56.78125 0 
L 9.8125 0 
z
" id="DejaVuSans-69"/>
      </defs>
      <use xlink:href="#DejaVuSans-82"/>
      <use x="69.482422" xlink:href="#DejaVuSans-69"/>
      <use x="132.666016" xlink:href="#DejaVuSans-82"/>
     </g>
    </g>
   </g>
   <g id="line2d_10">
    <path clip-path="url(#p71ed9e442c)" d="M 121.392 69.12 
L 134.784 88.40013 
L 148.176 107.805699 
L 161.568 137.029396 
L 174.96 185.223878 
L 188.352 234.108224 
L 201.744 291.865424 
L 215.136 350.995233 
L 228.528 394.858003 
L 241.92 404.05576 
L 255.312 417.386917 
L 268.704 428.648224 
L 282.096 436.13242 
L 295.488 437.166816 
L 308.88 447.791374 
L 322.272 448.732337 
L 335.664 453.069472 
L 349.056 459.472895 
L 362.448 464.038487 
L 375.84 470.756588 
L 389.232 473.694657 
L 402.624 471.828268 
L 416.016 476.798573 
L 429.408 471.723808 
L 442.8 480.496585 
L 456.192 477.598412 
L 469.584 483.611876 
L 482.976 487.070584 
L 496.368 489.817645 
L 509.76 484.636813 
L 523.152 488.661991 
L 536.544 490.087039 
L 549.936 491.000998 
L 563.328 494.759283 
L 576.72 493.620117 
L 590.112 503.065065 
L 603.504 503.07005 
L 616.896 500.717185 
L 630.288 503.477036 
L 643.68 503.156507 
L 657.072 503.10445 
L 670.464 504.158611 
L 683.856 509.715352 
L 697.248 508.860662 
L 710.64 507.657261 
L 724.032 507.928956 
L 737.424 509.521495 
L 750.816 508.606478 
L 764.208 512.64 
L 777.6 511.198436 
" style="fill:none;stroke:#800080;stroke-linecap:square;stroke-width:1.5;"/>
   </g>
   <g id="line2d_11">
    <path clip-path="url(#p71ed9e442c)" d="M 121.392 69.12 
L 134.784 89.681597 
L 148.176 108.16825 
L 161.568 137.503793 
L 174.96 160.50525 
L 188.352 207.002828 
L 201.744 245.272988 
L 215.136 284.088549 
L 228.528 322.762918 
L 241.92 357.046594 
L 255.312 389.540245 
L 268.704 396.021302 
L 282.096 412.107078 
L 295.488 413.95996 
L 308.88 437.762423 
L 322.272 433.939399 
L 335.664 443.277421 
L 349.056 440.961262 
L 362.448 446.542205 
L 375.84 457.613919 
L 389.232 462.604515 
L 402.624 465.817659 
L 416.016 469.290495 
L 429.408 474.570733 
L 442.8 473.757056 
L 456.192 480.406985 
L 469.584 482.172894 
L 482.976 488.493747 
L 496.368 484.674514 
L 509.76 486.89165 
L 523.152 487.43815 
L 536.544 480.356036 
L 549.936 483.21069 
L 563.328 484.586864 
L 576.72 483.007289 
L 590.112 485.50647 
L 603.504 490.910254 
L 616.896 490.221913 
L 630.288 489.477 
L 643.68 492.601804 
L 657.072 495.859851 
L 670.464 492.488504 
L 683.856 504.690145 
L 697.248 511.519121 
L 710.64 512.64 
L 724.032 508.290981 
L 737.424 511.241473 
L 750.816 512.539469 
L 764.208 510.726529 
L 777.6 512.086269 
" style="fill:none;stroke:#0000ff;stroke-linecap:square;stroke-width:1.5;"/>
   </g>
   <g id="line2d_12">
    <path clip-path="url(#p71ed9e442c)" d="M 121.392 69.12 
L 134.784 81.744362 
L 148.176 98.172182 
L 161.568 122.351756 
L 174.96 158.568628 
L 188.352 187.251412 
L 201.744 207.608007 
L 215.136 269.868641 
L 228.528 313.092874 
L 241.92 333.77078 
L 255.312 362.546836 
L 268.704 390.406052 
L 282.096 384.194104 
L 295.488 401.26738 
L 308.88 420.819074 
L 322.272 414.440788 
L 335.664 425.721067 
L 349.056 438.580944 
L 362.448 440.630787 
L 375.84 447.59554 
L 389.232 441.799488 
L 402.624 457.862637 
L 416.016 460.291314 
L 429.408 464.940865 
L 442.8 465.947886 
L 456.192 455.101318 
L 469.584 471.394437 
L 482.976 470.652672 
L 496.368 473.943038 
L 509.76 477.060581 
L 523.152 480.950075 
L 536.544 480.480479 
L 549.936 490.518853 
L 563.328 486.916236 
L 576.72 490.144523 
L 590.112 489.037013 
L 603.504 485.049829 
L 616.896 492.554038 
L 630.288 491.88877 
L 643.68 492.488649 
L 657.072 501.772853 
L 670.464 497.357026 
L 683.856 504.661195 
L 697.248 501.223006 
L 710.64 500.696194 
L 724.032 504.645548 
L 737.424 512.64 
L 750.816 501.703096 
L 764.208 505.87271 
L 777.6 511.768073 
" style="fill:none;stroke:#008000;stroke-linecap:square;stroke-width:1.5;"/>
   </g>
   <g id="line2d_13">
    <path clip-path="url(#p71ed9e442c)" d="M 121.392 69.12 
L 134.784 87.787443 
L 148.176 120.797211 
L 161.568 153.426582 
L 174.96 196.999402 
L 188.352 205.487649 
L 201.744 255.8112 
L 215.136 296.899962 
L 228.528 310.643587 
L 241.92 336.718662 
L 255.312 329.640144 
L 268.704 373.013316 
L 282.096 378.679344 
L 295.488 375.788758 
L 308.88 380.576753 
L 322.272 386.31761 
L 335.664 398.915012 
L 349.056 410.625788 
L 362.448 429.85829 
L 375.84 415.746076 
L 389.232 437.275598 
L 402.624 440.230602 
L 416.016 444.478708 
L 429.408 443.568832 
L 442.8 457.451076 
L 456.192 459.256626 
L 469.584 453.149485 
L 482.976 460.318744 
L 496.368 461.255606 
L 509.76 474.225686 
L 523.152 467.659651 
L 536.544 481.520724 
L 549.936 476.228561 
L 563.328 478.248799 
L 576.72 490.323361 
L 590.112 491.469757 
L 603.504 497.011752 
L 616.896 489.390883 
L 630.288 491.912005 
L 643.68 497.984701 
L 657.072 500.675149 
L 670.464 505.610775 
L 683.856 503.235432 
L 697.248 507.80701 
L 710.64 506.217649 
L 724.032 506.058525 
L 737.424 511.349535 
L 750.816 511.687121 
L 764.208 511.221956 
L 777.6 512.64 
" style="fill:none;stroke:#bfbf00;stroke-linecap:square;stroke-width:1.5;"/>
   </g>
   <g id="line2d_14">
    <path clip-path="url(#p71ed9e442c)" d="M 121.392 69.12 
L 134.784 86.536272 
L 148.176 95.147925 
L 161.568 106.599059 
L 174.96 102.288514 
L 188.352 124.832012 
L 201.744 108.909991 
L 215.136 126.671618 
L 228.528 142.909947 
L 241.92 166.350669 
L 255.312 155.001377 
L 268.704 179.705236 
L 282.096 204.669393 
L 295.488 189.348509 
L 308.88 233.161921 
L 322.272 229.690098 
L 335.664 261.218441 
L 349.056 234.187407 
L 362.448 281.792185 
L 375.84 280.81762 
L 389.232 266.924226 
L 402.624 319.223997 
L 416.016 313.010086 
L 429.408 341.371994 
L 442.8 362.55139 
L 456.192 360.769478 
L 469.584 360.623086 
L 482.976 408.629971 
L 496.368 389.018694 
L 509.76 411.364442 
L 523.152 436.695455 
L 536.544 438.512583 
L 549.936 418.083951 
L 563.328 445.27543 
L 576.72 450.931811 
L 590.112 446.200356 
L 603.504 446.714548 
L 616.896 490.125349 
L 630.288 463.042888 
L 643.68 472.504047 
L 657.072 478.254619 
L 670.464 490.44334 
L 683.856 462.107819 
L 697.248 491.345384 
L 710.64 493.947583 
L 724.032 479.566991 
L 737.424 496.492392 
L 750.816 492.767247 
L 764.208 486.295094 
L 777.6 512.64 
" style="fill:none;stroke:#ff0000;stroke-linecap:square;stroke-width:1.5;"/>
   </g>
   <g id="patch_3">
    <path d="M 108 512.64 
L 108 69.12 
" style="fill:none;stroke:#000000;stroke-linecap:square;stroke-linejoin:miter;stroke-width:0.8;"/>
   </g>
   <g id="patch_4">
    <path d="M 777.6 512.64 
L 777.6 69.12 
" style="fill:none;stroke:#000000;stroke-linecap:square;stroke-linejoin:miter;stroke-width:0.8;"/>
   </g>
   <g id="patch_5">
    <path d="M 108 512.64 
L 777.6 512.64 
" style="fill:none;stroke:#000000;stroke-linecap:square;stroke-linejoin:miter;stroke-width:0.8;"/>
   </g>
   <g id="patch_6">
    <path d="M 108 69.12 
L 777.6 69.12 
" style="fill:none;stroke:#000000;stroke-linecap:square;stroke-linejoin:miter;stroke-width:0.8;"/>
   </g>
   <g id="legend_1">
    <g id="patch_7">
     <path d="M 705.923437 150.510625 
L 770.6 150.510625 
Q 772.6 150.510625 772.6 148.510625 
L 772.6 76.12 
Q 772.6 74.12 770.6 74.12 
L 705.923437 74.12 
Q 703.923437 74.12 703.923437 76.12 
L 703.923437 148.510625 
Q 703.923437 150.510625 705.923437 150.510625 
z
" style="fill:#ffffff;opacity:0.8;stroke:#cccccc;stroke-linejoin:miter;"/>
    </g>
    <g id="line2d_15">
     <path d="M 707.923437 82.218437 
L 727.923437 82.218437 
" style="fill:none;stroke:#800080;stroke-linecap:square;stroke-width:1.5;"/>
    </g>
    <g id="line2d_16"/>
    <g id="text_12">
     <!-- s=100 -->
     <g transform="translate(735.923437 85.718437)scale(0.1 -0.1)">
      <defs>
       <path d="M 10.59375 45.40625 
L 73.1875 45.40625 
L 73.1875 37.203125 
L 10.59375 37.203125 
z
M 10.59375 25.484375 
L 73.1875 25.484375 
L 73.1875 17.1875 
L 10.59375 17.1875 
z
" id="DejaVuSans-61"/>
      </defs>
      <use xlink:href="#DejaVuSans-115"/>
      <use x="52.099609" xlink:href="#DejaVuSans-61"/>
      <use x="135.888672" xlink:href="#DejaVuSans-49"/>
      <use x="199.511719" xlink:href="#DejaVuSans-48"/>
      <use x="263.134766" xlink:href="#DejaVuSans-48"/>
     </g>
    </g>
    <g id="line2d_17">
     <path d="M 707.923437 96.896563 
L 727.923437 96.896563 
" style="fill:none;stroke:#0000ff;stroke-linecap:square;stroke-width:1.5;"/>
    </g>
    <g id="line2d_18"/>
    <g id="text_13">
     <!-- s=80 -->
     <g transform="translate(735.923437 100.396563)scale(0.1 -0.1)">
      <defs>
       <path d="M 31.78125 34.625 
Q 24.75 34.625 20.71875 30.859375 
Q 16.703125 27.09375 16.703125 20.515625 
Q 16.703125 13.921875 20.71875 10.15625 
Q 24.75 6.390625 31.78125 6.390625 
Q 38.8125 6.390625 42.859375 10.171875 
Q 46.921875 13.96875 46.921875 20.515625 
Q 46.921875 27.09375 42.890625 30.859375 
Q 38.875 34.625 31.78125 34.625 
z
M 21.921875 38.8125 
Q 15.578125 40.375 12.03125 44.71875 
Q 8.5 49.078125 8.5 55.328125 
Q 8.5 64.0625 14.71875 69.140625 
Q 20.953125 74.21875 31.78125 74.21875 
Q 42.671875 74.21875 48.875 69.140625 
Q 55.078125 64.0625 55.078125 55.328125 
Q 55.078125 49.078125 51.53125 44.71875 
Q 48 40.375 41.703125 38.8125 
Q 48.828125 37.15625 52.796875 32.3125 
Q 56.78125 27.484375 56.78125 20.515625 
Q 56.78125 9.90625 50.3125 4.234375 
Q 43.84375 -1.421875 31.78125 -1.421875 
Q 19.734375 -1.421875 13.25 4.234375 
Q 6.78125 9.90625 6.78125 20.515625 
Q 6.78125 27.484375 10.78125 32.3125 
Q 14.796875 37.15625 21.921875 38.8125 
z
M 18.3125 54.390625 
Q 18.3125 48.734375 21.84375 45.5625 
Q 25.390625 42.390625 31.78125 42.390625 
Q 38.140625 42.390625 41.71875 45.5625 
Q 45.3125 48.734375 45.3125 54.390625 
Q 45.3125 60.0625 41.71875 63.234375 
Q 38.140625 66.40625 31.78125 66.40625 
Q 25.390625 66.40625 21.84375 63.234375 
Q 18.3125 60.0625 18.3125 54.390625 
z
" id="DejaVuSans-56"/>
      </defs>
      <use xlink:href="#DejaVuSans-115"/>
      <use x="52.099609" xlink:href="#DejaVuSans-61"/>
      <use x="135.888672" xlink:href="#DejaVuSans-56"/>
      <use x="199.511719" xlink:href="#DejaVuSans-48"/>
     </g>
    </g>
    <g id="line2d_19">
     <path d="M 707.923437 111.574687 
L 727.923437 111.574687 
" style="fill:none;stroke:#008000;stroke-linecap:square;stroke-width:1.5;"/>
    </g>
    <g id="line2d_20"/>
    <g id="text_14">
     <!-- s=60 -->
     <g transform="translate(735.923437 115.074687)scale(0.1 -0.1)">
      <defs>
       <path d="M 33.015625 40.375 
Q 26.375 40.375 22.484375 35.828125 
Q 18.609375 31.296875 18.609375 23.390625 
Q 18.609375 15.53125 22.484375 10.953125 
Q 26.375 6.390625 33.015625 6.390625 
Q 39.65625 6.390625 43.53125 10.953125 
Q 47.40625 15.53125 47.40625 23.390625 
Q 47.40625 31.296875 43.53125 35.828125 
Q 39.65625 40.375 33.015625 40.375 
z
M 52.59375 71.296875 
L 52.59375 62.3125 
Q 48.875 64.0625 45.09375 64.984375 
Q 41.3125 65.921875 37.59375 65.921875 
Q 27.828125 65.921875 22.671875 59.328125 
Q 17.53125 52.734375 16.796875 39.40625 
Q 19.671875 43.65625 24.015625 45.921875 
Q 28.375 48.1875 33.59375 48.1875 
Q 44.578125 48.1875 50.953125 41.515625 
Q 57.328125 34.859375 57.328125 23.390625 
Q 57.328125 12.15625 50.6875 5.359375 
Q 44.046875 -1.421875 33.015625 -1.421875 
Q 20.359375 -1.421875 13.671875 8.265625 
Q 6.984375 17.96875 6.984375 36.375 
Q 6.984375 53.65625 15.1875 63.9375 
Q 23.390625 74.21875 37.203125 74.21875 
Q 40.921875 74.21875 44.703125 73.484375 
Q 48.484375 72.75 52.59375 71.296875 
z
" id="DejaVuSans-54"/>
      </defs>
      <use xlink:href="#DejaVuSans-115"/>
      <use x="52.099609" xlink:href="#DejaVuSans-61"/>
      <use x="135.888672" xlink:href="#DejaVuSans-54"/>
      <use x="199.511719" xlink:href="#DejaVuSans-48"/>
     </g>
    </g>
    <g id="line2d_21">
     <path d="M 707.923437 126.252813 
L 727.923437 126.252813 
" style="fill:none;stroke:#bfbf00;stroke-linecap:square;stroke-width:1.5;"/>
    </g>
    <g id="line2d_22"/>
    <g id="text_15">
     <!-- s=40 -->
     <g transform="translate(735.923437 129.752813)scale(0.1 -0.1)">
      <use xlink:href="#DejaVuSans-115"/>
      <use x="52.099609" xlink:href="#DejaVuSans-61"/>
      <use x="135.888672" xlink:href="#DejaVuSans-52"/>
      <use x="199.511719" xlink:href="#DejaVuSans-48"/>
     </g>
    </g>
    <g id="line2d_23">
     <path d="M 707.923437 140.930938 
L 727.923437 140.930938 
" style="fill:none;stroke:#ff0000;stroke-linecap:square;stroke-width:1.5;"/>
    </g>
    <g id="line2d_24"/>
    <g id="text_16">
     <!-- s=20 -->
     <g transform="translate(735.923437 144.430938)scale(0.1 -0.1)">
      <use xlink:href="#DejaVuSans-115"/>
      <use x="52.099609" xlink:href="#DejaVuSans-61"/>
      <use x="135.888672" xlink:href="#DejaVuSans-50"/>
      <use x="199.511719" xlink:href="#DejaVuSans-48"/>
     </g>
    </g>
   </g>
  </g>
 </g>
 <defs>
  <clipPath id="p71ed9e442c">
   <rect height="443.52" width="669.6" x="108" y="69.12"/>
  </clipPath>
 </defs>
</svg>
