<?xml version="1.0" encoding="utf-8" standalone="no"?>
<!DOCTYPE svg PUBLIC "-//W3C//DTD SVG 1.1//EN"
  "http://www.w3.org/Graphics/SVG/1.1/DTD/svg11.dtd">
<!-- Created with matplotlib (https://matplotlib.org/) -->
<svg height="576pt" version="1.1" viewBox="0 0 864 576" width="864pt" xmlns="http://www.w3.org/2000/svg" xmlns:xlink="http://www.w3.org/1999/xlink">
 <metadata>
  <rdf:RDF xmlns:cc="http://creativecommons.org/ns#" xmlns:dc="http://purl.org/dc/elements/1.1/" xmlns:rdf="http://www.w3.org/1999/02/22-rdf-syntax-ns#">
   <cc:Work>
    <dc:type rdf:resource="http://purl.org/dc/dcmitype/StillImage"/>
    <dc:date>2023-04-23T10:35:36.198522</dc:date>
    <dc:format>image/svg+xml</dc:format>
    <dc:creator>
     <cc:Agent>
      <dc:title>Matplotlib v3.3.4, https://matplotlib.org/</dc:title>
     </cc:Agent>
    </dc:creator>
   </cc:Work>
  </rdf:RDF>
 </metadata>
 <defs>
  <style type="text/css">*{stroke-linecap:butt;stroke-linejoin:round;}</style>
 </defs>
 <g id="figure_1">
  <g id="patch_1">
   <path d="M 0 576 
L 864 576 
L 864 0 
L 0 0 
z
" style="fill:#ffffff;"/>
  </g>
  <g id="axes_1">
   <g id="patch_2">
    <path d="M 108 512.64 
L 777.6 512.64 
L 777.6 69.12 
L 108 69.12 
z
" style="fill:#ffffff;"/>
   </g>
   <g id="PathCollection_1">
    <defs>
     <path d="M 0 3 
C 0.795609 3 1.55874 2.683901 2.12132 2.12132 
C 2.683901 1.55874 3 0.795609 3 0 
C 3 -0.795609 2.683901 -1.55874 2.12132 -2.12132 
C 1.55874 -2.683901 0.795609 -3 0 -3 
C -0.795609 -3 -1.55874 -2.683901 -2.12132 -2.12132 
C -2.683901 -1.55874 -3 -0.795609 -3 0 
C -3 0.795609 -2.683901 1.55874 -2.12132 2.12132 
C -1.55874 2.683901 -0.795609 3 0 3 
z
" id="m7a0ecb4db9" style="stroke:#800080;"/>
    </defs>
    <g clip-path="url(#p893a08ee21)">
     <use style="fill:#800080;stroke:#800080;" x="121.392" xlink:href="#m7a0ecb4db9" y="69.12"/>
     <use style="fill:#800080;stroke:#800080;" x="134.784" xlink:href="#m7a0ecb4db9" y="81.814726"/>
     <use style="fill:#800080;stroke:#800080;" x="148.176" xlink:href="#m7a0ecb4db9" y="100.130279"/>
     <use style="fill:#800080;stroke:#800080;" x="161.568" xlink:href="#m7a0ecb4db9" y="114.6995"/>
     <use style="fill:#800080;stroke:#800080;" x="174.96" xlink:href="#m7a0ecb4db9" y="139.086635"/>
     <use style="fill:#800080;stroke:#800080;" x="188.352" xlink:href="#m7a0ecb4db9" y="170.127954"/>
     <use style="fill:#800080;stroke:#800080;" x="201.744" xlink:href="#m7a0ecb4db9" y="208.629782"/>
     <use style="fill:#800080;stroke:#800080;" x="215.136" xlink:href="#m7a0ecb4db9" y="257.285999"/>
     <use style="fill:#800080;stroke:#800080;" x="228.528" xlink:href="#m7a0ecb4db9" y="303.384636"/>
     <use style="fill:#800080;stroke:#800080;" x="241.92" xlink:href="#m7a0ecb4db9" y="370.125597"/>
     <use style="fill:#800080;stroke:#800080;" x="255.312" xlink:href="#m7a0ecb4db9" y="415.134661"/>
     <use style="fill:#800080;stroke:#800080;" x="268.704" xlink:href="#m7a0ecb4db9" y="434.637688"/>
     <use style="fill:#800080;stroke:#800080;" x="282.096" xlink:href="#m7a0ecb4db9" y="444.418586"/>
     <use style="fill:#800080;stroke:#800080;" x="295.488" xlink:href="#m7a0ecb4db9" y="443.600286"/>
     <use style="fill:#800080;stroke:#800080;" x="308.88" xlink:href="#m7a0ecb4db9" y="456.03653"/>
     <use style="fill:#800080;stroke:#800080;" x="322.272" xlink:href="#m7a0ecb4db9" y="453.897061"/>
     <use style="fill:#800080;stroke:#800080;" x="335.664" xlink:href="#m7a0ecb4db9" y="456.613511"/>
     <use style="fill:#800080;stroke:#800080;" x="349.056" xlink:href="#m7a0ecb4db9" y="459.652127"/>
     <use style="fill:#800080;stroke:#800080;" x="362.448" xlink:href="#m7a0ecb4db9" y="464.053163"/>
     <use style="fill:#800080;stroke:#800080;" x="375.84" xlink:href="#m7a0ecb4db9" y="463.478571"/>
     <use style="fill:#800080;stroke:#800080;" x="389.232" xlink:href="#m7a0ecb4db9" y="470.61542"/>
     <use style="fill:#800080;stroke:#800080;" x="402.624" xlink:href="#m7a0ecb4db9" y="468.510074"/>
     <use style="fill:#800080;stroke:#800080;" x="416.016" xlink:href="#m7a0ecb4db9" y="472.129283"/>
     <use style="fill:#800080;stroke:#800080;" x="429.408" xlink:href="#m7a0ecb4db9" y="473.218652"/>
     <use style="fill:#800080;stroke:#800080;" x="442.8" xlink:href="#m7a0ecb4db9" y="478.634673"/>
     <use style="fill:#800080;stroke:#800080;" x="456.192" xlink:href="#m7a0ecb4db9" y="478.203173"/>
     <use style="fill:#800080;stroke:#800080;" x="469.584" xlink:href="#m7a0ecb4db9" y="484.14034"/>
     <use style="fill:#800080;stroke:#800080;" x="482.976" xlink:href="#m7a0ecb4db9" y="482.846084"/>
     <use style="fill:#800080;stroke:#800080;" x="496.368" xlink:href="#m7a0ecb4db9" y="481.957013"/>
     <use style="fill:#800080;stroke:#800080;" x="509.76" xlink:href="#m7a0ecb4db9" y="485.088288"/>
     <use style="fill:#800080;stroke:#800080;" x="523.152" xlink:href="#m7a0ecb4db9" y="486.327619"/>
     <use style="fill:#800080;stroke:#800080;" x="536.544" xlink:href="#m7a0ecb4db9" y="488.499242"/>
     <use style="fill:#800080;stroke:#800080;" x="549.936" xlink:href="#m7a0ecb4db9" y="491.956023"/>
     <use style="fill:#800080;stroke:#800080;" x="563.328" xlink:href="#m7a0ecb4db9" y="493.408219"/>
     <use style="fill:#800080;stroke:#800080;" x="576.72" xlink:href="#m7a0ecb4db9" y="493.912948"/>
     <use style="fill:#800080;stroke:#800080;" x="590.112" xlink:href="#m7a0ecb4db9" y="493.447169"/>
     <use style="fill:#800080;stroke:#800080;" x="603.504" xlink:href="#m7a0ecb4db9" y="497.347243"/>
     <use style="fill:#800080;stroke:#800080;" x="616.896" xlink:href="#m7a0ecb4db9" y="495.966811"/>
     <use style="fill:#800080;stroke:#800080;" x="630.288" xlink:href="#m7a0ecb4db9" y="500.858828"/>
     <use style="fill:#800080;stroke:#800080;" x="643.68" xlink:href="#m7a0ecb4db9" y="500.35883"/>
     <use style="fill:#800080;stroke:#800080;" x="657.072" xlink:href="#m7a0ecb4db9" y="501.506723"/>
     <use style="fill:#800080;stroke:#800080;" x="670.464" xlink:href="#m7a0ecb4db9" y="500.793046"/>
     <use style="fill:#800080;stroke:#800080;" x="683.856" xlink:href="#m7a0ecb4db9" y="505.683896"/>
     <use style="fill:#800080;stroke:#800080;" x="697.248" xlink:href="#m7a0ecb4db9" y="504.650022"/>
     <use style="fill:#800080;stroke:#800080;" x="710.64" xlink:href="#m7a0ecb4db9" y="504.891395"/>
     <use style="fill:#800080;stroke:#800080;" x="724.032" xlink:href="#m7a0ecb4db9" y="505.50402"/>
     <use style="fill:#800080;stroke:#800080;" x="737.424" xlink:href="#m7a0ecb4db9" y="505.952609"/>
     <use style="fill:#800080;stroke:#800080;" x="750.816" xlink:href="#m7a0ecb4db9" y="507.503609"/>
     <use style="fill:#800080;stroke:#800080;" x="764.208" xlink:href="#m7a0ecb4db9" y="510.811997"/>
     <use style="fill:#800080;stroke:#800080;" x="777.6" xlink:href="#m7a0ecb4db9" y="512.64"/>
    </g>
   </g>
   <g id="PathCollection_2">
    <defs>
     <path d="M 0 3 
C 0.795609 3 1.55874 2.683901 2.12132 2.12132 
C 2.683901 1.55874 3 0.795609 3 0 
C 3 -0.795609 2.683901 -1.55874 2.12132 -2.12132 
C 1.55874 -2.683901 0.795609 -3 0 -3 
C -0.795609 -3 -1.55874 -2.683901 -2.12132 -2.12132 
C -2.683901 -1.55874 -3 -0.795609 -3 0 
C -3 0.795609 -2.683901 1.55874 -2.12132 2.12132 
C -1.55874 2.683901 -0.795609 3 0 3 
z
" id="m5a18c77728" style="stroke:#0000ff;"/>
    </defs>
    <g clip-path="url(#p893a08ee21)">
     <use style="fill:#0000ff;stroke:#0000ff;" x="121.392" xlink:href="#m5a18c77728" y="69.12"/>
     <use style="fill:#0000ff;stroke:#0000ff;" x="134.784" xlink:href="#m5a18c77728" y="84.826068"/>
     <use style="fill:#0000ff;stroke:#0000ff;" x="148.176" xlink:href="#m5a18c77728" y="107.604102"/>
     <use style="fill:#0000ff;stroke:#0000ff;" x="161.568" xlink:href="#m5a18c77728" y="127.805764"/>
     <use style="fill:#0000ff;stroke:#0000ff;" x="174.96" xlink:href="#m5a18c77728" y="160.559485"/>
     <use style="fill:#0000ff;stroke:#0000ff;" x="188.352" xlink:href="#m5a18c77728" y="205.996673"/>
     <use style="fill:#0000ff;stroke:#0000ff;" x="201.744" xlink:href="#m5a18c77728" y="252.954437"/>
     <use style="fill:#0000ff;stroke:#0000ff;" x="215.136" xlink:href="#m5a18c77728" y="329.196292"/>
     <use style="fill:#0000ff;stroke:#0000ff;" x="228.528" xlink:href="#m5a18c77728" y="387.546864"/>
     <use style="fill:#0000ff;stroke:#0000ff;" x="241.92" xlink:href="#m5a18c77728" y="429.26934"/>
     <use style="fill:#0000ff;stroke:#0000ff;" x="255.312" xlink:href="#m5a18c77728" y="446.103897"/>
     <use style="fill:#0000ff;stroke:#0000ff;" x="268.704" xlink:href="#m5a18c77728" y="450.02626"/>
     <use style="fill:#0000ff;stroke:#0000ff;" x="282.096" xlink:href="#m5a18c77728" y="455.379108"/>
     <use style="fill:#0000ff;stroke:#0000ff;" x="295.488" xlink:href="#m5a18c77728" y="458.150064"/>
     <use style="fill:#0000ff;stroke:#0000ff;" x="308.88" xlink:href="#m5a18c77728" y="460.294074"/>
     <use style="fill:#0000ff;stroke:#0000ff;" x="322.272" xlink:href="#m5a18c77728" y="465.837417"/>
     <use style="fill:#0000ff;stroke:#0000ff;" x="335.664" xlink:href="#m5a18c77728" y="467.382452"/>
     <use style="fill:#0000ff;stroke:#0000ff;" x="349.056" xlink:href="#m5a18c77728" y="463.111143"/>
     <use style="fill:#0000ff;stroke:#0000ff;" x="362.448" xlink:href="#m5a18c77728" y="478.157775"/>
     <use style="fill:#0000ff;stroke:#0000ff;" x="375.84" xlink:href="#m5a18c77728" y="472.392562"/>
     <use style="fill:#0000ff;stroke:#0000ff;" x="389.232" xlink:href="#m5a18c77728" y="472.770838"/>
     <use style="fill:#0000ff;stroke:#0000ff;" x="402.624" xlink:href="#m5a18c77728" y="475.263961"/>
     <use style="fill:#0000ff;stroke:#0000ff;" x="416.016" xlink:href="#m5a18c77728" y="476.20794"/>
     <use style="fill:#0000ff;stroke:#0000ff;" x="429.408" xlink:href="#m5a18c77728" y="482.104523"/>
     <use style="fill:#0000ff;stroke:#0000ff;" x="442.8" xlink:href="#m5a18c77728" y="487.625284"/>
     <use style="fill:#0000ff;stroke:#0000ff;" x="456.192" xlink:href="#m5a18c77728" y="486.61165"/>
     <use style="fill:#0000ff;stroke:#0000ff;" x="469.584" xlink:href="#m5a18c77728" y="492.455224"/>
     <use style="fill:#0000ff;stroke:#0000ff;" x="482.976" xlink:href="#m5a18c77728" y="491.52643"/>
     <use style="fill:#0000ff;stroke:#0000ff;" x="496.368" xlink:href="#m5a18c77728" y="491.758401"/>
     <use style="fill:#0000ff;stroke:#0000ff;" x="509.76" xlink:href="#m5a18c77728" y="492.640412"/>
     <use style="fill:#0000ff;stroke:#0000ff;" x="523.152" xlink:href="#m5a18c77728" y="498.110394"/>
     <use style="fill:#0000ff;stroke:#0000ff;" x="536.544" xlink:href="#m5a18c77728" y="498.651191"/>
     <use style="fill:#0000ff;stroke:#0000ff;" x="549.936" xlink:href="#m5a18c77728" y="498.023111"/>
     <use style="fill:#0000ff;stroke:#0000ff;" x="563.328" xlink:href="#m5a18c77728" y="496.427167"/>
     <use style="fill:#0000ff;stroke:#0000ff;" x="576.72" xlink:href="#m5a18c77728" y="505.58439"/>
     <use style="fill:#0000ff;stroke:#0000ff;" x="590.112" xlink:href="#m5a18c77728" y="497.576668"/>
     <use style="fill:#0000ff;stroke:#0000ff;" x="603.504" xlink:href="#m5a18c77728" y="501.134946"/>
     <use style="fill:#0000ff;stroke:#0000ff;" x="616.896" xlink:href="#m5a18c77728" y="504.056445"/>
     <use style="fill:#0000ff;stroke:#0000ff;" x="630.288" xlink:href="#m5a18c77728" y="503.624389"/>
     <use style="fill:#0000ff;stroke:#0000ff;" x="643.68" xlink:href="#m5a18c77728" y="503.286836"/>
     <use style="fill:#0000ff;stroke:#0000ff;" x="657.072" xlink:href="#m5a18c77728" y="507.340486"/>
     <use style="fill:#0000ff;stroke:#0000ff;" x="670.464" xlink:href="#m5a18c77728" y="505.031771"/>
     <use style="fill:#0000ff;stroke:#0000ff;" x="683.856" xlink:href="#m5a18c77728" y="505.1579"/>
     <use style="fill:#0000ff;stroke:#0000ff;" x="697.248" xlink:href="#m5a18c77728" y="510.36659"/>
     <use style="fill:#0000ff;stroke:#0000ff;" x="710.64" xlink:href="#m5a18c77728" y="510.443047"/>
     <use style="fill:#0000ff;stroke:#0000ff;" x="724.032" xlink:href="#m5a18c77728" y="508.617511"/>
     <use style="fill:#0000ff;stroke:#0000ff;" x="737.424" xlink:href="#m5a18c77728" y="512.64"/>
     <use style="fill:#0000ff;stroke:#0000ff;" x="750.816" xlink:href="#m5a18c77728" y="510.38027"/>
     <use style="fill:#0000ff;stroke:#0000ff;" x="764.208" xlink:href="#m5a18c77728" y="510.665761"/>
     <use style="fill:#0000ff;stroke:#0000ff;" x="777.6" xlink:href="#m5a18c77728" y="509.373765"/>
    </g>
   </g>
   <g id="PathCollection_3">
    <defs>
     <path d="M 0 3 
C 0.795609 3 1.55874 2.683901 2.12132 2.12132 
C 2.683901 1.55874 3 0.795609 3 0 
C 3 -0.795609 2.683901 -1.55874 2.12132 -2.12132 
C 1.55874 -2.683901 0.795609 -3 0 -3 
C -0.795609 -3 -1.55874 -2.683901 -2.12132 -2.12132 
C -2.683901 -1.55874 -3 -0.795609 -3 0 
C -3 0.795609 -2.683901 1.55874 -2.12132 2.12132 
C -1.55874 2.683901 -0.795609 3 0 3 
z
" id="m48aaf80a4e" style="stroke:#008000;"/>
    </defs>
    <g clip-path="url(#p893a08ee21)">
     <use style="fill:#008000;stroke:#008000;" x="121.392" xlink:href="#m48aaf80a4e" y="69.12"/>
     <use style="fill:#008000;stroke:#008000;" x="134.784" xlink:href="#m48aaf80a4e" y="75.54378"/>
     <use style="fill:#008000;stroke:#008000;" x="148.176" xlink:href="#m48aaf80a4e" y="88.719003"/>
     <use style="fill:#008000;stroke:#008000;" x="161.568" xlink:href="#m48aaf80a4e" y="97.827292"/>
     <use style="fill:#008000;stroke:#008000;" x="174.96" xlink:href="#m48aaf80a4e" y="109.91586"/>
     <use style="fill:#008000;stroke:#008000;" x="188.352" xlink:href="#m48aaf80a4e" y="121.565197"/>
     <use style="fill:#008000;stroke:#008000;" x="201.744" xlink:href="#m48aaf80a4e" y="140.689413"/>
     <use style="fill:#008000;stroke:#008000;" x="215.136" xlink:href="#m48aaf80a4e" y="158.970723"/>
     <use style="fill:#008000;stroke:#008000;" x="228.528" xlink:href="#m48aaf80a4e" y="179.292544"/>
     <use style="fill:#008000;stroke:#008000;" x="241.92" xlink:href="#m48aaf80a4e" y="205.58454"/>
     <use style="fill:#008000;stroke:#008000;" x="255.312" xlink:href="#m48aaf80a4e" y="235.623519"/>
     <use style="fill:#008000;stroke:#008000;" x="268.704" xlink:href="#m48aaf80a4e" y="262.35358"/>
     <use style="fill:#008000;stroke:#008000;" x="282.096" xlink:href="#m48aaf80a4e" y="308.80516"/>
     <use style="fill:#008000;stroke:#008000;" x="295.488" xlink:href="#m48aaf80a4e" y="359.480105"/>
     <use style="fill:#008000;stroke:#008000;" x="308.88" xlink:href="#m48aaf80a4e" y="401.220469"/>
     <use style="fill:#008000;stroke:#008000;" x="322.272" xlink:href="#m48aaf80a4e" y="430.852464"/>
     <use style="fill:#008000;stroke:#008000;" x="335.664" xlink:href="#m48aaf80a4e" y="456.9438"/>
     <use style="fill:#008000;stroke:#008000;" x="349.056" xlink:href="#m48aaf80a4e" y="463.103865"/>
     <use style="fill:#008000;stroke:#008000;" x="362.448" xlink:href="#m48aaf80a4e" y="468.901034"/>
     <use style="fill:#008000;stroke:#008000;" x="375.84" xlink:href="#m48aaf80a4e" y="472.489933"/>
     <use style="fill:#008000;stroke:#008000;" x="389.232" xlink:href="#m48aaf80a4e" y="476.105035"/>
     <use style="fill:#008000;stroke:#008000;" x="402.624" xlink:href="#m48aaf80a4e" y="471.144062"/>
     <use style="fill:#008000;stroke:#008000;" x="416.016" xlink:href="#m48aaf80a4e" y="473.879749"/>
     <use style="fill:#008000;stroke:#008000;" x="429.408" xlink:href="#m48aaf80a4e" y="478.287495"/>
     <use style="fill:#008000;stroke:#008000;" x="442.8" xlink:href="#m48aaf80a4e" y="482.423601"/>
     <use style="fill:#008000;stroke:#008000;" x="456.192" xlink:href="#m48aaf80a4e" y="486.969951"/>
     <use style="fill:#008000;stroke:#008000;" x="469.584" xlink:href="#m48aaf80a4e" y="483.957364"/>
     <use style="fill:#008000;stroke:#008000;" x="482.976" xlink:href="#m48aaf80a4e" y="487.449712"/>
     <use style="fill:#008000;stroke:#008000;" x="496.368" xlink:href="#m48aaf80a4e" y="485.732305"/>
     <use style="fill:#008000;stroke:#008000;" x="509.76" xlink:href="#m48aaf80a4e" y="489.774262"/>
     <use style="fill:#008000;stroke:#008000;" x="523.152" xlink:href="#m48aaf80a4e" y="488.563889"/>
     <use style="fill:#008000;stroke:#008000;" x="536.544" xlink:href="#m48aaf80a4e" y="492.355043"/>
     <use style="fill:#008000;stroke:#008000;" x="549.936" xlink:href="#m48aaf80a4e" y="494.40229"/>
     <use style="fill:#008000;stroke:#008000;" x="563.328" xlink:href="#m48aaf80a4e" y="495.632285"/>
     <use style="fill:#008000;stroke:#008000;" x="576.72" xlink:href="#m48aaf80a4e" y="494.103234"/>
     <use style="fill:#008000;stroke:#008000;" x="590.112" xlink:href="#m48aaf80a4e" y="498.733034"/>
     <use style="fill:#008000;stroke:#008000;" x="603.504" xlink:href="#m48aaf80a4e" y="497.166143"/>
     <use style="fill:#008000;stroke:#008000;" x="616.896" xlink:href="#m48aaf80a4e" y="499.913706"/>
     <use style="fill:#008000;stroke:#008000;" x="630.288" xlink:href="#m48aaf80a4e" y="499.720698"/>
     <use style="fill:#008000;stroke:#008000;" x="643.68" xlink:href="#m48aaf80a4e" y="500.825916"/>
     <use style="fill:#008000;stroke:#008000;" x="657.072" xlink:href="#m48aaf80a4e" y="502.752205"/>
     <use style="fill:#008000;stroke:#008000;" x="670.464" xlink:href="#m48aaf80a4e" y="504.28316"/>
     <use style="fill:#008000;stroke:#008000;" x="683.856" xlink:href="#m48aaf80a4e" y="502.877137"/>
     <use style="fill:#008000;stroke:#008000;" x="697.248" xlink:href="#m48aaf80a4e" y="508.919255"/>
     <use style="fill:#008000;stroke:#008000;" x="710.64" xlink:href="#m48aaf80a4e" y="511.772069"/>
     <use style="fill:#008000;stroke:#008000;" x="724.032" xlink:href="#m48aaf80a4e" y="504.517495"/>
     <use style="fill:#008000;stroke:#008000;" x="737.424" xlink:href="#m48aaf80a4e" y="508.661799"/>
     <use style="fill:#008000;stroke:#008000;" x="750.816" xlink:href="#m48aaf80a4e" y="504.757387"/>
     <use style="fill:#008000;stroke:#008000;" x="764.208" xlink:href="#m48aaf80a4e" y="510.294863"/>
     <use style="fill:#008000;stroke:#008000;" x="777.6" xlink:href="#m48aaf80a4e" y="512.64"/>
    </g>
   </g>
   <g id="PathCollection_4">
    <defs>
     <path d="M 0 3 
C 0.795609 3 1.55874 2.683901 2.12132 2.12132 
C 2.683901 1.55874 3 0.795609 3 0 
C 3 -0.795609 2.683901 -1.55874 2.12132 -2.12132 
C 1.55874 -2.683901 0.795609 -3 0 -3 
C -0.795609 -3 -1.55874 -2.683901 -2.12132 -2.12132 
C -2.683901 -1.55874 -3 -0.795609 -3 0 
C -3 0.795609 -2.683901 1.55874 -2.12132 2.12132 
C -1.55874 2.683901 -0.795609 3 0 3 
z
" id="m0619accc7a" style="stroke:#bfbf00;"/>
    </defs>
    <g clip-path="url(#p893a08ee21)">
     <use style="fill:#bfbf00;stroke:#bfbf00;" x="121.392" xlink:href="#m0619accc7a" y="69.12"/>
     <use style="fill:#bfbf00;stroke:#bfbf00;" x="134.784" xlink:href="#m0619accc7a" y="76.275146"/>
     <use style="fill:#bfbf00;stroke:#bfbf00;" x="148.176" xlink:href="#m0619accc7a" y="83.923374"/>
     <use style="fill:#bfbf00;stroke:#bfbf00;" x="161.568" xlink:href="#m0619accc7a" y="91.770088"/>
     <use style="fill:#bfbf00;stroke:#bfbf00;" x="174.96" xlink:href="#m0619accc7a" y="107.400562"/>
     <use style="fill:#bfbf00;stroke:#bfbf00;" x="188.352" xlink:href="#m0619accc7a" y="121.896429"/>
     <use style="fill:#bfbf00;stroke:#bfbf00;" x="201.744" xlink:href="#m0619accc7a" y="133.399502"/>
     <use style="fill:#bfbf00;stroke:#bfbf00;" x="215.136" xlink:href="#m0619accc7a" y="146.355921"/>
     <use style="fill:#bfbf00;stroke:#bfbf00;" x="228.528" xlink:href="#m0619accc7a" y="168.19205"/>
     <use style="fill:#bfbf00;stroke:#bfbf00;" x="241.92" xlink:href="#m0619accc7a" y="194.296383"/>
     <use style="fill:#bfbf00;stroke:#bfbf00;" x="255.312" xlink:href="#m0619accc7a" y="214.496916"/>
     <use style="fill:#bfbf00;stroke:#bfbf00;" x="268.704" xlink:href="#m0619accc7a" y="264.336093"/>
     <use style="fill:#bfbf00;stroke:#bfbf00;" x="282.096" xlink:href="#m0619accc7a" y="299.915975"/>
     <use style="fill:#bfbf00;stroke:#bfbf00;" x="295.488" xlink:href="#m0619accc7a" y="338.095499"/>
     <use style="fill:#bfbf00;stroke:#bfbf00;" x="308.88" xlink:href="#m0619accc7a" y="375.456479"/>
     <use style="fill:#bfbf00;stroke:#bfbf00;" x="322.272" xlink:href="#m0619accc7a" y="398.949711"/>
     <use style="fill:#bfbf00;stroke:#bfbf00;" x="335.664" xlink:href="#m0619accc7a" y="421.088114"/>
     <use style="fill:#bfbf00;stroke:#bfbf00;" x="349.056" xlink:href="#m0619accc7a" y="432.928013"/>
     <use style="fill:#bfbf00;stroke:#bfbf00;" x="362.448" xlink:href="#m0619accc7a" y="449.458013"/>
     <use style="fill:#bfbf00;stroke:#bfbf00;" x="375.84" xlink:href="#m0619accc7a" y="453.71726"/>
     <use style="fill:#bfbf00;stroke:#bfbf00;" x="389.232" xlink:href="#m0619accc7a" y="455.709107"/>
     <use style="fill:#bfbf00;stroke:#bfbf00;" x="402.624" xlink:href="#m0619accc7a" y="457.812974"/>
     <use style="fill:#bfbf00;stroke:#bfbf00;" x="416.016" xlink:href="#m0619accc7a" y="461.996852"/>
     <use style="fill:#bfbf00;stroke:#bfbf00;" x="429.408" xlink:href="#m0619accc7a" y="472.589284"/>
     <use style="fill:#bfbf00;stroke:#bfbf00;" x="442.8" xlink:href="#m0619accc7a" y="467.347904"/>
     <use style="fill:#bfbf00;stroke:#bfbf00;" x="456.192" xlink:href="#m0619accc7a" y="471.48493"/>
     <use style="fill:#bfbf00;stroke:#bfbf00;" x="469.584" xlink:href="#m0619accc7a" y="478.596796"/>
     <use style="fill:#bfbf00;stroke:#bfbf00;" x="482.976" xlink:href="#m0619accc7a" y="473.733307"/>
     <use style="fill:#bfbf00;stroke:#bfbf00;" x="496.368" xlink:href="#m0619accc7a" y="476.410857"/>
     <use style="fill:#bfbf00;stroke:#bfbf00;" x="509.76" xlink:href="#m0619accc7a" y="479.828144"/>
     <use style="fill:#bfbf00;stroke:#bfbf00;" x="523.152" xlink:href="#m0619accc7a" y="481.32859"/>
     <use style="fill:#bfbf00;stroke:#bfbf00;" x="536.544" xlink:href="#m0619accc7a" y="477.910654"/>
     <use style="fill:#bfbf00;stroke:#bfbf00;" x="549.936" xlink:href="#m0619accc7a" y="473.376656"/>
     <use style="fill:#bfbf00;stroke:#bfbf00;" x="563.328" xlink:href="#m0619accc7a" y="481.363008"/>
     <use style="fill:#bfbf00;stroke:#bfbf00;" x="576.72" xlink:href="#m0619accc7a" y="479.529327"/>
     <use style="fill:#bfbf00;stroke:#bfbf00;" x="590.112" xlink:href="#m0619accc7a" y="487.44927"/>
     <use style="fill:#bfbf00;stroke:#bfbf00;" x="603.504" xlink:href="#m0619accc7a" y="485.700736"/>
     <use style="fill:#bfbf00;stroke:#bfbf00;" x="616.896" xlink:href="#m0619accc7a" y="495.011988"/>
     <use style="fill:#bfbf00;stroke:#bfbf00;" x="630.288" xlink:href="#m0619accc7a" y="492.102355"/>
     <use style="fill:#bfbf00;stroke:#bfbf00;" x="643.68" xlink:href="#m0619accc7a" y="490.845681"/>
     <use style="fill:#bfbf00;stroke:#bfbf00;" x="657.072" xlink:href="#m0619accc7a" y="493.479588"/>
     <use style="fill:#bfbf00;stroke:#bfbf00;" x="670.464" xlink:href="#m0619accc7a" y="498.819045"/>
     <use style="fill:#bfbf00;stroke:#bfbf00;" x="683.856" xlink:href="#m0619accc7a" y="499.293256"/>
     <use style="fill:#bfbf00;stroke:#bfbf00;" x="697.248" xlink:href="#m0619accc7a" y="499.650156"/>
     <use style="fill:#bfbf00;stroke:#bfbf00;" x="710.64" xlink:href="#m0619accc7a" y="502.476227"/>
     <use style="fill:#bfbf00;stroke:#bfbf00;" x="724.032" xlink:href="#m0619accc7a" y="495.591076"/>
     <use style="fill:#bfbf00;stroke:#bfbf00;" x="737.424" xlink:href="#m0619accc7a" y="507.201261"/>
     <use style="fill:#bfbf00;stroke:#bfbf00;" x="750.816" xlink:href="#m0619accc7a" y="500.237209"/>
     <use style="fill:#bfbf00;stroke:#bfbf00;" x="764.208" xlink:href="#m0619accc7a" y="502.765284"/>
     <use style="fill:#bfbf00;stroke:#bfbf00;" x="777.6" xlink:href="#m0619accc7a" y="512.64"/>
    </g>
   </g>
   <g id="PathCollection_5">
    <defs>
     <path d="M 0 3 
C 0.795609 3 1.55874 2.683901 2.12132 2.12132 
C 2.683901 1.55874 3 0.795609 3 0 
C 3 -0.795609 2.683901 -1.55874 2.12132 -2.12132 
C 1.55874 -2.683901 0.795609 -3 0 -3 
C -0.795609 -3 -1.55874 -2.683901 -2.12132 -2.12132 
C -2.683901 -1.55874 -3 -0.795609 -3 0 
C -3 0.795609 -2.683901 1.55874 -2.12132 2.12132 
C -1.55874 2.683901 -0.795609 3 0 3 
z
" id="m6d9157c814" style="stroke:#ff0000;"/>
    </defs>
    <g clip-path="url(#p893a08ee21)">
     <use style="fill:#ff0000;stroke:#ff0000;" x="121.392" xlink:href="#m6d9157c814" y="69.12"/>
     <use style="fill:#ff0000;stroke:#ff0000;" x="134.784" xlink:href="#m6d9157c814" y="103.343328"/>
     <use style="fill:#ff0000;stroke:#ff0000;" x="148.176" xlink:href="#m6d9157c814" y="115.185235"/>
     <use style="fill:#ff0000;stroke:#ff0000;" x="161.568" xlink:href="#m6d9157c814" y="109.60169"/>
     <use style="fill:#ff0000;stroke:#ff0000;" x="174.96" xlink:href="#m6d9157c814" y="125.641298"/>
     <use style="fill:#ff0000;stroke:#ff0000;" x="188.352" xlink:href="#m6d9157c814" y="122.20719"/>
     <use style="fill:#ff0000;stroke:#ff0000;" x="201.744" xlink:href="#m6d9157c814" y="132.286036"/>
     <use style="fill:#ff0000;stroke:#ff0000;" x="215.136" xlink:href="#m6d9157c814" y="136.815033"/>
     <use style="fill:#ff0000;stroke:#ff0000;" x="228.528" xlink:href="#m6d9157c814" y="150.054029"/>
     <use style="fill:#ff0000;stroke:#ff0000;" x="241.92" xlink:href="#m6d9157c814" y="151.602048"/>
     <use style="fill:#ff0000;stroke:#ff0000;" x="255.312" xlink:href="#m6d9157c814" y="160.902603"/>
     <use style="fill:#ff0000;stroke:#ff0000;" x="268.704" xlink:href="#m6d9157c814" y="171.070055"/>
     <use style="fill:#ff0000;stroke:#ff0000;" x="282.096" xlink:href="#m6d9157c814" y="178.747274"/>
     <use style="fill:#ff0000;stroke:#ff0000;" x="295.488" xlink:href="#m6d9157c814" y="195.836872"/>
     <use style="fill:#ff0000;stroke:#ff0000;" x="308.88" xlink:href="#m6d9157c814" y="212.800546"/>
     <use style="fill:#ff0000;stroke:#ff0000;" x="322.272" xlink:href="#m6d9157c814" y="216.696132"/>
     <use style="fill:#ff0000;stroke:#ff0000;" x="335.664" xlink:href="#m6d9157c814" y="229.970954"/>
     <use style="fill:#ff0000;stroke:#ff0000;" x="349.056" xlink:href="#m6d9157c814" y="247.29225"/>
     <use style="fill:#ff0000;stroke:#ff0000;" x="362.448" xlink:href="#m6d9157c814" y="266.501551"/>
     <use style="fill:#ff0000;stroke:#ff0000;" x="375.84" xlink:href="#m6d9157c814" y="282.65524"/>
     <use style="fill:#ff0000;stroke:#ff0000;" x="389.232" xlink:href="#m6d9157c814" y="305.936361"/>
     <use style="fill:#ff0000;stroke:#ff0000;" x="402.624" xlink:href="#m6d9157c814" y="326.100058"/>
     <use style="fill:#ff0000;stroke:#ff0000;" x="416.016" xlink:href="#m6d9157c814" y="363.621942"/>
     <use style="fill:#ff0000;stroke:#ff0000;" x="429.408" xlink:href="#m6d9157c814" y="366.585113"/>
     <use style="fill:#ff0000;stroke:#ff0000;" x="442.8" xlink:href="#m6d9157c814" y="397.51668"/>
     <use style="fill:#ff0000;stroke:#ff0000;" x="456.192" xlink:href="#m6d9157c814" y="416.815567"/>
     <use style="fill:#ff0000;stroke:#ff0000;" x="469.584" xlink:href="#m6d9157c814" y="438.139629"/>
     <use style="fill:#ff0000;stroke:#ff0000;" x="482.976" xlink:href="#m6d9157c814" y="446.716548"/>
     <use style="fill:#ff0000;stroke:#ff0000;" x="496.368" xlink:href="#m6d9157c814" y="451.36329"/>
     <use style="fill:#ff0000;stroke:#ff0000;" x="509.76" xlink:href="#m6d9157c814" y="470.408924"/>
     <use style="fill:#ff0000;stroke:#ff0000;" x="523.152" xlink:href="#m6d9157c814" y="470.703647"/>
     <use style="fill:#ff0000;stroke:#ff0000;" x="536.544" xlink:href="#m6d9157c814" y="467.579685"/>
     <use style="fill:#ff0000;stroke:#ff0000;" x="549.936" xlink:href="#m6d9157c814" y="493.840378"/>
     <use style="fill:#ff0000;stroke:#ff0000;" x="563.328" xlink:href="#m6d9157c814" y="474.358995"/>
     <use style="fill:#ff0000;stroke:#ff0000;" x="576.72" xlink:href="#m6d9157c814" y="489.025475"/>
     <use style="fill:#ff0000;stroke:#ff0000;" x="590.112" xlink:href="#m6d9157c814" y="490.848559"/>
     <use style="fill:#ff0000;stroke:#ff0000;" x="603.504" xlink:href="#m6d9157c814" y="492.462436"/>
     <use style="fill:#ff0000;stroke:#ff0000;" x="616.896" xlink:href="#m6d9157c814" y="491.300964"/>
     <use style="fill:#ff0000;stroke:#ff0000;" x="630.288" xlink:href="#m6d9157c814" y="498.443178"/>
     <use style="fill:#ff0000;stroke:#ff0000;" x="643.68" xlink:href="#m6d9157c814" y="497.393508"/>
     <use style="fill:#ff0000;stroke:#ff0000;" x="657.072" xlink:href="#m6d9157c814" y="498.200234"/>
     <use style="fill:#ff0000;stroke:#ff0000;" x="670.464" xlink:href="#m6d9157c814" y="504.776728"/>
     <use style="fill:#ff0000;stroke:#ff0000;" x="683.856" xlink:href="#m6d9157c814" y="512.64"/>
     <use style="fill:#ff0000;stroke:#ff0000;" x="697.248" xlink:href="#m6d9157c814" y="490.365844"/>
     <use style="fill:#ff0000;stroke:#ff0000;" x="710.64" xlink:href="#m6d9157c814" y="498.229201"/>
     <use style="fill:#ff0000;stroke:#ff0000;" x="724.032" xlink:href="#m6d9157c814" y="506.679791"/>
     <use style="fill:#ff0000;stroke:#ff0000;" x="737.424" xlink:href="#m6d9157c814" y="497.409248"/>
     <use style="fill:#ff0000;stroke:#ff0000;" x="750.816" xlink:href="#m6d9157c814" y="505.34068"/>
     <use style="fill:#ff0000;stroke:#ff0000;" x="764.208" xlink:href="#m6d9157c814" y="511.886268"/>
     <use style="fill:#ff0000;stroke:#ff0000;" x="777.6" xlink:href="#m6d9157c814" y="497.72197"/>
    </g>
   </g>
   <g id="matplotlib.axis_1">
    <g id="xtick_1">
     <g id="line2d_1">
      <defs>
       <path d="M 0 0 
L 0 3.5 
" id="mec3ca3906c" style="stroke:#000000;stroke-width:0.8;"/>
      </defs>
      <g>
       <use style="stroke:#000000;stroke-width:0.8;" x="108" xlink:href="#mec3ca3906c" y="512.64"/>
      </g>
     </g>
     <g id="text_1">
      <!-- 0 -->
      <g transform="translate(101.6375 534.836875)scale(0.2 -0.2)">
       <defs>
        <path d="M 31.78125 66.40625 
Q 24.171875 66.40625 20.328125 58.90625 
Q 16.5 51.421875 16.5 36.375 
Q 16.5 21.390625 20.328125 13.890625 
Q 24.171875 6.390625 31.78125 6.390625 
Q 39.453125 6.390625 43.28125 13.890625 
Q 47.125 21.390625 47.125 36.375 
Q 47.125 51.421875 43.28125 58.90625 
Q 39.453125 66.40625 31.78125 66.40625 
z
M 31.78125 74.21875 
Q 44.046875 74.21875 50.515625 64.515625 
Q 56.984375 54.828125 56.984375 36.375 
Q 56.984375 17.96875 50.515625 8.265625 
Q 44.046875 -1.421875 31.78125 -1.421875 
Q 19.53125 -1.421875 13.0625 8.265625 
Q 6.59375 17.96875 6.59375 36.375 
Q 6.59375 54.828125 13.0625 64.515625 
Q 19.53125 74.21875 31.78125 74.21875 
z
" id="DejaVuSans-48"/>
       </defs>
       <use xlink:href="#DejaVuSans-48"/>
      </g>
     </g>
    </g>
    <g id="xtick_2">
     <g id="line2d_2">
      <g>
       <use style="stroke:#000000;stroke-width:0.8;" x="241.92" xlink:href="#mec3ca3906c" y="512.64"/>
      </g>
     </g>
     <g id="text_2">
      <!-- 10 -->
      <g transform="translate(229.195 534.836875)scale(0.2 -0.2)">
       <defs>
        <path d="M 12.40625 8.296875 
L 28.515625 8.296875 
L 28.515625 63.921875 
L 10.984375 60.40625 
L 10.984375 69.390625 
L 28.421875 72.90625 
L 38.28125 72.90625 
L 38.28125 8.296875 
L 54.390625 8.296875 
L 54.390625 0 
L 12.40625 0 
z
" id="DejaVuSans-49"/>
       </defs>
       <use xlink:href="#DejaVuSans-49"/>
       <use x="63.623047" xlink:href="#DejaVuSans-48"/>
      </g>
     </g>
    </g>
    <g id="xtick_3">
     <g id="line2d_3">
      <g>
       <use style="stroke:#000000;stroke-width:0.8;" x="375.84" xlink:href="#mec3ca3906c" y="512.64"/>
      </g>
     </g>
     <g id="text_3">
      <!-- 20 -->
      <g transform="translate(363.115 534.836875)scale(0.2 -0.2)">
       <defs>
        <path d="M 19.1875 8.296875 
L 53.609375 8.296875 
L 53.609375 0 
L 7.328125 0 
L 7.328125 8.296875 
Q 12.9375 14.109375 22.625 23.890625 
Q 32.328125 33.6875 34.8125 36.53125 
Q 39.546875 41.84375 41.421875 45.53125 
Q 43.3125 49.21875 43.3125 52.78125 
Q 43.3125 58.59375 39.234375 62.25 
Q 35.15625 65.921875 28.609375 65.921875 
Q 23.96875 65.921875 18.8125 64.3125 
Q 13.671875 62.703125 7.8125 59.421875 
L 7.8125 69.390625 
Q 13.765625 71.78125 18.9375 73 
Q 24.125 74.21875 28.421875 74.21875 
Q 39.75 74.21875 46.484375 68.546875 
Q 53.21875 62.890625 53.21875 53.421875 
Q 53.21875 48.921875 51.53125 44.890625 
Q 49.859375 40.875 45.40625 35.40625 
Q 44.1875 33.984375 37.640625 27.21875 
Q 31.109375 20.453125 19.1875 8.296875 
z
" id="DejaVuSans-50"/>
       </defs>
       <use xlink:href="#DejaVuSans-50"/>
       <use x="63.623047" xlink:href="#DejaVuSans-48"/>
      </g>
     </g>
    </g>
    <g id="xtick_4">
     <g id="line2d_4">
      <g>
       <use style="stroke:#000000;stroke-width:0.8;" x="509.76" xlink:href="#mec3ca3906c" y="512.64"/>
      </g>
     </g>
     <g id="text_4">
      <!-- 30 -->
      <g transform="translate(497.035 534.836875)scale(0.2 -0.2)">
       <defs>
        <path d="M 40.578125 39.3125 
Q 47.65625 37.796875 51.625 33 
Q 55.609375 28.21875 55.609375 21.1875 
Q 55.609375 10.40625 48.1875 4.484375 
Q 40.765625 -1.421875 27.09375 -1.421875 
Q 22.515625 -1.421875 17.65625 -0.515625 
Q 12.796875 0.390625 7.625 2.203125 
L 7.625 11.71875 
Q 11.71875 9.328125 16.59375 8.109375 
Q 21.484375 6.890625 26.8125 6.890625 
Q 36.078125 6.890625 40.9375 10.546875 
Q 45.796875 14.203125 45.796875 21.1875 
Q 45.796875 27.640625 41.28125 31.265625 
Q 36.765625 34.90625 28.71875 34.90625 
L 20.21875 34.90625 
L 20.21875 43.015625 
L 29.109375 43.015625 
Q 36.375 43.015625 40.234375 45.921875 
Q 44.09375 48.828125 44.09375 54.296875 
Q 44.09375 59.90625 40.109375 62.90625 
Q 36.140625 65.921875 28.71875 65.921875 
Q 24.65625 65.921875 20.015625 65.03125 
Q 15.375 64.15625 9.8125 62.3125 
L 9.8125 71.09375 
Q 15.4375 72.65625 20.34375 73.4375 
Q 25.25 74.21875 29.59375 74.21875 
Q 40.828125 74.21875 47.359375 69.109375 
Q 53.90625 64.015625 53.90625 55.328125 
Q 53.90625 49.265625 50.4375 45.09375 
Q 46.96875 40.921875 40.578125 39.3125 
z
" id="DejaVuSans-51"/>
       </defs>
       <use xlink:href="#DejaVuSans-51"/>
       <use x="63.623047" xlink:href="#DejaVuSans-48"/>
      </g>
     </g>
    </g>
    <g id="xtick_5">
     <g id="line2d_5">
      <g>
       <use style="stroke:#000000;stroke-width:0.8;" x="643.68" xlink:href="#mec3ca3906c" y="512.64"/>
      </g>
     </g>
     <g id="text_5">
      <!-- 40 -->
      <g transform="translate(630.955 534.836875)scale(0.2 -0.2)">
       <defs>
        <path d="M 37.796875 64.3125 
L 12.890625 25.390625 
L 37.796875 25.390625 
z
M 35.203125 72.90625 
L 47.609375 72.90625 
L 47.609375 25.390625 
L 58.015625 25.390625 
L 58.015625 17.1875 
L 47.609375 17.1875 
L 47.609375 0 
L 37.796875 0 
L 37.796875 17.1875 
L 4.890625 17.1875 
L 4.890625 26.703125 
z
" id="DejaVuSans-52"/>
       </defs>
       <use xlink:href="#DejaVuSans-52"/>
       <use x="63.623047" xlink:href="#DejaVuSans-48"/>
      </g>
     </g>
    </g>
    <g id="xtick_6">
     <g id="line2d_6">
      <g>
       <use style="stroke:#000000;stroke-width:0.8;" x="777.6" xlink:href="#mec3ca3906c" y="512.64"/>
      </g>
     </g>
     <g id="text_6">
      <!-- 50 -->
      <g transform="translate(764.875 534.836875)scale(0.2 -0.2)">
       <defs>
        <path d="M 10.796875 72.90625 
L 49.515625 72.90625 
L 49.515625 64.59375 
L 19.828125 64.59375 
L 19.828125 46.734375 
Q 21.96875 47.46875 24.109375 47.828125 
Q 26.265625 48.1875 28.421875 48.1875 
Q 40.625 48.1875 47.75 41.5 
Q 54.890625 34.8125 54.890625 23.390625 
Q 54.890625 11.625 47.5625 5.09375 
Q 40.234375 -1.421875 26.90625 -1.421875 
Q 22.3125 -1.421875 17.546875 -0.640625 
Q 12.796875 0.140625 7.71875 1.703125 
L 7.71875 11.625 
Q 12.109375 9.234375 16.796875 8.0625 
Q 21.484375 6.890625 26.703125 6.890625 
Q 35.15625 6.890625 40.078125 11.328125 
Q 45.015625 15.765625 45.015625 23.390625 
Q 45.015625 31 40.078125 35.4375 
Q 35.15625 39.890625 26.703125 39.890625 
Q 22.75 39.890625 18.8125 39.015625 
Q 14.890625 38.140625 10.796875 36.28125 
z
" id="DejaVuSans-53"/>
       </defs>
       <use xlink:href="#DejaVuSans-53"/>
       <use x="63.623047" xlink:href="#DejaVuSans-48"/>
      </g>
     </g>
    </g>
    <g id="text_7">
     <!-- Iterations -->
     <g transform="translate(395.173437 558.193125)scale(0.2 -0.2)">
      <defs>
       <path d="M 9.8125 72.90625 
L 19.671875 72.90625 
L 19.671875 0 
L 9.8125 0 
z
" id="DejaVuSans-73"/>
       <path d="M 18.3125 70.21875 
L 18.3125 54.6875 
L 36.8125 54.6875 
L 36.8125 47.703125 
L 18.3125 47.703125 
L 18.3125 18.015625 
Q 18.3125 11.328125 20.140625 9.421875 
Q 21.96875 7.515625 27.59375 7.515625 
L 36.8125 7.515625 
L 36.8125 0 
L 27.59375 0 
Q 17.1875 0 13.234375 3.875 
Q 9.28125 7.765625 9.28125 18.015625 
L 9.28125 47.703125 
L 2.6875 47.703125 
L 2.6875 54.6875 
L 9.28125 54.6875 
L 9.28125 70.21875 
z
" id="DejaVuSans-116"/>
       <path d="M 56.203125 29.59375 
L 56.203125 25.203125 
L 14.890625 25.203125 
Q 15.484375 15.921875 20.484375 11.0625 
Q 25.484375 6.203125 34.421875 6.203125 
Q 39.59375 6.203125 44.453125 7.46875 
Q 49.3125 8.734375 54.109375 11.28125 
L 54.109375 2.78125 
Q 49.265625 0.734375 44.1875 -0.34375 
Q 39.109375 -1.421875 33.890625 -1.421875 
Q 20.796875 -1.421875 13.15625 6.1875 
Q 5.515625 13.8125 5.515625 26.8125 
Q 5.515625 40.234375 12.765625 48.109375 
Q 20.015625 56 32.328125 56 
Q 43.359375 56 49.78125 48.890625 
Q 56.203125 41.796875 56.203125 29.59375 
z
M 47.21875 32.234375 
Q 47.125 39.59375 43.09375 43.984375 
Q 39.0625 48.390625 32.421875 48.390625 
Q 24.90625 48.390625 20.390625 44.140625 
Q 15.875 39.890625 15.1875 32.171875 
z
" id="DejaVuSans-101"/>
       <path d="M 41.109375 46.296875 
Q 39.59375 47.171875 37.8125 47.578125 
Q 36.03125 48 33.890625 48 
Q 26.265625 48 22.1875 43.046875 
Q 18.109375 38.09375 18.109375 28.8125 
L 18.109375 0 
L 9.078125 0 
L 9.078125 54.6875 
L 18.109375 54.6875 
L 18.109375 46.1875 
Q 20.953125 51.171875 25.484375 53.578125 
Q 30.03125 56 36.53125 56 
Q 37.453125 56 38.578125 55.875 
Q 39.703125 55.765625 41.0625 55.515625 
z
" id="DejaVuSans-114"/>
       <path d="M 34.28125 27.484375 
Q 23.390625 27.484375 19.1875 25 
Q 14.984375 22.515625 14.984375 16.5 
Q 14.984375 11.71875 18.140625 8.90625 
Q 21.296875 6.109375 26.703125 6.109375 
Q 34.1875 6.109375 38.703125 11.40625 
Q 43.21875 16.703125 43.21875 25.484375 
L 43.21875 27.484375 
z
M 52.203125 31.203125 
L 52.203125 0 
L 43.21875 0 
L 43.21875 8.296875 
Q 40.140625 3.328125 35.546875 0.953125 
Q 30.953125 -1.421875 24.3125 -1.421875 
Q 15.921875 -1.421875 10.953125 3.296875 
Q 6 8.015625 6 15.921875 
Q 6 25.140625 12.171875 29.828125 
Q 18.359375 34.515625 30.609375 34.515625 
L 43.21875 34.515625 
L 43.21875 35.40625 
Q 43.21875 41.609375 39.140625 45 
Q 35.0625 48.390625 27.6875 48.390625 
Q 23 48.390625 18.546875 47.265625 
Q 14.109375 46.140625 10.015625 43.890625 
L 10.015625 52.203125 
Q 14.9375 54.109375 19.578125 55.046875 
Q 24.21875 56 28.609375 56 
Q 40.484375 56 46.34375 49.84375 
Q 52.203125 43.703125 52.203125 31.203125 
z
" id="DejaVuSans-97"/>
       <path d="M 9.421875 54.6875 
L 18.40625 54.6875 
L 18.40625 0 
L 9.421875 0 
z
M 9.421875 75.984375 
L 18.40625 75.984375 
L 18.40625 64.59375 
L 9.421875 64.59375 
z
" id="DejaVuSans-105"/>
       <path d="M 30.609375 48.390625 
Q 23.390625 48.390625 19.1875 42.75 
Q 14.984375 37.109375 14.984375 27.296875 
Q 14.984375 17.484375 19.15625 11.84375 
Q 23.34375 6.203125 30.609375 6.203125 
Q 37.796875 6.203125 41.984375 11.859375 
Q 46.1875 17.53125 46.1875 27.296875 
Q 46.1875 37.015625 41.984375 42.703125 
Q 37.796875 48.390625 30.609375 48.390625 
z
M 30.609375 56 
Q 42.328125 56 49.015625 48.375 
Q 55.71875 40.765625 55.71875 27.296875 
Q 55.71875 13.875 49.015625 6.21875 
Q 42.328125 -1.421875 30.609375 -1.421875 
Q 18.84375 -1.421875 12.171875 6.21875 
Q 5.515625 13.875 5.515625 27.296875 
Q 5.515625 40.765625 12.171875 48.375 
Q 18.84375 56 30.609375 56 
z
" id="DejaVuSans-111"/>
       <path d="M 54.890625 33.015625 
L 54.890625 0 
L 45.90625 0 
L 45.90625 32.71875 
Q 45.90625 40.484375 42.875 44.328125 
Q 39.84375 48.1875 33.796875 48.1875 
Q 26.515625 48.1875 22.3125 43.546875 
Q 18.109375 38.921875 18.109375 30.90625 
L 18.109375 0 
L 9.078125 0 
L 9.078125 54.6875 
L 18.109375 54.6875 
L 18.109375 46.1875 
Q 21.34375 51.125 25.703125 53.5625 
Q 30.078125 56 35.796875 56 
Q 45.21875 56 50.046875 50.171875 
Q 54.890625 44.34375 54.890625 33.015625 
z
" id="DejaVuSans-110"/>
       <path d="M 44.28125 53.078125 
L 44.28125 44.578125 
Q 40.484375 46.53125 36.375 47.5 
Q 32.28125 48.484375 27.875 48.484375 
Q 21.1875 48.484375 17.84375 46.4375 
Q 14.5 44.390625 14.5 40.28125 
Q 14.5 37.15625 16.890625 35.375 
Q 19.28125 33.59375 26.515625 31.984375 
L 29.59375 31.296875 
Q 39.15625 29.25 43.1875 25.515625 
Q 47.21875 21.78125 47.21875 15.09375 
Q 47.21875 7.46875 41.1875 3.015625 
Q 35.15625 -1.421875 24.609375 -1.421875 
Q 20.21875 -1.421875 15.453125 -0.5625 
Q 10.6875 0.296875 5.421875 2 
L 5.421875 11.28125 
Q 10.40625 8.6875 15.234375 7.390625 
Q 20.0625 6.109375 24.8125 6.109375 
Q 31.15625 6.109375 34.5625 8.28125 
Q 37.984375 10.453125 37.984375 14.40625 
Q 37.984375 18.0625 35.515625 20.015625 
Q 33.0625 21.96875 24.703125 23.78125 
L 21.578125 24.515625 
Q 13.234375 26.265625 9.515625 29.90625 
Q 5.8125 33.546875 5.8125 39.890625 
Q 5.8125 47.609375 11.28125 51.796875 
Q 16.75 56 26.8125 56 
Q 31.78125 56 36.171875 55.265625 
Q 40.578125 54.546875 44.28125 53.078125 
z
" id="DejaVuSans-115"/>
      </defs>
      <use xlink:href="#DejaVuSans-73"/>
      <use x="29.492188" xlink:href="#DejaVuSans-116"/>
      <use x="68.701172" xlink:href="#DejaVuSans-101"/>
      <use x="130.224609" xlink:href="#DejaVuSans-114"/>
      <use x="171.337891" xlink:href="#DejaVuSans-97"/>
      <use x="232.617188" xlink:href="#DejaVuSans-116"/>
      <use x="271.826172" xlink:href="#DejaVuSans-105"/>
      <use x="299.609375" xlink:href="#DejaVuSans-111"/>
      <use x="360.791016" xlink:href="#DejaVuSans-110"/>
      <use x="424.169922" xlink:href="#DejaVuSans-115"/>
     </g>
    </g>
   </g>
   <g id="matplotlib.axis_2">
    <g id="ytick_1">
     <g id="line2d_7">
      <defs>
       <path d="M 0 0 
L -3.5 0 
" id="mea3fb7cb0c" style="stroke:#000000;stroke-width:0.8;"/>
      </defs>
      <g>
       <use style="stroke:#000000;stroke-width:0.8;" x="108" xlink:href="#mea3fb7cb0c" y="512.64"/>
      </g>
     </g>
     <g id="text_8">
      <!-- 0.0 -->
      <g transform="translate(69.19375 520.238438)scale(0.2 -0.2)">
       <defs>
        <path d="M 10.6875 12.40625 
L 21 12.40625 
L 21 0 
L 10.6875 0 
z
" id="DejaVuSans-46"/>
       </defs>
       <use xlink:href="#DejaVuSans-48"/>
       <use x="63.623047" xlink:href="#DejaVuSans-46"/>
       <use x="95.410156" xlink:href="#DejaVuSans-48"/>
      </g>
     </g>
    </g>
    <g id="ytick_2">
     <g id="line2d_8">
      <g>
       <use style="stroke:#000000;stroke-width:0.8;" x="108" xlink:href="#mea3fb7cb0c" y="290.88"/>
      </g>
     </g>
     <g id="text_9">
      <!-- 0.5 -->
      <g transform="translate(69.19375 298.478437)scale(0.2 -0.2)">
       <use xlink:href="#DejaVuSans-48"/>
       <use x="63.623047" xlink:href="#DejaVuSans-46"/>
       <use x="95.410156" xlink:href="#DejaVuSans-53"/>
      </g>
     </g>
    </g>
    <g id="ytick_3">
     <g id="line2d_9">
      <g>
       <use style="stroke:#000000;stroke-width:0.8;" x="108" xlink:href="#mea3fb7cb0c" y="69.12"/>
      </g>
     </g>
     <g id="text_10">
      <!-- 1.0 -->
      <g transform="translate(69.19375 76.718437)scale(0.2 -0.2)">
       <use xlink:href="#DejaVuSans-49"/>
       <use x="63.623047" xlink:href="#DejaVuSans-46"/>
       <use x="95.410156" xlink:href="#DejaVuSans-48"/>
      </g>
     </g>
    </g>
    <g id="text_11">
     <!-- RER -->
     <g transform="translate(61.034375 311.095625)rotate(-90)scale(0.2 -0.2)">
      <defs>
       <path d="M 44.390625 34.1875 
Q 47.5625 33.109375 50.5625 29.59375 
Q 53.5625 26.078125 56.59375 19.921875 
L 66.609375 0 
L 56 0 
L 46.6875 18.703125 
Q 43.0625 26.03125 39.671875 28.421875 
Q 36.28125 30.8125 30.421875 30.8125 
L 19.671875 30.8125 
L 19.671875 0 
L 9.8125 0 
L 9.8125 72.90625 
L 32.078125 72.90625 
Q 44.578125 72.90625 50.734375 67.671875 
Q 56.890625 62.453125 56.890625 51.90625 
Q 56.890625 45.015625 53.6875 40.46875 
Q 50.484375 35.9375 44.390625 34.1875 
z
M 19.671875 64.796875 
L 19.671875 38.921875 
L 32.078125 38.921875 
Q 39.203125 38.921875 42.84375 42.21875 
Q 46.484375 45.515625 46.484375 51.90625 
Q 46.484375 58.296875 42.84375 61.546875 
Q 39.203125 64.796875 32.078125 64.796875 
z
" id="DejaVuSans-82"/>
       <path d="M 9.8125 72.90625 
L 55.90625 72.90625 
L 55.90625 64.59375 
L 19.671875 64.59375 
L 19.671875 43.015625 
L 54.390625 43.015625 
L 54.390625 34.71875 
L 19.671875 34.71875 
L 19.671875 8.296875 
L 56.78125 8.296875 
L 56.78125 0 
L 9.8125 0 
z
" id="DejaVuSans-69"/>
      </defs>
      <use xlink:href="#DejaVuSans-82"/>
      <use x="69.482422" xlink:href="#DejaVuSans-69"/>
      <use x="132.666016" xlink:href="#DejaVuSans-82"/>
     </g>
    </g>
   </g>
   <g id="line2d_10">
    <path clip-path="url(#p893a08ee21)" d="M 121.392 69.12 
L 134.784 81.814726 
L 148.176 100.130279 
L 161.568 114.6995 
L 174.96 139.086635 
L 188.352 170.127954 
L 201.744 208.629782 
L 215.136 257.285999 
L 228.528 303.384636 
L 241.92 370.125597 
L 255.312 415.134661 
L 268.704 434.637688 
L 282.096 444.418586 
L 295.488 443.600286 
L 308.88 456.03653 
L 322.272 453.897061 
L 335.664 456.613511 
L 349.056 459.652127 
L 362.448 464.053163 
L 375.84 463.478571 
L 389.232 470.61542 
L 402.624 468.510074 
L 416.016 472.129283 
L 429.408 473.218652 
L 442.8 478.634673 
L 456.192 478.203173 
L 469.584 484.14034 
L 482.976 482.846084 
L 496.368 481.957013 
L 509.76 485.088288 
L 523.152 486.327619 
L 536.544 488.499242 
L 549.936 491.956023 
L 563.328 493.408219 
L 576.72 493.912948 
L 590.112 493.447169 
L 603.504 497.347243 
L 616.896 495.966811 
L 630.288 500.858828 
L 643.68 500.35883 
L 657.072 501.506723 
L 670.464 500.793046 
L 683.856 505.683896 
L 697.248 504.650022 
L 710.64 504.891395 
L 724.032 505.50402 
L 737.424 505.952609 
L 750.816 507.503609 
L 764.208 510.811997 
L 777.6 512.64 
" style="fill:none;stroke:#800080;stroke-linecap:square;stroke-width:1.5;"/>
   </g>
   <g id="line2d_11">
    <path clip-path="url(#p893a08ee21)" d="M 121.392 69.12 
L 134.784 84.826068 
L 148.176 107.604102 
L 161.568 127.805764 
L 174.96 160.559485 
L 188.352 205.996673 
L 201.744 252.954437 
L 215.136 329.196292 
L 228.528 387.546864 
L 241.92 429.26934 
L 255.312 446.103897 
L 268.704 450.02626 
L 282.096 455.379108 
L 295.488 458.150064 
L 308.88 460.294074 
L 322.272 465.837417 
L 335.664 467.382452 
L 349.056 463.111143 
L 362.448 478.157775 
L 375.84 472.392562 
L 389.232 472.770838 
L 402.624 475.263961 
L 416.016 476.20794 
L 429.408 482.104523 
L 442.8 487.625284 
L 456.192 486.61165 
L 469.584 492.455224 
L 482.976 491.52643 
L 496.368 491.758401 
L 509.76 492.640412 
L 523.152 498.110394 
L 536.544 498.651191 
L 549.936 498.023111 
L 563.328 496.427167 
L 576.72 505.58439 
L 590.112 497.576668 
L 603.504 501.134946 
L 616.896 504.056445 
L 630.288 503.624389 
L 643.68 503.286836 
L 657.072 507.340486 
L 670.464 505.031771 
L 683.856 505.1579 
L 697.248 510.36659 
L 710.64 510.443047 
L 724.032 508.617511 
L 737.424 512.64 
L 750.816 510.38027 
L 764.208 510.665761 
L 777.6 509.373765 
" style="fill:none;stroke:#0000ff;stroke-linecap:square;stroke-width:1.5;"/>
   </g>
   <g id="line2d_12">
    <path clip-path="url(#p893a08ee21)" d="M 121.392 69.12 
L 134.784 75.54378 
L 148.176 88.719003 
L 161.568 97.827292 
L 174.96 109.91586 
L 188.352 121.565197 
L 201.744 140.689413 
L 215.136 158.970723 
L 228.528 179.292544 
L 241.92 205.58454 
L 255.312 235.623519 
L 268.704 262.35358 
L 282.096 308.80516 
L 295.488 359.480105 
L 308.88 401.220469 
L 322.272 430.852464 
L 335.664 456.9438 
L 349.056 463.103865 
L 362.448 468.901034 
L 375.84 472.489933 
L 389.232 476.105035 
L 402.624 471.144062 
L 416.016 473.879749 
L 429.408 478.287495 
L 442.8 482.423601 
L 456.192 486.969951 
L 469.584 483.957364 
L 482.976 487.449712 
L 496.368 485.732305 
L 509.76 489.774262 
L 523.152 488.563889 
L 536.544 492.355043 
L 549.936 494.40229 
L 563.328 495.632285 
L 576.72 494.103234 
L 590.112 498.733034 
L 603.504 497.166143 
L 616.896 499.913706 
L 630.288 499.720698 
L 643.68 500.825916 
L 657.072 502.752205 
L 670.464 504.28316 
L 683.856 502.877137 
L 697.248 508.919255 
L 710.64 511.772069 
L 724.032 504.517495 
L 737.424 508.661799 
L 750.816 504.757387 
L 764.208 510.294863 
L 777.6 512.64 
" style="fill:none;stroke:#008000;stroke-linecap:square;stroke-width:1.5;"/>
   </g>
   <g id="line2d_13">
    <path clip-path="url(#p893a08ee21)" d="M 121.392 69.12 
L 134.784 76.275146 
L 148.176 83.923374 
L 161.568 91.770088 
L 174.96 107.400562 
L 188.352 121.896429 
L 201.744 133.399502 
L 215.136 146.355921 
L 228.528 168.19205 
L 241.92 194.296383 
L 255.312 214.496916 
L 268.704 264.336093 
L 282.096 299.915975 
L 295.488 338.095499 
L 308.88 375.456479 
L 322.272 398.949711 
L 335.664 421.088114 
L 349.056 432.928013 
L 362.448 449.458013 
L 375.84 453.71726 
L 389.232 455.709107 
L 402.624 457.812974 
L 416.016 461.996852 
L 429.408 472.589284 
L 442.8 467.347904 
L 456.192 471.48493 
L 469.584 478.596796 
L 482.976 473.733307 
L 496.368 476.410857 
L 509.76 479.828144 
L 523.152 481.32859 
L 536.544 477.910654 
L 549.936 473.376656 
L 563.328 481.363008 
L 576.72 479.529327 
L 590.112 487.44927 
L 603.504 485.700736 
L 616.896 495.011988 
L 630.288 492.102355 
L 643.68 490.845681 
L 657.072 493.479588 
L 670.464 498.819045 
L 683.856 499.293256 
L 697.248 499.650156 
L 710.64 502.476227 
L 724.032 495.591076 
L 737.424 507.201261 
L 750.816 500.237209 
L 764.208 502.765284 
L 777.6 512.64 
" style="fill:none;stroke:#bfbf00;stroke-linecap:square;stroke-width:1.5;"/>
   </g>
   <g id="line2d_14">
    <path clip-path="url(#p893a08ee21)" d="M 121.392 69.12 
L 134.784 103.343328 
L 148.176 115.185235 
L 161.568 109.60169 
L 174.96 125.641298 
L 188.352 122.20719 
L 201.744 132.286036 
L 215.136 136.815033 
L 228.528 150.054029 
L 241.92 151.602048 
L 255.312 160.902603 
L 268.704 171.070055 
L 282.096 178.747274 
L 295.488 195.836872 
L 308.88 212.800546 
L 322.272 216.696132 
L 335.664 229.970954 
L 349.056 247.29225 
L 362.448 266.501551 
L 375.84 282.65524 
L 389.232 305.936361 
L 402.624 326.100058 
L 416.016 363.621942 
L 429.408 366.585113 
L 442.8 397.51668 
L 456.192 416.815567 
L 469.584 438.139629 
L 482.976 446.716548 
L 496.368 451.36329 
L 509.76 470.408924 
L 523.152 470.703647 
L 536.544 467.579685 
L 549.936 493.840378 
L 563.328 474.358995 
L 576.72 489.025475 
L 590.112 490.848559 
L 603.504 492.462436 
L 616.896 491.300964 
L 630.288 498.443178 
L 643.68 497.393508 
L 657.072 498.200234 
L 670.464 504.776728 
L 683.856 512.64 
L 697.248 490.365844 
L 710.64 498.229201 
L 724.032 506.679791 
L 737.424 497.409248 
L 750.816 505.34068 
L 764.208 511.886268 
L 777.6 497.72197 
" style="fill:none;stroke:#ff0000;stroke-linecap:square;stroke-width:1.5;"/>
   </g>
   <g id="patch_3">
    <path d="M 108 512.64 
L 108 69.12 
" style="fill:none;stroke:#000000;stroke-linecap:square;stroke-linejoin:miter;stroke-width:0.8;"/>
   </g>
   <g id="patch_4">
    <path d="M 777.6 512.64 
L 777.6 69.12 
" style="fill:none;stroke:#000000;stroke-linecap:square;stroke-linejoin:miter;stroke-width:0.8;"/>
   </g>
   <g id="patch_5">
    <path d="M 108 512.64 
L 777.6 512.64 
" style="fill:none;stroke:#000000;stroke-linecap:square;stroke-linejoin:miter;stroke-width:0.8;"/>
   </g>
   <g id="patch_6">
    <path d="M 108 69.12 
L 777.6 69.12 
" style="fill:none;stroke:#000000;stroke-linecap:square;stroke-linejoin:miter;stroke-width:0.8;"/>
   </g>
   <g id="legend_1">
    <g id="patch_7">
     <path d="M 705.923437 150.510625 
L 770.6 150.510625 
Q 772.6 150.510625 772.6 148.510625 
L 772.6 76.12 
Q 772.6 74.12 770.6 74.12 
L 705.923437 74.12 
Q 703.923437 74.12 703.923437 76.12 
L 703.923437 148.510625 
Q 703.923437 150.510625 705.923437 150.510625 
z
" style="fill:#ffffff;opacity:0.8;stroke:#cccccc;stroke-linejoin:miter;"/>
    </g>
    <g id="line2d_15">
     <path d="M 707.923437 82.218437 
L 727.923437 82.218437 
" style="fill:none;stroke:#800080;stroke-linecap:square;stroke-width:1.5;"/>
    </g>
    <g id="line2d_16"/>
    <g id="text_12">
     <!-- s=100 -->
     <g transform="translate(735.923437 85.718437)scale(0.1 -0.1)">
      <defs>
       <path d="M 10.59375 45.40625 
L 73.1875 45.40625 
L 73.1875 37.203125 
L 10.59375 37.203125 
z
M 10.59375 25.484375 
L 73.1875 25.484375 
L 73.1875 17.1875 
L 10.59375 17.1875 
z
" id="DejaVuSans-61"/>
      </defs>
      <use xlink:href="#DejaVuSans-115"/>
      <use x="52.099609" xlink:href="#DejaVuSans-61"/>
      <use x="135.888672" xlink:href="#DejaVuSans-49"/>
      <use x="199.511719" xlink:href="#DejaVuSans-48"/>
      <use x="263.134766" xlink:href="#DejaVuSans-48"/>
     </g>
    </g>
    <g id="line2d_17">
     <path d="M 707.923437 96.896563 
L 727.923437 96.896563 
" style="fill:none;stroke:#0000ff;stroke-linecap:square;stroke-width:1.5;"/>
    </g>
    <g id="line2d_18"/>
    <g id="text_13">
     <!-- s=80 -->
     <g transform="translate(735.923437 100.396563)scale(0.1 -0.1)">
      <defs>
       <path d="M 31.78125 34.625 
Q 24.75 34.625 20.71875 30.859375 
Q 16.703125 27.09375 16.703125 20.515625 
Q 16.703125 13.921875 20.71875 10.15625 
Q 24.75 6.390625 31.78125 6.390625 
Q 38.8125 6.390625 42.859375 10.171875 
Q 46.921875 13.96875 46.921875 20.515625 
Q 46.921875 27.09375 42.890625 30.859375 
Q 38.875 34.625 31.78125 34.625 
z
M 21.921875 38.8125 
Q 15.578125 40.375 12.03125 44.71875 
Q 8.5 49.078125 8.5 55.328125 
Q 8.5 64.0625 14.71875 69.140625 
Q 20.953125 74.21875 31.78125 74.21875 
Q 42.671875 74.21875 48.875 69.140625 
Q 55.078125 64.0625 55.078125 55.328125 
Q 55.078125 49.078125 51.53125 44.71875 
Q 48 40.375 41.703125 38.8125 
Q 48.828125 37.15625 52.796875 32.3125 
Q 56.78125 27.484375 56.78125 20.515625 
Q 56.78125 9.90625 50.3125 4.234375 
Q 43.84375 -1.421875 31.78125 -1.421875 
Q 19.734375 -1.421875 13.25 4.234375 
Q 6.78125 9.90625 6.78125 20.515625 
Q 6.78125 27.484375 10.78125 32.3125 
Q 14.796875 37.15625 21.921875 38.8125 
z
M 18.3125 54.390625 
Q 18.3125 48.734375 21.84375 45.5625 
Q 25.390625 42.390625 31.78125 42.390625 
Q 38.140625 42.390625 41.71875 45.5625 
Q 45.3125 48.734375 45.3125 54.390625 
Q 45.3125 60.0625 41.71875 63.234375 
Q 38.140625 66.40625 31.78125 66.40625 
Q 25.390625 66.40625 21.84375 63.234375 
Q 18.3125 60.0625 18.3125 54.390625 
z
" id="DejaVuSans-56"/>
      </defs>
      <use xlink:href="#DejaVuSans-115"/>
      <use x="52.099609" xlink:href="#DejaVuSans-61"/>
      <use x="135.888672" xlink:href="#DejaVuSans-56"/>
      <use x="199.511719" xlink:href="#DejaVuSans-48"/>
     </g>
    </g>
    <g id="line2d_19">
     <path d="M 707.923437 111.574687 
L 727.923437 111.574687 
" style="fill:none;stroke:#008000;stroke-linecap:square;stroke-width:1.5;"/>
    </g>
    <g id="line2d_20"/>
    <g id="text_14">
     <!-- s=60 -->
     <g transform="translate(735.923437 115.074687)scale(0.1 -0.1)">
      <defs>
       <path d="M 33.015625 40.375 
Q 26.375 40.375 22.484375 35.828125 
Q 18.609375 31.296875 18.609375 23.390625 
Q 18.609375 15.53125 22.484375 10.953125 
Q 26.375 6.390625 33.015625 6.390625 
Q 39.65625 6.390625 43.53125 10.953125 
Q 47.40625 15.53125 47.40625 23.390625 
Q 47.40625 31.296875 43.53125 35.828125 
Q 39.65625 40.375 33.015625 40.375 
z
M 52.59375 71.296875 
L 52.59375 62.3125 
Q 48.875 64.0625 45.09375 64.984375 
Q 41.3125 65.921875 37.59375 65.921875 
Q 27.828125 65.921875 22.671875 59.328125 
Q 17.53125 52.734375 16.796875 39.40625 
Q 19.671875 43.65625 24.015625 45.921875 
Q 28.375 48.1875 33.59375 48.1875 
Q 44.578125 48.1875 50.953125 41.515625 
Q 57.328125 34.859375 57.328125 23.390625 
Q 57.328125 12.15625 50.6875 5.359375 
Q 44.046875 -1.421875 33.015625 -1.421875 
Q 20.359375 -1.421875 13.671875 8.265625 
Q 6.984375 17.96875 6.984375 36.375 
Q 6.984375 53.65625 15.1875 63.9375 
Q 23.390625 74.21875 37.203125 74.21875 
Q 40.921875 74.21875 44.703125 73.484375 
Q 48.484375 72.75 52.59375 71.296875 
z
" id="DejaVuSans-54"/>
      </defs>
      <use xlink:href="#DejaVuSans-115"/>
      <use x="52.099609" xlink:href="#DejaVuSans-61"/>
      <use x="135.888672" xlink:href="#DejaVuSans-54"/>
      <use x="199.511719" xlink:href="#DejaVuSans-48"/>
     </g>
    </g>
    <g id="line2d_21">
     <path d="M 707.923437 126.252813 
L 727.923437 126.252813 
" style="fill:none;stroke:#bfbf00;stroke-linecap:square;stroke-width:1.5;"/>
    </g>
    <g id="line2d_22"/>
    <g id="text_15">
     <!-- s=40 -->
     <g transform="translate(735.923437 129.752813)scale(0.1 -0.1)">
      <use xlink:href="#DejaVuSans-115"/>
      <use x="52.099609" xlink:href="#DejaVuSans-61"/>
      <use x="135.888672" xlink:href="#DejaVuSans-52"/>
      <use x="199.511719" xlink:href="#DejaVuSans-48"/>
     </g>
    </g>
    <g id="line2d_23">
     <path d="M 707.923437 140.930938 
L 727.923437 140.930938 
" style="fill:none;stroke:#ff0000;stroke-linecap:square;stroke-width:1.5;"/>
    </g>
    <g id="line2d_24"/>
    <g id="text_16">
     <!-- s=20 -->
     <g transform="translate(735.923437 144.430938)scale(0.1 -0.1)">
      <use xlink:href="#DejaVuSans-115"/>
      <use x="52.099609" xlink:href="#DejaVuSans-61"/>
      <use x="135.888672" xlink:href="#DejaVuSans-50"/>
      <use x="199.511719" xlink:href="#DejaVuSans-48"/>
     </g>
    </g>
   </g>
  </g>
 </g>
 <defs>
  <clipPath id="p893a08ee21">
   <rect height="443.52" width="669.6" x="108" y="69.12"/>
  </clipPath>
 </defs>
</svg>
