<?xml version="1.0" encoding="utf-8" standalone="no"?>
<!DOCTYPE svg PUBLIC "-//W3C//DTD SVG 1.1//EN"
  "http://www.w3.org/Graphics/SVG/1.1/DTD/svg11.dtd">
<!-- Created with matplotlib (https://matplotlib.org/) -->
<svg height="576pt" version="1.1" viewBox="0 0 864 576" width="864pt" xmlns="http://www.w3.org/2000/svg" xmlns:xlink="http://www.w3.org/1999/xlink">
 <metadata>
  <rdf:RDF xmlns:cc="http://creativecommons.org/ns#" xmlns:dc="http://purl.org/dc/elements/1.1/" xmlns:rdf="http://www.w3.org/1999/02/22-rdf-syntax-ns#">
   <cc:Work>
    <dc:type rdf:resource="http://purl.org/dc/dcmitype/StillImage"/>
    <dc:date>2023-04-23T10:35:20.265118</dc:date>
    <dc:format>image/svg+xml</dc:format>
    <dc:creator>
     <cc:Agent>
      <dc:title>Matplotlib v3.3.4, https://matplotlib.org/</dc:title>
     </cc:Agent>
    </dc:creator>
   </cc:Work>
  </rdf:RDF>
 </metadata>
 <defs>
  <style type="text/css">*{stroke-linecap:butt;stroke-linejoin:round;}</style>
 </defs>
 <g id="figure_1">
  <g id="patch_1">
   <path d="M 0 576 
L 864 576 
L 864 0 
L 0 0 
z
" style="fill:#ffffff;"/>
  </g>
  <g id="axes_1">
   <g id="patch_2">
    <path d="M 108 512.64 
L 777.6 512.64 
L 777.6 69.12 
L 108 69.12 
z
" style="fill:#ffffff;"/>
   </g>
   <g id="PathCollection_1">
    <defs>
     <path d="M 0 3 
C 0.795609 3 1.55874 2.683901 2.12132 2.12132 
C 2.683901 1.55874 3 0.795609 3 0 
C 3 -0.795609 2.683901 -1.55874 2.12132 -2.12132 
C 1.55874 -2.683901 0.795609 -3 0 -3 
C -0.795609 -3 -1.55874 -2.683901 -2.12132 -2.12132 
C -2.683901 -1.55874 -3 -0.795609 -3 0 
C -3 0.795609 -2.683901 1.55874 -2.12132 2.12132 
C -1.55874 2.683901 -0.795609 3 0 3 
z
" id="m1e4ffb682b" style="stroke:#800080;"/>
    </defs>
    <g clip-path="url(#p2def864a19)">
     <use style="fill:#800080;stroke:#800080;" x="121.392" xlink:href="#m1e4ffb682b" y="69.12"/>
     <use style="fill:#800080;stroke:#800080;" x="134.784" xlink:href="#m1e4ffb682b" y="71.292969"/>
     <use style="fill:#800080;stroke:#800080;" x="148.176" xlink:href="#m1e4ffb682b" y="80.266012"/>
     <use style="fill:#800080;stroke:#800080;" x="161.568" xlink:href="#m1e4ffb682b" y="88.905069"/>
     <use style="fill:#800080;stroke:#800080;" x="174.96" xlink:href="#m1e4ffb682b" y="97.978711"/>
     <use style="fill:#800080;stroke:#800080;" x="188.352" xlink:href="#m1e4ffb682b" y="109.95052"/>
     <use style="fill:#800080;stroke:#800080;" x="201.744" xlink:href="#m1e4ffb682b" y="126.274933"/>
     <use style="fill:#800080;stroke:#800080;" x="215.136" xlink:href="#m1e4ffb682b" y="140.800286"/>
     <use style="fill:#800080;stroke:#800080;" x="228.528" xlink:href="#m1e4ffb682b" y="164.990542"/>
     <use style="fill:#800080;stroke:#800080;" x="241.92" xlink:href="#m1e4ffb682b" y="192.778207"/>
     <use style="fill:#800080;stroke:#800080;" x="255.312" xlink:href="#m1e4ffb682b" y="231.10451"/>
     <use style="fill:#800080;stroke:#800080;" x="268.704" xlink:href="#m1e4ffb682b" y="281.760576"/>
     <use style="fill:#800080;stroke:#800080;" x="282.096" xlink:href="#m1e4ffb682b" y="334.774701"/>
     <use style="fill:#800080;stroke:#800080;" x="295.488" xlink:href="#m1e4ffb682b" y="391.364942"/>
     <use style="fill:#800080;stroke:#800080;" x="308.88" xlink:href="#m1e4ffb682b" y="417.739319"/>
     <use style="fill:#800080;stroke:#800080;" x="322.272" xlink:href="#m1e4ffb682b" y="434.941685"/>
     <use style="fill:#800080;stroke:#800080;" x="335.664" xlink:href="#m1e4ffb682b" y="440.584506"/>
     <use style="fill:#800080;stroke:#800080;" x="349.056" xlink:href="#m1e4ffb682b" y="446.437616"/>
     <use style="fill:#800080;stroke:#800080;" x="362.448" xlink:href="#m1e4ffb682b" y="452.876122"/>
     <use style="fill:#800080;stroke:#800080;" x="375.84" xlink:href="#m1e4ffb682b" y="453.748261"/>
     <use style="fill:#800080;stroke:#800080;" x="389.232" xlink:href="#m1e4ffb682b" y="462.119278"/>
     <use style="fill:#800080;stroke:#800080;" x="402.624" xlink:href="#m1e4ffb682b" y="466.456486"/>
     <use style="fill:#800080;stroke:#800080;" x="416.016" xlink:href="#m1e4ffb682b" y="466.211235"/>
     <use style="fill:#800080;stroke:#800080;" x="429.408" xlink:href="#m1e4ffb682b" y="470.218218"/>
     <use style="fill:#800080;stroke:#800080;" x="442.8" xlink:href="#m1e4ffb682b" y="473.77106"/>
     <use style="fill:#800080;stroke:#800080;" x="456.192" xlink:href="#m1e4ffb682b" y="476.420948"/>
     <use style="fill:#800080;stroke:#800080;" x="469.584" xlink:href="#m1e4ffb682b" y="477.671459"/>
     <use style="fill:#800080;stroke:#800080;" x="482.976" xlink:href="#m1e4ffb682b" y="482.781306"/>
     <use style="fill:#800080;stroke:#800080;" x="496.368" xlink:href="#m1e4ffb682b" y="484.800994"/>
     <use style="fill:#800080;stroke:#800080;" x="509.76" xlink:href="#m1e4ffb682b" y="482.456895"/>
     <use style="fill:#800080;stroke:#800080;" x="523.152" xlink:href="#m1e4ffb682b" y="488.011507"/>
     <use style="fill:#800080;stroke:#800080;" x="536.544" xlink:href="#m1e4ffb682b" y="490.785747"/>
     <use style="fill:#800080;stroke:#800080;" x="549.936" xlink:href="#m1e4ffb682b" y="489.937221"/>
     <use style="fill:#800080;stroke:#800080;" x="563.328" xlink:href="#m1e4ffb682b" y="493.806062"/>
     <use style="fill:#800080;stroke:#800080;" x="576.72" xlink:href="#m1e4ffb682b" y="497.019472"/>
     <use style="fill:#800080;stroke:#800080;" x="590.112" xlink:href="#m1e4ffb682b" y="495.892707"/>
     <use style="fill:#800080;stroke:#800080;" x="603.504" xlink:href="#m1e4ffb682b" y="498.507019"/>
     <use style="fill:#800080;stroke:#800080;" x="616.896" xlink:href="#m1e4ffb682b" y="500.750795"/>
     <use style="fill:#800080;stroke:#800080;" x="630.288" xlink:href="#m1e4ffb682b" y="501.085594"/>
     <use style="fill:#800080;stroke:#800080;" x="643.68" xlink:href="#m1e4ffb682b" y="502.621398"/>
     <use style="fill:#800080;stroke:#800080;" x="657.072" xlink:href="#m1e4ffb682b" y="502.708694"/>
     <use style="fill:#800080;stroke:#800080;" x="670.464" xlink:href="#m1e4ffb682b" y="505.344088"/>
     <use style="fill:#800080;stroke:#800080;" x="683.856" xlink:href="#m1e4ffb682b" y="507.50411"/>
     <use style="fill:#800080;stroke:#800080;" x="697.248" xlink:href="#m1e4ffb682b" y="506.118443"/>
     <use style="fill:#800080;stroke:#800080;" x="710.64" xlink:href="#m1e4ffb682b" y="509.801957"/>
     <use style="fill:#800080;stroke:#800080;" x="724.032" xlink:href="#m1e4ffb682b" y="509.889451"/>
     <use style="fill:#800080;stroke:#800080;" x="737.424" xlink:href="#m1e4ffb682b" y="507.444881"/>
     <use style="fill:#800080;stroke:#800080;" x="750.816" xlink:href="#m1e4ffb682b" y="510.191362"/>
     <use style="fill:#800080;stroke:#800080;" x="764.208" xlink:href="#m1e4ffb682b" y="510.113808"/>
     <use style="fill:#800080;stroke:#800080;" x="777.6" xlink:href="#m1e4ffb682b" y="512.64"/>
    </g>
   </g>
   <g id="PathCollection_2">
    <defs>
     <path d="M 0 3 
C 0.795609 3 1.55874 2.683901 2.12132 2.12132 
C 2.683901 1.55874 3 0.795609 3 0 
C 3 -0.795609 2.683901 -1.55874 2.12132 -2.12132 
C 1.55874 -2.683901 0.795609 -3 0 -3 
C -0.795609 -3 -1.55874 -2.683901 -2.12132 -2.12132 
C -2.683901 -1.55874 -3 -0.795609 -3 0 
C -3 0.795609 -2.683901 1.55874 -2.12132 2.12132 
C -1.55874 2.683901 -0.795609 3 0 3 
z
" id="mfbedb92764" style="stroke:#0000ff;"/>
    </defs>
    <g clip-path="url(#p2def864a19)">
     <use style="fill:#0000ff;stroke:#0000ff;" x="121.392" xlink:href="#mfbedb92764" y="69.12"/>
     <use style="fill:#0000ff;stroke:#0000ff;" x="134.784" xlink:href="#mfbedb92764" y="73.9795"/>
     <use style="fill:#0000ff;stroke:#0000ff;" x="148.176" xlink:href="#mfbedb92764" y="81.70183"/>
     <use style="fill:#0000ff;stroke:#0000ff;" x="161.568" xlink:href="#mfbedb92764" y="89.12848"/>
     <use style="fill:#0000ff;stroke:#0000ff;" x="174.96" xlink:href="#mfbedb92764" y="100.670261"/>
     <use style="fill:#0000ff;stroke:#0000ff;" x="188.352" xlink:href="#mfbedb92764" y="111.806958"/>
     <use style="fill:#0000ff;stroke:#0000ff;" x="201.744" xlink:href="#mfbedb92764" y="127.496648"/>
     <use style="fill:#0000ff;stroke:#0000ff;" x="215.136" xlink:href="#mfbedb92764" y="147.454528"/>
     <use style="fill:#0000ff;stroke:#0000ff;" x="228.528" xlink:href="#mfbedb92764" y="172.139778"/>
     <use style="fill:#0000ff;stroke:#0000ff;" x="241.92" xlink:href="#mfbedb92764" y="204.628792"/>
     <use style="fill:#0000ff;stroke:#0000ff;" x="255.312" xlink:href="#mfbedb92764" y="251.352846"/>
     <use style="fill:#0000ff;stroke:#0000ff;" x="268.704" xlink:href="#mfbedb92764" y="315.518375"/>
     <use style="fill:#0000ff;stroke:#0000ff;" x="282.096" xlink:href="#mfbedb92764" y="391.043029"/>
     <use style="fill:#0000ff;stroke:#0000ff;" x="295.488" xlink:href="#mfbedb92764" y="441.457378"/>
     <use style="fill:#0000ff;stroke:#0000ff;" x="308.88" xlink:href="#mfbedb92764" y="459.931728"/>
     <use style="fill:#0000ff;stroke:#0000ff;" x="322.272" xlink:href="#mfbedb92764" y="461.684412"/>
     <use style="fill:#0000ff;stroke:#0000ff;" x="335.664" xlink:href="#mfbedb92764" y="470.005638"/>
     <use style="fill:#0000ff;stroke:#0000ff;" x="349.056" xlink:href="#mfbedb92764" y="474.412588"/>
     <use style="fill:#0000ff;stroke:#0000ff;" x="362.448" xlink:href="#mfbedb92764" y="473.35575"/>
     <use style="fill:#0000ff;stroke:#0000ff;" x="375.84" xlink:href="#mfbedb92764" y="478.280563"/>
     <use style="fill:#0000ff;stroke:#0000ff;" x="389.232" xlink:href="#mfbedb92764" y="478.606847"/>
     <use style="fill:#0000ff;stroke:#0000ff;" x="402.624" xlink:href="#mfbedb92764" y="477.604699"/>
     <use style="fill:#0000ff;stroke:#0000ff;" x="416.016" xlink:href="#mfbedb92764" y="483.373465"/>
     <use style="fill:#0000ff;stroke:#0000ff;" x="429.408" xlink:href="#mfbedb92764" y="483.421575"/>
     <use style="fill:#0000ff;stroke:#0000ff;" x="442.8" xlink:href="#mfbedb92764" y="486.720675"/>
     <use style="fill:#0000ff;stroke:#0000ff;" x="456.192" xlink:href="#mfbedb92764" y="484.04105"/>
     <use style="fill:#0000ff;stroke:#0000ff;" x="469.584" xlink:href="#mfbedb92764" y="490.259647"/>
     <use style="fill:#0000ff;stroke:#0000ff;" x="482.976" xlink:href="#mfbedb92764" y="491.239433"/>
     <use style="fill:#0000ff;stroke:#0000ff;" x="496.368" xlink:href="#mfbedb92764" y="490.995215"/>
     <use style="fill:#0000ff;stroke:#0000ff;" x="509.76" xlink:href="#mfbedb92764" y="493.096909"/>
     <use style="fill:#0000ff;stroke:#0000ff;" x="523.152" xlink:href="#mfbedb92764" y="496.40231"/>
     <use style="fill:#0000ff;stroke:#0000ff;" x="536.544" xlink:href="#mfbedb92764" y="495.598649"/>
     <use style="fill:#0000ff;stroke:#0000ff;" x="549.936" xlink:href="#mfbedb92764" y="497.456732"/>
     <use style="fill:#0000ff;stroke:#0000ff;" x="563.328" xlink:href="#mfbedb92764" y="493.075349"/>
     <use style="fill:#0000ff;stroke:#0000ff;" x="576.72" xlink:href="#mfbedb92764" y="498.676596"/>
     <use style="fill:#0000ff;stroke:#0000ff;" x="590.112" xlink:href="#mfbedb92764" y="500.768214"/>
     <use style="fill:#0000ff;stroke:#0000ff;" x="603.504" xlink:href="#mfbedb92764" y="498.679656"/>
     <use style="fill:#0000ff;stroke:#0000ff;" x="616.896" xlink:href="#mfbedb92764" y="502.385527"/>
     <use style="fill:#0000ff;stroke:#0000ff;" x="630.288" xlink:href="#mfbedb92764" y="500.843518"/>
     <use style="fill:#0000ff;stroke:#0000ff;" x="643.68" xlink:href="#mfbedb92764" y="504.429216"/>
     <use style="fill:#0000ff;stroke:#0000ff;" x="657.072" xlink:href="#mfbedb92764" y="505.25729"/>
     <use style="fill:#0000ff;stroke:#0000ff;" x="670.464" xlink:href="#mfbedb92764" y="504.631066"/>
     <use style="fill:#0000ff;stroke:#0000ff;" x="683.856" xlink:href="#mfbedb92764" y="506.277005"/>
     <use style="fill:#0000ff;stroke:#0000ff;" x="697.248" xlink:href="#mfbedb92764" y="505.483141"/>
     <use style="fill:#0000ff;stroke:#0000ff;" x="710.64" xlink:href="#mfbedb92764" y="508.134723"/>
     <use style="fill:#0000ff;stroke:#0000ff;" x="724.032" xlink:href="#mfbedb92764" y="508.998343"/>
     <use style="fill:#0000ff;stroke:#0000ff;" x="737.424" xlink:href="#mfbedb92764" y="510.675323"/>
     <use style="fill:#0000ff;stroke:#0000ff;" x="750.816" xlink:href="#mfbedb92764" y="509.652804"/>
     <use style="fill:#0000ff;stroke:#0000ff;" x="764.208" xlink:href="#mfbedb92764" y="512.64"/>
     <use style="fill:#0000ff;stroke:#0000ff;" x="777.6" xlink:href="#mfbedb92764" y="507.950209"/>
    </g>
   </g>
   <g id="PathCollection_3">
    <defs>
     <path d="M 0 3 
C 0.795609 3 1.55874 2.683901 2.12132 2.12132 
C 2.683901 1.55874 3 0.795609 3 0 
C 3 -0.795609 2.683901 -1.55874 2.12132 -2.12132 
C 1.55874 -2.683901 0.795609 -3 0 -3 
C -0.795609 -3 -1.55874 -2.683901 -2.12132 -2.12132 
C -2.683901 -1.55874 -3 -0.795609 -3 0 
C -3 0.795609 -2.683901 1.55874 -2.12132 2.12132 
C -1.55874 2.683901 -0.795609 3 0 3 
z
" id="m030e4eea25" style="stroke:#008000;"/>
    </defs>
    <g clip-path="url(#p2def864a19)">
     <use style="fill:#008000;stroke:#008000;" x="121.392" xlink:href="#m030e4eea25" y="69.12"/>
     <use style="fill:#008000;stroke:#008000;" x="134.784" xlink:href="#m030e4eea25" y="77.764591"/>
     <use style="fill:#008000;stroke:#008000;" x="148.176" xlink:href="#m030e4eea25" y="79.509335"/>
     <use style="fill:#008000;stroke:#008000;" x="161.568" xlink:href="#m030e4eea25" y="85.94271"/>
     <use style="fill:#008000;stroke:#008000;" x="174.96" xlink:href="#m030e4eea25" y="90.242135"/>
     <use style="fill:#008000;stroke:#008000;" x="188.352" xlink:href="#m030e4eea25" y="97.182248"/>
     <use style="fill:#008000;stroke:#008000;" x="201.744" xlink:href="#m030e4eea25" y="103.435184"/>
     <use style="fill:#008000;stroke:#008000;" x="215.136" xlink:href="#m030e4eea25" y="109.245274"/>
     <use style="fill:#008000;stroke:#008000;" x="228.528" xlink:href="#m030e4eea25" y="119.422751"/>
     <use style="fill:#008000;stroke:#008000;" x="241.92" xlink:href="#m030e4eea25" y="128.752974"/>
     <use style="fill:#008000;stroke:#008000;" x="255.312" xlink:href="#m030e4eea25" y="140.710861"/>
     <use style="fill:#008000;stroke:#008000;" x="268.704" xlink:href="#m030e4eea25" y="147.777597"/>
     <use style="fill:#008000;stroke:#008000;" x="282.096" xlink:href="#m030e4eea25" y="158.693539"/>
     <use style="fill:#008000;stroke:#008000;" x="295.488" xlink:href="#m030e4eea25" y="178.054255"/>
     <use style="fill:#008000;stroke:#008000;" x="308.88" xlink:href="#m030e4eea25" y="197.589091"/>
     <use style="fill:#008000;stroke:#008000;" x="322.272" xlink:href="#m030e4eea25" y="215.173505"/>
     <use style="fill:#008000;stroke:#008000;" x="335.664" xlink:href="#m030e4eea25" y="249.146137"/>
     <use style="fill:#008000;stroke:#008000;" x="349.056" xlink:href="#m030e4eea25" y="293.448916"/>
     <use style="fill:#008000;stroke:#008000;" x="362.448" xlink:href="#m030e4eea25" y="339.37789"/>
     <use style="fill:#008000;stroke:#008000;" x="375.84" xlink:href="#m030e4eea25" y="371.160053"/>
     <use style="fill:#008000;stroke:#008000;" x="389.232" xlink:href="#m030e4eea25" y="404.35908"/>
     <use style="fill:#008000;stroke:#008000;" x="402.624" xlink:href="#m030e4eea25" y="411.41876"/>
     <use style="fill:#008000;stroke:#008000;" x="416.016" xlink:href="#m030e4eea25" y="431.534791"/>
     <use style="fill:#008000;stroke:#008000;" x="429.408" xlink:href="#m030e4eea25" y="441.076977"/>
     <use style="fill:#008000;stroke:#008000;" x="442.8" xlink:href="#m030e4eea25" y="443.435616"/>
     <use style="fill:#008000;stroke:#008000;" x="456.192" xlink:href="#m030e4eea25" y="448.20311"/>
     <use style="fill:#008000;stroke:#008000;" x="469.584" xlink:href="#m030e4eea25" y="459.81841"/>
     <use style="fill:#008000;stroke:#008000;" x="482.976" xlink:href="#m030e4eea25" y="456.796097"/>
     <use style="fill:#008000;stroke:#008000;" x="496.368" xlink:href="#m030e4eea25" y="464.868814"/>
     <use style="fill:#008000;stroke:#008000;" x="509.76" xlink:href="#m030e4eea25" y="463.30809"/>
     <use style="fill:#008000;stroke:#008000;" x="523.152" xlink:href="#m030e4eea25" y="467.295573"/>
     <use style="fill:#008000;stroke:#008000;" x="536.544" xlink:href="#m030e4eea25" y="476.780951"/>
     <use style="fill:#008000;stroke:#008000;" x="549.936" xlink:href="#m030e4eea25" y="477.266784"/>
     <use style="fill:#008000;stroke:#008000;" x="563.328" xlink:href="#m030e4eea25" y="479.47527"/>
     <use style="fill:#008000;stroke:#008000;" x="576.72" xlink:href="#m030e4eea25" y="480.742273"/>
     <use style="fill:#008000;stroke:#008000;" x="590.112" xlink:href="#m030e4eea25" y="485.221767"/>
     <use style="fill:#008000;stroke:#008000;" x="603.504" xlink:href="#m030e4eea25" y="491.390777"/>
     <use style="fill:#008000;stroke:#008000;" x="616.896" xlink:href="#m030e4eea25" y="490.57789"/>
     <use style="fill:#008000;stroke:#008000;" x="630.288" xlink:href="#m030e4eea25" y="489.746065"/>
     <use style="fill:#008000;stroke:#008000;" x="643.68" xlink:href="#m030e4eea25" y="496.934334"/>
     <use style="fill:#008000;stroke:#008000;" x="657.072" xlink:href="#m030e4eea25" y="500.679576"/>
     <use style="fill:#008000;stroke:#008000;" x="670.464" xlink:href="#m030e4eea25" y="503.619103"/>
     <use style="fill:#008000;stroke:#008000;" x="683.856" xlink:href="#m030e4eea25" y="499.585922"/>
     <use style="fill:#008000;stroke:#008000;" x="697.248" xlink:href="#m030e4eea25" y="505.572395"/>
     <use style="fill:#008000;stroke:#008000;" x="710.64" xlink:href="#m030e4eea25" y="504.691239"/>
     <use style="fill:#008000;stroke:#008000;" x="724.032" xlink:href="#m030e4eea25" y="506.383772"/>
     <use style="fill:#008000;stroke:#008000;" x="737.424" xlink:href="#m030e4eea25" y="511.79243"/>
     <use style="fill:#008000;stroke:#008000;" x="750.816" xlink:href="#m030e4eea25" y="510.105741"/>
     <use style="fill:#008000;stroke:#008000;" x="764.208" xlink:href="#m030e4eea25" y="512.64"/>
     <use style="fill:#008000;stroke:#008000;" x="777.6" xlink:href="#m030e4eea25" y="511.937746"/>
    </g>
   </g>
   <g id="PathCollection_4">
    <defs>
     <path d="M 0 3 
C 0.795609 3 1.55874 2.683901 2.12132 2.12132 
C 2.683901 1.55874 3 0.795609 3 0 
C 3 -0.795609 2.683901 -1.55874 2.12132 -2.12132 
C 1.55874 -2.683901 0.795609 -3 0 -3 
C -0.795609 -3 -1.55874 -2.683901 -2.12132 -2.12132 
C -2.683901 -1.55874 -3 -0.795609 -3 0 
C -3 0.795609 -2.683901 1.55874 -2.12132 2.12132 
C -1.55874 2.683901 -0.795609 3 0 3 
z
" id="m3496818bf5" style="stroke:#bfbf00;"/>
    </defs>
    <g clip-path="url(#p2def864a19)">
     <use style="fill:#bfbf00;stroke:#bfbf00;" x="121.392" xlink:href="#m3496818bf5" y="69.12"/>
     <use style="fill:#bfbf00;stroke:#bfbf00;" x="134.784" xlink:href="#m3496818bf5" y="74.457802"/>
     <use style="fill:#bfbf00;stroke:#bfbf00;" x="148.176" xlink:href="#m3496818bf5" y="73.573283"/>
     <use style="fill:#bfbf00;stroke:#bfbf00;" x="161.568" xlink:href="#m3496818bf5" y="74.236622"/>
     <use style="fill:#bfbf00;stroke:#bfbf00;" x="174.96" xlink:href="#m3496818bf5" y="77.10454"/>
     <use style="fill:#bfbf00;stroke:#bfbf00;" x="188.352" xlink:href="#m3496818bf5" y="80.877987"/>
     <use style="fill:#bfbf00;stroke:#bfbf00;" x="201.744" xlink:href="#m3496818bf5" y="82.622857"/>
     <use style="fill:#bfbf00;stroke:#bfbf00;" x="215.136" xlink:href="#m3496818bf5" y="86.618436"/>
     <use style="fill:#bfbf00;stroke:#bfbf00;" x="228.528" xlink:href="#m3496818bf5" y="89.286836"/>
     <use style="fill:#bfbf00;stroke:#bfbf00;" x="241.92" xlink:href="#m3496818bf5" y="91.315263"/>
     <use style="fill:#bfbf00;stroke:#bfbf00;" x="255.312" xlink:href="#m3496818bf5" y="94.580613"/>
     <use style="fill:#bfbf00;stroke:#bfbf00;" x="268.704" xlink:href="#m3496818bf5" y="96.961243"/>
     <use style="fill:#bfbf00;stroke:#bfbf00;" x="282.096" xlink:href="#m3496818bf5" y="101.659875"/>
     <use style="fill:#bfbf00;stroke:#bfbf00;" x="295.488" xlink:href="#m3496818bf5" y="106.520769"/>
     <use style="fill:#bfbf00;stroke:#bfbf00;" x="308.88" xlink:href="#m3496818bf5" y="110.222462"/>
     <use style="fill:#bfbf00;stroke:#bfbf00;" x="322.272" xlink:href="#m3496818bf5" y="115.792325"/>
     <use style="fill:#bfbf00;stroke:#bfbf00;" x="335.664" xlink:href="#m3496818bf5" y="117.51433"/>
     <use style="fill:#bfbf00;stroke:#bfbf00;" x="349.056" xlink:href="#m3496818bf5" y="121.092821"/>
     <use style="fill:#bfbf00;stroke:#bfbf00;" x="362.448" xlink:href="#m3496818bf5" y="125.556484"/>
     <use style="fill:#bfbf00;stroke:#bfbf00;" x="375.84" xlink:href="#m3496818bf5" y="134.328868"/>
     <use style="fill:#bfbf00;stroke:#bfbf00;" x="389.232" xlink:href="#m3496818bf5" y="139.043947"/>
     <use style="fill:#bfbf00;stroke:#bfbf00;" x="402.624" xlink:href="#m3496818bf5" y="141.834595"/>
     <use style="fill:#bfbf00;stroke:#bfbf00;" x="416.016" xlink:href="#m3496818bf5" y="150.662237"/>
     <use style="fill:#bfbf00;stroke:#bfbf00;" x="429.408" xlink:href="#m3496818bf5" y="156.616094"/>
     <use style="fill:#bfbf00;stroke:#bfbf00;" x="442.8" xlink:href="#m3496818bf5" y="163.378754"/>
     <use style="fill:#bfbf00;stroke:#bfbf00;" x="456.192" xlink:href="#m3496818bf5" y="171.71645"/>
     <use style="fill:#bfbf00;stroke:#bfbf00;" x="469.584" xlink:href="#m3496818bf5" y="179.77084"/>
     <use style="fill:#bfbf00;stroke:#bfbf00;" x="482.976" xlink:href="#m3496818bf5" y="192.411039"/>
     <use style="fill:#bfbf00;stroke:#bfbf00;" x="496.368" xlink:href="#m3496818bf5" y="199.091741"/>
     <use style="fill:#bfbf00;stroke:#bfbf00;" x="509.76" xlink:href="#m3496818bf5" y="208.126473"/>
     <use style="fill:#bfbf00;stroke:#bfbf00;" x="523.152" xlink:href="#m3496818bf5" y="217.998464"/>
     <use style="fill:#bfbf00;stroke:#bfbf00;" x="536.544" xlink:href="#m3496818bf5" y="233.295606"/>
     <use style="fill:#bfbf00;stroke:#bfbf00;" x="549.936" xlink:href="#m3496818bf5" y="244.886166"/>
     <use style="fill:#bfbf00;stroke:#bfbf00;" x="563.328" xlink:href="#m3496818bf5" y="259.339104"/>
     <use style="fill:#bfbf00;stroke:#bfbf00;" x="576.72" xlink:href="#m3496818bf5" y="277.025576"/>
     <use style="fill:#bfbf00;stroke:#bfbf00;" x="590.112" xlink:href="#m3496818bf5" y="292.482198"/>
     <use style="fill:#bfbf00;stroke:#bfbf00;" x="603.504" xlink:href="#m3496818bf5" y="309.349562"/>
     <use style="fill:#bfbf00;stroke:#bfbf00;" x="616.896" xlink:href="#m3496818bf5" y="332.9756"/>
     <use style="fill:#bfbf00;stroke:#bfbf00;" x="630.288" xlink:href="#m3496818bf5" y="353.476914"/>
     <use style="fill:#bfbf00;stroke:#bfbf00;" x="643.68" xlink:href="#m3496818bf5" y="399.651722"/>
     <use style="fill:#bfbf00;stroke:#bfbf00;" x="657.072" xlink:href="#m3496818bf5" y="416.555277"/>
     <use style="fill:#bfbf00;stroke:#bfbf00;" x="670.464" xlink:href="#m3496818bf5" y="439.989694"/>
     <use style="fill:#bfbf00;stroke:#bfbf00;" x="683.856" xlink:href="#m3496818bf5" y="467.506113"/>
     <use style="fill:#bfbf00;stroke:#bfbf00;" x="697.248" xlink:href="#m3496818bf5" y="479.24057"/>
     <use style="fill:#bfbf00;stroke:#bfbf00;" x="710.64" xlink:href="#m3496818bf5" y="493.871064"/>
     <use style="fill:#bfbf00;stroke:#bfbf00;" x="724.032" xlink:href="#m3496818bf5" y="500.243952"/>
     <use style="fill:#bfbf00;stroke:#bfbf00;" x="737.424" xlink:href="#m3496818bf5" y="505.980088"/>
     <use style="fill:#bfbf00;stroke:#bfbf00;" x="750.816" xlink:href="#m3496818bf5" y="510.92348"/>
     <use style="fill:#bfbf00;stroke:#bfbf00;" x="764.208" xlink:href="#m3496818bf5" y="510.324048"/>
     <use style="fill:#bfbf00;stroke:#bfbf00;" x="777.6" xlink:href="#m3496818bf5" y="512.64"/>
    </g>
   </g>
   <g id="PathCollection_5">
    <defs>
     <path d="M 0 3 
C 0.795609 3 1.55874 2.683901 2.12132 2.12132 
C 2.683901 1.55874 3 0.795609 3 0 
C 3 -0.795609 2.683901 -1.55874 2.12132 -2.12132 
C 1.55874 -2.683901 0.795609 -3 0 -3 
C -0.795609 -3 -1.55874 -2.683901 -2.12132 -2.12132 
C -2.683901 -1.55874 -3 -0.795609 -3 0 
C -3 0.795609 -2.683901 1.55874 -2.12132 2.12132 
C -1.55874 2.683901 -0.795609 3 0 3 
z
" id="mefe572c7dd" style="stroke:#ff0000;"/>
    </defs>
    <g clip-path="url(#p2def864a19)">
     <use style="fill:#ff0000;stroke:#ff0000;" x="121.392" xlink:href="#mefe572c7dd" y="69.12"/>
     <use style="fill:#ff0000;stroke:#ff0000;" x="134.784" xlink:href="#mefe572c7dd" y="73.294767"/>
     <use style="fill:#ff0000;stroke:#ff0000;" x="148.176" xlink:href="#mefe572c7dd" y="84.137949"/>
     <use style="fill:#ff0000;stroke:#ff0000;" x="161.568" xlink:href="#mefe572c7dd" y="83.407386"/>
     <use style="fill:#ff0000;stroke:#ff0000;" x="174.96" xlink:href="#mefe572c7dd" y="88.222071"/>
     <use style="fill:#ff0000;stroke:#ff0000;" x="188.352" xlink:href="#mefe572c7dd" y="86.777852"/>
     <use style="fill:#ff0000;stroke:#ff0000;" x="201.744" xlink:href="#mefe572c7dd" y="90.73552"/>
     <use style="fill:#ff0000;stroke:#ff0000;" x="215.136" xlink:href="#mefe572c7dd" y="94.566734"/>
     <use style="fill:#ff0000;stroke:#ff0000;" x="228.528" xlink:href="#mefe572c7dd" y="88.786515"/>
     <use style="fill:#ff0000;stroke:#ff0000;" x="241.92" xlink:href="#mefe572c7dd" y="98.706336"/>
     <use style="fill:#ff0000;stroke:#ff0000;" x="255.312" xlink:href="#mefe572c7dd" y="110.033667"/>
     <use style="fill:#ff0000;stroke:#ff0000;" x="268.704" xlink:href="#mefe572c7dd" y="107.469496"/>
     <use style="fill:#ff0000;stroke:#ff0000;" x="282.096" xlink:href="#mefe572c7dd" y="114.010107"/>
     <use style="fill:#ff0000;stroke:#ff0000;" x="295.488" xlink:href="#mefe572c7dd" y="112.18042"/>
     <use style="fill:#ff0000;stroke:#ff0000;" x="308.88" xlink:href="#mefe572c7dd" y="123.975444"/>
     <use style="fill:#ff0000;stroke:#ff0000;" x="322.272" xlink:href="#mefe572c7dd" y="121.905964"/>
     <use style="fill:#ff0000;stroke:#ff0000;" x="335.664" xlink:href="#mefe572c7dd" y="133.555183"/>
     <use style="fill:#ff0000;stroke:#ff0000;" x="349.056" xlink:href="#mefe572c7dd" y="140.323502"/>
     <use style="fill:#ff0000;stroke:#ff0000;" x="362.448" xlink:href="#mefe572c7dd" y="147.284039"/>
     <use style="fill:#ff0000;stroke:#ff0000;" x="375.84" xlink:href="#mefe572c7dd" y="151.06916"/>
     <use style="fill:#ff0000;stroke:#ff0000;" x="389.232" xlink:href="#mefe572c7dd" y="160.050061"/>
     <use style="fill:#ff0000;stroke:#ff0000;" x="402.624" xlink:href="#mefe572c7dd" y="166.578394"/>
     <use style="fill:#ff0000;stroke:#ff0000;" x="416.016" xlink:href="#mefe572c7dd" y="166.27605"/>
     <use style="fill:#ff0000;stroke:#ff0000;" x="429.408" xlink:href="#mefe572c7dd" y="176.281052"/>
     <use style="fill:#ff0000;stroke:#ff0000;" x="442.8" xlink:href="#mefe572c7dd" y="182.908709"/>
     <use style="fill:#ff0000;stroke:#ff0000;" x="456.192" xlink:href="#mefe572c7dd" y="204.079455"/>
     <use style="fill:#ff0000;stroke:#ff0000;" x="469.584" xlink:href="#mefe572c7dd" y="214.451957"/>
     <use style="fill:#ff0000;stroke:#ff0000;" x="482.976" xlink:href="#mefe572c7dd" y="221.174888"/>
     <use style="fill:#ff0000;stroke:#ff0000;" x="496.368" xlink:href="#mefe572c7dd" y="230.427565"/>
     <use style="fill:#ff0000;stroke:#ff0000;" x="509.76" xlink:href="#mefe572c7dd" y="241.159787"/>
     <use style="fill:#ff0000;stroke:#ff0000;" x="523.152" xlink:href="#mefe572c7dd" y="267.919754"/>
     <use style="fill:#ff0000;stroke:#ff0000;" x="536.544" xlink:href="#mefe572c7dd" y="270.104276"/>
     <use style="fill:#ff0000;stroke:#ff0000;" x="549.936" xlink:href="#mefe572c7dd" y="288.637306"/>
     <use style="fill:#ff0000;stroke:#ff0000;" x="563.328" xlink:href="#mefe572c7dd" y="304.272672"/>
     <use style="fill:#ff0000;stroke:#ff0000;" x="576.72" xlink:href="#mefe572c7dd" y="315.228004"/>
     <use style="fill:#ff0000;stroke:#ff0000;" x="590.112" xlink:href="#mefe572c7dd" y="340.580107"/>
     <use style="fill:#ff0000;stroke:#ff0000;" x="603.504" xlink:href="#mefe572c7dd" y="360.159899"/>
     <use style="fill:#ff0000;stroke:#ff0000;" x="616.896" xlink:href="#mefe572c7dd" y="380.629268"/>
     <use style="fill:#ff0000;stroke:#ff0000;" x="630.288" xlink:href="#mefe572c7dd" y="398.866961"/>
     <use style="fill:#ff0000;stroke:#ff0000;" x="643.68" xlink:href="#mefe572c7dd" y="430.773659"/>
     <use style="fill:#ff0000;stroke:#ff0000;" x="657.072" xlink:href="#mefe572c7dd" y="428.592544"/>
     <use style="fill:#ff0000;stroke:#ff0000;" x="670.464" xlink:href="#mefe572c7dd" y="466.29865"/>
     <use style="fill:#ff0000;stroke:#ff0000;" x="683.856" xlink:href="#mefe572c7dd" y="460.347089"/>
     <use style="fill:#ff0000;stroke:#ff0000;" x="697.248" xlink:href="#mefe572c7dd" y="487.029751"/>
     <use style="fill:#ff0000;stroke:#ff0000;" x="710.64" xlink:href="#mefe572c7dd" y="478.865445"/>
     <use style="fill:#ff0000;stroke:#ff0000;" x="724.032" xlink:href="#mefe572c7dd" y="488.537132"/>
     <use style="fill:#ff0000;stroke:#ff0000;" x="737.424" xlink:href="#mefe572c7dd" y="509.034981"/>
     <use style="fill:#ff0000;stroke:#ff0000;" x="750.816" xlink:href="#mefe572c7dd" y="512.286242"/>
     <use style="fill:#ff0000;stroke:#ff0000;" x="764.208" xlink:href="#mefe572c7dd" y="512.64"/>
     <use style="fill:#ff0000;stroke:#ff0000;" x="777.6" xlink:href="#mefe572c7dd" y="500.405877"/>
    </g>
   </g>
   <g id="matplotlib.axis_1">
    <g id="xtick_1">
     <g id="line2d_1">
      <defs>
       <path d="M 0 0 
L 0 3.5 
" id="m5cee8bf6c0" style="stroke:#000000;stroke-width:0.8;"/>
      </defs>
      <g>
       <use style="stroke:#000000;stroke-width:0.8;" x="108" xlink:href="#m5cee8bf6c0" y="512.64"/>
      </g>
     </g>
     <g id="text_1">
      <!-- 0 -->
      <g transform="translate(101.6375 534.836875)scale(0.2 -0.2)">
       <defs>
        <path d="M 31.78125 66.40625 
Q 24.171875 66.40625 20.328125 58.90625 
Q 16.5 51.421875 16.5 36.375 
Q 16.5 21.390625 20.328125 13.890625 
Q 24.171875 6.390625 31.78125 6.390625 
Q 39.453125 6.390625 43.28125 13.890625 
Q 47.125 21.390625 47.125 36.375 
Q 47.125 51.421875 43.28125 58.90625 
Q 39.453125 66.40625 31.78125 66.40625 
z
M 31.78125 74.21875 
Q 44.046875 74.21875 50.515625 64.515625 
Q 56.984375 54.828125 56.984375 36.375 
Q 56.984375 17.96875 50.515625 8.265625 
Q 44.046875 -1.421875 31.78125 -1.421875 
Q 19.53125 -1.421875 13.0625 8.265625 
Q 6.59375 17.96875 6.59375 36.375 
Q 6.59375 54.828125 13.0625 64.515625 
Q 19.53125 74.21875 31.78125 74.21875 
z
" id="DejaVuSans-48"/>
       </defs>
       <use xlink:href="#DejaVuSans-48"/>
      </g>
     </g>
    </g>
    <g id="xtick_2">
     <g id="line2d_2">
      <g>
       <use style="stroke:#000000;stroke-width:0.8;" x="241.92" xlink:href="#m5cee8bf6c0" y="512.64"/>
      </g>
     </g>
     <g id="text_2">
      <!-- 10 -->
      <g transform="translate(229.195 534.836875)scale(0.2 -0.2)">
       <defs>
        <path d="M 12.40625 8.296875 
L 28.515625 8.296875 
L 28.515625 63.921875 
L 10.984375 60.40625 
L 10.984375 69.390625 
L 28.421875 72.90625 
L 38.28125 72.90625 
L 38.28125 8.296875 
L 54.390625 8.296875 
L 54.390625 0 
L 12.40625 0 
z
" id="DejaVuSans-49"/>
       </defs>
       <use xlink:href="#DejaVuSans-49"/>
       <use x="63.623047" xlink:href="#DejaVuSans-48"/>
      </g>
     </g>
    </g>
    <g id="xtick_3">
     <g id="line2d_3">
      <g>
       <use style="stroke:#000000;stroke-width:0.8;" x="375.84" xlink:href="#m5cee8bf6c0" y="512.64"/>
      </g>
     </g>
     <g id="text_3">
      <!-- 20 -->
      <g transform="translate(363.115 534.836875)scale(0.2 -0.2)">
       <defs>
        <path d="M 19.1875 8.296875 
L 53.609375 8.296875 
L 53.609375 0 
L 7.328125 0 
L 7.328125 8.296875 
Q 12.9375 14.109375 22.625 23.890625 
Q 32.328125 33.6875 34.8125 36.53125 
Q 39.546875 41.84375 41.421875 45.53125 
Q 43.3125 49.21875 43.3125 52.78125 
Q 43.3125 58.59375 39.234375 62.25 
Q 35.15625 65.921875 28.609375 65.921875 
Q 23.96875 65.921875 18.8125 64.3125 
Q 13.671875 62.703125 7.8125 59.421875 
L 7.8125 69.390625 
Q 13.765625 71.78125 18.9375 73 
Q 24.125 74.21875 28.421875 74.21875 
Q 39.75 74.21875 46.484375 68.546875 
Q 53.21875 62.890625 53.21875 53.421875 
Q 53.21875 48.921875 51.53125 44.890625 
Q 49.859375 40.875 45.40625 35.40625 
Q 44.1875 33.984375 37.640625 27.21875 
Q 31.109375 20.453125 19.1875 8.296875 
z
" id="DejaVuSans-50"/>
       </defs>
       <use xlink:href="#DejaVuSans-50"/>
       <use x="63.623047" xlink:href="#DejaVuSans-48"/>
      </g>
     </g>
    </g>
    <g id="xtick_4">
     <g id="line2d_4">
      <g>
       <use style="stroke:#000000;stroke-width:0.8;" x="509.76" xlink:href="#m5cee8bf6c0" y="512.64"/>
      </g>
     </g>
     <g id="text_4">
      <!-- 30 -->
      <g transform="translate(497.035 534.836875)scale(0.2 -0.2)">
       <defs>
        <path d="M 40.578125 39.3125 
Q 47.65625 37.796875 51.625 33 
Q 55.609375 28.21875 55.609375 21.1875 
Q 55.609375 10.40625 48.1875 4.484375 
Q 40.765625 -1.421875 27.09375 -1.421875 
Q 22.515625 -1.421875 17.65625 -0.515625 
Q 12.796875 0.390625 7.625 2.203125 
L 7.625 11.71875 
Q 11.71875 9.328125 16.59375 8.109375 
Q 21.484375 6.890625 26.8125 6.890625 
Q 36.078125 6.890625 40.9375 10.546875 
Q 45.796875 14.203125 45.796875 21.1875 
Q 45.796875 27.640625 41.28125 31.265625 
Q 36.765625 34.90625 28.71875 34.90625 
L 20.21875 34.90625 
L 20.21875 43.015625 
L 29.109375 43.015625 
Q 36.375 43.015625 40.234375 45.921875 
Q 44.09375 48.828125 44.09375 54.296875 
Q 44.09375 59.90625 40.109375 62.90625 
Q 36.140625 65.921875 28.71875 65.921875 
Q 24.65625 65.921875 20.015625 65.03125 
Q 15.375 64.15625 9.8125 62.3125 
L 9.8125 71.09375 
Q 15.4375 72.65625 20.34375 73.4375 
Q 25.25 74.21875 29.59375 74.21875 
Q 40.828125 74.21875 47.359375 69.109375 
Q 53.90625 64.015625 53.90625 55.328125 
Q 53.90625 49.265625 50.4375 45.09375 
Q 46.96875 40.921875 40.578125 39.3125 
z
" id="DejaVuSans-51"/>
       </defs>
       <use xlink:href="#DejaVuSans-51"/>
       <use x="63.623047" xlink:href="#DejaVuSans-48"/>
      </g>
     </g>
    </g>
    <g id="xtick_5">
     <g id="line2d_5">
      <g>
       <use style="stroke:#000000;stroke-width:0.8;" x="643.68" xlink:href="#m5cee8bf6c0" y="512.64"/>
      </g>
     </g>
     <g id="text_5">
      <!-- 40 -->
      <g transform="translate(630.955 534.836875)scale(0.2 -0.2)">
       <defs>
        <path d="M 37.796875 64.3125 
L 12.890625 25.390625 
L 37.796875 25.390625 
z
M 35.203125 72.90625 
L 47.609375 72.90625 
L 47.609375 25.390625 
L 58.015625 25.390625 
L 58.015625 17.1875 
L 47.609375 17.1875 
L 47.609375 0 
L 37.796875 0 
L 37.796875 17.1875 
L 4.890625 17.1875 
L 4.890625 26.703125 
z
" id="DejaVuSans-52"/>
       </defs>
       <use xlink:href="#DejaVuSans-52"/>
       <use x="63.623047" xlink:href="#DejaVuSans-48"/>
      </g>
     </g>
    </g>
    <g id="xtick_6">
     <g id="line2d_6">
      <g>
       <use style="stroke:#000000;stroke-width:0.8;" x="777.6" xlink:href="#m5cee8bf6c0" y="512.64"/>
      </g>
     </g>
     <g id="text_6">
      <!-- 50 -->
      <g transform="translate(764.875 534.836875)scale(0.2 -0.2)">
       <defs>
        <path d="M 10.796875 72.90625 
L 49.515625 72.90625 
L 49.515625 64.59375 
L 19.828125 64.59375 
L 19.828125 46.734375 
Q 21.96875 47.46875 24.109375 47.828125 
Q 26.265625 48.1875 28.421875 48.1875 
Q 40.625 48.1875 47.75 41.5 
Q 54.890625 34.8125 54.890625 23.390625 
Q 54.890625 11.625 47.5625 5.09375 
Q 40.234375 -1.421875 26.90625 -1.421875 
Q 22.3125 -1.421875 17.546875 -0.640625 
Q 12.796875 0.140625 7.71875 1.703125 
L 7.71875 11.625 
Q 12.109375 9.234375 16.796875 8.0625 
Q 21.484375 6.890625 26.703125 6.890625 
Q 35.15625 6.890625 40.078125 11.328125 
Q 45.015625 15.765625 45.015625 23.390625 
Q 45.015625 31 40.078125 35.4375 
Q 35.15625 39.890625 26.703125 39.890625 
Q 22.75 39.890625 18.8125 39.015625 
Q 14.890625 38.140625 10.796875 36.28125 
z
" id="DejaVuSans-53"/>
       </defs>
       <use xlink:href="#DejaVuSans-53"/>
       <use x="63.623047" xlink:href="#DejaVuSans-48"/>
      </g>
     </g>
    </g>
    <g id="text_7">
     <!-- Iterations -->
     <g transform="translate(395.173437 558.193125)scale(0.2 -0.2)">
      <defs>
       <path d="M 9.8125 72.90625 
L 19.671875 72.90625 
L 19.671875 0 
L 9.8125 0 
z
" id="DejaVuSans-73"/>
       <path d="M 18.3125 70.21875 
L 18.3125 54.6875 
L 36.8125 54.6875 
L 36.8125 47.703125 
L 18.3125 47.703125 
L 18.3125 18.015625 
Q 18.3125 11.328125 20.140625 9.421875 
Q 21.96875 7.515625 27.59375 7.515625 
L 36.8125 7.515625 
L 36.8125 0 
L 27.59375 0 
Q 17.1875 0 13.234375 3.875 
Q 9.28125 7.765625 9.28125 18.015625 
L 9.28125 47.703125 
L 2.6875 47.703125 
L 2.6875 54.6875 
L 9.28125 54.6875 
L 9.28125 70.21875 
z
" id="DejaVuSans-116"/>
       <path d="M 56.203125 29.59375 
L 56.203125 25.203125 
L 14.890625 25.203125 
Q 15.484375 15.921875 20.484375 11.0625 
Q 25.484375 6.203125 34.421875 6.203125 
Q 39.59375 6.203125 44.453125 7.46875 
Q 49.3125 8.734375 54.109375 11.28125 
L 54.109375 2.78125 
Q 49.265625 0.734375 44.1875 -0.34375 
Q 39.109375 -1.421875 33.890625 -1.421875 
Q 20.796875 -1.421875 13.15625 6.1875 
Q 5.515625 13.8125 5.515625 26.8125 
Q 5.515625 40.234375 12.765625 48.109375 
Q 20.015625 56 32.328125 56 
Q 43.359375 56 49.78125 48.890625 
Q 56.203125 41.796875 56.203125 29.59375 
z
M 47.21875 32.234375 
Q 47.125 39.59375 43.09375 43.984375 
Q 39.0625 48.390625 32.421875 48.390625 
Q 24.90625 48.390625 20.390625 44.140625 
Q 15.875 39.890625 15.1875 32.171875 
z
" id="DejaVuSans-101"/>
       <path d="M 41.109375 46.296875 
Q 39.59375 47.171875 37.8125 47.578125 
Q 36.03125 48 33.890625 48 
Q 26.265625 48 22.1875 43.046875 
Q 18.109375 38.09375 18.109375 28.8125 
L 18.109375 0 
L 9.078125 0 
L 9.078125 54.6875 
L 18.109375 54.6875 
L 18.109375 46.1875 
Q 20.953125 51.171875 25.484375 53.578125 
Q 30.03125 56 36.53125 56 
Q 37.453125 56 38.578125 55.875 
Q 39.703125 55.765625 41.0625 55.515625 
z
" id="DejaVuSans-114"/>
       <path d="M 34.28125 27.484375 
Q 23.390625 27.484375 19.1875 25 
Q 14.984375 22.515625 14.984375 16.5 
Q 14.984375 11.71875 18.140625 8.90625 
Q 21.296875 6.109375 26.703125 6.109375 
Q 34.1875 6.109375 38.703125 11.40625 
Q 43.21875 16.703125 43.21875 25.484375 
L 43.21875 27.484375 
z
M 52.203125 31.203125 
L 52.203125 0 
L 43.21875 0 
L 43.21875 8.296875 
Q 40.140625 3.328125 35.546875 0.953125 
Q 30.953125 -1.421875 24.3125 -1.421875 
Q 15.921875 -1.421875 10.953125 3.296875 
Q 6 8.015625 6 15.921875 
Q 6 25.140625 12.171875 29.828125 
Q 18.359375 34.515625 30.609375 34.515625 
L 43.21875 34.515625 
L 43.21875 35.40625 
Q 43.21875 41.609375 39.140625 45 
Q 35.0625 48.390625 27.6875 48.390625 
Q 23 48.390625 18.546875 47.265625 
Q 14.109375 46.140625 10.015625 43.890625 
L 10.015625 52.203125 
Q 14.9375 54.109375 19.578125 55.046875 
Q 24.21875 56 28.609375 56 
Q 40.484375 56 46.34375 49.84375 
Q 52.203125 43.703125 52.203125 31.203125 
z
" id="DejaVuSans-97"/>
       <path d="M 9.421875 54.6875 
L 18.40625 54.6875 
L 18.40625 0 
L 9.421875 0 
z
M 9.421875 75.984375 
L 18.40625 75.984375 
L 18.40625 64.59375 
L 9.421875 64.59375 
z
" id="DejaVuSans-105"/>
       <path d="M 30.609375 48.390625 
Q 23.390625 48.390625 19.1875 42.75 
Q 14.984375 37.109375 14.984375 27.296875 
Q 14.984375 17.484375 19.15625 11.84375 
Q 23.34375 6.203125 30.609375 6.203125 
Q 37.796875 6.203125 41.984375 11.859375 
Q 46.1875 17.53125 46.1875 27.296875 
Q 46.1875 37.015625 41.984375 42.703125 
Q 37.796875 48.390625 30.609375 48.390625 
z
M 30.609375 56 
Q 42.328125 56 49.015625 48.375 
Q 55.71875 40.765625 55.71875 27.296875 
Q 55.71875 13.875 49.015625 6.21875 
Q 42.328125 -1.421875 30.609375 -1.421875 
Q 18.84375 -1.421875 12.171875 6.21875 
Q 5.515625 13.875 5.515625 27.296875 
Q 5.515625 40.765625 12.171875 48.375 
Q 18.84375 56 30.609375 56 
z
" id="DejaVuSans-111"/>
       <path d="M 54.890625 33.015625 
L 54.890625 0 
L 45.90625 0 
L 45.90625 32.71875 
Q 45.90625 40.484375 42.875 44.328125 
Q 39.84375 48.1875 33.796875 48.1875 
Q 26.515625 48.1875 22.3125 43.546875 
Q 18.109375 38.921875 18.109375 30.90625 
L 18.109375 0 
L 9.078125 0 
L 9.078125 54.6875 
L 18.109375 54.6875 
L 18.109375 46.1875 
Q 21.34375 51.125 25.703125 53.5625 
Q 30.078125 56 35.796875 56 
Q 45.21875 56 50.046875 50.171875 
Q 54.890625 44.34375 54.890625 33.015625 
z
" id="DejaVuSans-110"/>
       <path d="M 44.28125 53.078125 
L 44.28125 44.578125 
Q 40.484375 46.53125 36.375 47.5 
Q 32.28125 48.484375 27.875 48.484375 
Q 21.1875 48.484375 17.84375 46.4375 
Q 14.5 44.390625 14.5 40.28125 
Q 14.5 37.15625 16.890625 35.375 
Q 19.28125 33.59375 26.515625 31.984375 
L 29.59375 31.296875 
Q 39.15625 29.25 43.1875 25.515625 
Q 47.21875 21.78125 47.21875 15.09375 
Q 47.21875 7.46875 41.1875 3.015625 
Q 35.15625 -1.421875 24.609375 -1.421875 
Q 20.21875 -1.421875 15.453125 -0.5625 
Q 10.6875 0.296875 5.421875 2 
L 5.421875 11.28125 
Q 10.40625 8.6875 15.234375 7.390625 
Q 20.0625 6.109375 24.8125 6.109375 
Q 31.15625 6.109375 34.5625 8.28125 
Q 37.984375 10.453125 37.984375 14.40625 
Q 37.984375 18.0625 35.515625 20.015625 
Q 33.0625 21.96875 24.703125 23.78125 
L 21.578125 24.515625 
Q 13.234375 26.265625 9.515625 29.90625 
Q 5.8125 33.546875 5.8125 39.890625 
Q 5.8125 47.609375 11.28125 51.796875 
Q 16.75 56 26.8125 56 
Q 31.78125 56 36.171875 55.265625 
Q 40.578125 54.546875 44.28125 53.078125 
z
" id="DejaVuSans-115"/>
      </defs>
      <use xlink:href="#DejaVuSans-73"/>
      <use x="29.492188" xlink:href="#DejaVuSans-116"/>
      <use x="68.701172" xlink:href="#DejaVuSans-101"/>
      <use x="130.224609" xlink:href="#DejaVuSans-114"/>
      <use x="171.337891" xlink:href="#DejaVuSans-97"/>
      <use x="232.617188" xlink:href="#DejaVuSans-116"/>
      <use x="271.826172" xlink:href="#DejaVuSans-105"/>
      <use x="299.609375" xlink:href="#DejaVuSans-111"/>
      <use x="360.791016" xlink:href="#DejaVuSans-110"/>
      <use x="424.169922" xlink:href="#DejaVuSans-115"/>
     </g>
    </g>
   </g>
   <g id="matplotlib.axis_2">
    <g id="ytick_1">
     <g id="line2d_7">
      <defs>
       <path d="M 0 0 
L -3.5 0 
" id="m7a3c5cc8e0" style="stroke:#000000;stroke-width:0.8;"/>
      </defs>
      <g>
       <use style="stroke:#000000;stroke-width:0.8;" x="108" xlink:href="#m7a3c5cc8e0" y="512.64"/>
      </g>
     </g>
     <g id="text_8">
      <!-- 0.0 -->
      <g transform="translate(69.19375 520.238438)scale(0.2 -0.2)">
       <defs>
        <path d="M 10.6875 12.40625 
L 21 12.40625 
L 21 0 
L 10.6875 0 
z
" id="DejaVuSans-46"/>
       </defs>
       <use xlink:href="#DejaVuSans-48"/>
       <use x="63.623047" xlink:href="#DejaVuSans-46"/>
       <use x="95.410156" xlink:href="#DejaVuSans-48"/>
      </g>
     </g>
    </g>
    <g id="ytick_2">
     <g id="line2d_8">
      <g>
       <use style="stroke:#000000;stroke-width:0.8;" x="108" xlink:href="#m7a3c5cc8e0" y="290.88"/>
      </g>
     </g>
     <g id="text_9">
      <!-- 0.5 -->
      <g transform="translate(69.19375 298.478437)scale(0.2 -0.2)">
       <use xlink:href="#DejaVuSans-48"/>
       <use x="63.623047" xlink:href="#DejaVuSans-46"/>
       <use x="95.410156" xlink:href="#DejaVuSans-53"/>
      </g>
     </g>
    </g>
    <g id="ytick_3">
     <g id="line2d_9">
      <g>
       <use style="stroke:#000000;stroke-width:0.8;" x="108" xlink:href="#m7a3c5cc8e0" y="69.12"/>
      </g>
     </g>
     <g id="text_10">
      <!-- 1.0 -->
      <g transform="translate(69.19375 76.718437)scale(0.2 -0.2)">
       <use xlink:href="#DejaVuSans-49"/>
       <use x="63.623047" xlink:href="#DejaVuSans-46"/>
       <use x="95.410156" xlink:href="#DejaVuSans-48"/>
      </g>
     </g>
    </g>
    <g id="text_11">
     <!-- RER -->
     <g transform="translate(61.034375 311.095625)rotate(-90)scale(0.2 -0.2)">
      <defs>
       <path d="M 44.390625 34.1875 
Q 47.5625 33.109375 50.5625 29.59375 
Q 53.5625 26.078125 56.59375 19.921875 
L 66.609375 0 
L 56 0 
L 46.6875 18.703125 
Q 43.0625 26.03125 39.671875 28.421875 
Q 36.28125 30.8125 30.421875 30.8125 
L 19.671875 30.8125 
L 19.671875 0 
L 9.8125 0 
L 9.8125 72.90625 
L 32.078125 72.90625 
Q 44.578125 72.90625 50.734375 67.671875 
Q 56.890625 62.453125 56.890625 51.90625 
Q 56.890625 45.015625 53.6875 40.46875 
Q 50.484375 35.9375 44.390625 34.1875 
z
M 19.671875 64.796875 
L 19.671875 38.921875 
L 32.078125 38.921875 
Q 39.203125 38.921875 42.84375 42.21875 
Q 46.484375 45.515625 46.484375 51.90625 
Q 46.484375 58.296875 42.84375 61.546875 
Q 39.203125 64.796875 32.078125 64.796875 
z
" id="DejaVuSans-82"/>
       <path d="M 9.8125 72.90625 
L 55.90625 72.90625 
L 55.90625 64.59375 
L 19.671875 64.59375 
L 19.671875 43.015625 
L 54.390625 43.015625 
L 54.390625 34.71875 
L 19.671875 34.71875 
L 19.671875 8.296875 
L 56.78125 8.296875 
L 56.78125 0 
L 9.8125 0 
z
" id="DejaVuSans-69"/>
      </defs>
      <use xlink:href="#DejaVuSans-82"/>
      <use x="69.482422" xlink:href="#DejaVuSans-69"/>
      <use x="132.666016" xlink:href="#DejaVuSans-82"/>
     </g>
    </g>
   </g>
   <g id="line2d_10">
    <path clip-path="url(#p2def864a19)" d="M 121.392 69.12 
L 134.784 71.292969 
L 148.176 80.266012 
L 161.568 88.905069 
L 174.96 97.978711 
L 188.352 109.95052 
L 201.744 126.274933 
L 215.136 140.800286 
L 228.528 164.990542 
L 241.92 192.778207 
L 255.312 231.10451 
L 268.704 281.760576 
L 282.096 334.774701 
L 295.488 391.364942 
L 308.88 417.739319 
L 322.272 434.941685 
L 335.664 440.584506 
L 349.056 446.437616 
L 362.448 452.876122 
L 375.84 453.748261 
L 389.232 462.119278 
L 402.624 466.456486 
L 416.016 466.211235 
L 429.408 470.218218 
L 442.8 473.77106 
L 456.192 476.420948 
L 469.584 477.671459 
L 482.976 482.781306 
L 496.368 484.800994 
L 509.76 482.456895 
L 523.152 488.011507 
L 536.544 490.785747 
L 549.936 489.937221 
L 563.328 493.806062 
L 576.72 497.019472 
L 590.112 495.892707 
L 603.504 498.507019 
L 616.896 500.750795 
L 630.288 501.085594 
L 643.68 502.621398 
L 657.072 502.708694 
L 670.464 505.344088 
L 683.856 507.50411 
L 697.248 506.118443 
L 710.64 509.801957 
L 724.032 509.889451 
L 737.424 507.444881 
L 750.816 510.191362 
L 764.208 510.113808 
L 777.6 512.64 
" style="fill:none;stroke:#800080;stroke-linecap:square;stroke-width:1.5;"/>
   </g>
   <g id="line2d_11">
    <path clip-path="url(#p2def864a19)" d="M 121.392 69.12 
L 134.784 73.9795 
L 148.176 81.70183 
L 161.568 89.12848 
L 174.96 100.670261 
L 188.352 111.806958 
L 201.744 127.496648 
L 215.136 147.454528 
L 228.528 172.139778 
L 241.92 204.628792 
L 255.312 251.352846 
L 268.704 315.518375 
L 282.096 391.043029 
L 295.488 441.457378 
L 308.88 459.931728 
L 322.272 461.684412 
L 335.664 470.005638 
L 349.056 474.412588 
L 362.448 473.35575 
L 375.84 478.280563 
L 389.232 478.606847 
L 402.624 477.604699 
L 416.016 483.373465 
L 429.408 483.421575 
L 442.8 486.720675 
L 456.192 484.04105 
L 469.584 490.259647 
L 482.976 491.239433 
L 496.368 490.995215 
L 509.76 493.096909 
L 523.152 496.40231 
L 536.544 495.598649 
L 549.936 497.456732 
L 563.328 493.075349 
L 576.72 498.676596 
L 590.112 500.768214 
L 603.504 498.679656 
L 616.896 502.385527 
L 630.288 500.843518 
L 643.68 504.429216 
L 657.072 505.25729 
L 670.464 504.631066 
L 683.856 506.277005 
L 697.248 505.483141 
L 710.64 508.134723 
L 724.032 508.998343 
L 737.424 510.675323 
L 750.816 509.652804 
L 764.208 512.64 
L 777.6 507.950209 
" style="fill:none;stroke:#0000ff;stroke-linecap:square;stroke-width:1.5;"/>
   </g>
   <g id="line2d_12">
    <path clip-path="url(#p2def864a19)" d="M 121.392 69.12 
L 134.784 77.764591 
L 148.176 79.509335 
L 161.568 85.94271 
L 174.96 90.242135 
L 188.352 97.182248 
L 201.744 103.435184 
L 215.136 109.245274 
L 228.528 119.422751 
L 241.92 128.752974 
L 255.312 140.710861 
L 268.704 147.777597 
L 282.096 158.693539 
L 295.488 178.054255 
L 308.88 197.589091 
L 322.272 215.173505 
L 335.664 249.146137 
L 349.056 293.448916 
L 362.448 339.37789 
L 375.84 371.160053 
L 389.232 404.35908 
L 402.624 411.41876 
L 416.016 431.534791 
L 429.408 441.076977 
L 442.8 443.435616 
L 456.192 448.20311 
L 469.584 459.81841 
L 482.976 456.796097 
L 496.368 464.868814 
L 509.76 463.30809 
L 523.152 467.295573 
L 536.544 476.780951 
L 549.936 477.266784 
L 563.328 479.47527 
L 576.72 480.742273 
L 590.112 485.221767 
L 603.504 491.390777 
L 616.896 490.57789 
L 630.288 489.746065 
L 643.68 496.934334 
L 657.072 500.679576 
L 670.464 503.619103 
L 683.856 499.585922 
L 697.248 505.572395 
L 710.64 504.691239 
L 724.032 506.383772 
L 737.424 511.79243 
L 750.816 510.105741 
L 764.208 512.64 
L 777.6 511.937746 
" style="fill:none;stroke:#008000;stroke-linecap:square;stroke-width:1.5;"/>
   </g>
   <g id="line2d_13">
    <path clip-path="url(#p2def864a19)" d="M 121.392 69.12 
L 134.784 74.457802 
L 148.176 73.573283 
L 161.568 74.236622 
L 174.96 77.10454 
L 188.352 80.877987 
L 201.744 82.622857 
L 215.136 86.618436 
L 228.528 89.286836 
L 241.92 91.315263 
L 255.312 94.580613 
L 268.704 96.961243 
L 282.096 101.659875 
L 295.488 106.520769 
L 308.88 110.222462 
L 322.272 115.792325 
L 335.664 117.51433 
L 349.056 121.092821 
L 362.448 125.556484 
L 375.84 134.328868 
L 389.232 139.043947 
L 402.624 141.834595 
L 416.016 150.662237 
L 429.408 156.616094 
L 442.8 163.378754 
L 456.192 171.71645 
L 469.584 179.77084 
L 482.976 192.411039 
L 496.368 199.091741 
L 509.76 208.126473 
L 523.152 217.998464 
L 536.544 233.295606 
L 549.936 244.886166 
L 563.328 259.339104 
L 576.72 277.025576 
L 590.112 292.482198 
L 603.504 309.349562 
L 616.896 332.9756 
L 630.288 353.476914 
L 643.68 399.651722 
L 657.072 416.555277 
L 670.464 439.989694 
L 683.856 467.506113 
L 697.248 479.24057 
L 710.64 493.871064 
L 724.032 500.243952 
L 737.424 505.980088 
L 750.816 510.92348 
L 764.208 510.324048 
L 777.6 512.64 
" style="fill:none;stroke:#bfbf00;stroke-linecap:square;stroke-width:1.5;"/>
   </g>
   <g id="line2d_14">
    <path clip-path="url(#p2def864a19)" d="M 121.392 69.12 
L 134.784 73.294767 
L 148.176 84.137949 
L 161.568 83.407386 
L 174.96 88.222071 
L 188.352 86.777852 
L 201.744 90.73552 
L 215.136 94.566734 
L 228.528 88.786515 
L 241.92 98.706336 
L 255.312 110.033667 
L 268.704 107.469496 
L 282.096 114.010107 
L 295.488 112.18042 
L 308.88 123.975444 
L 322.272 121.905964 
L 335.664 133.555183 
L 349.056 140.323502 
L 362.448 147.284039 
L 375.84 151.06916 
L 389.232 160.050061 
L 402.624 166.578394 
L 416.016 166.27605 
L 429.408 176.281052 
L 442.8 182.908709 
L 456.192 204.079455 
L 469.584 214.451957 
L 482.976 221.174888 
L 496.368 230.427565 
L 509.76 241.159787 
L 523.152 267.919754 
L 536.544 270.104276 
L 549.936 288.637306 
L 563.328 304.272672 
L 576.72 315.228004 
L 590.112 340.580107 
L 603.504 360.159899 
L 616.896 380.629268 
L 630.288 398.866961 
L 643.68 430.773659 
L 657.072 428.592544 
L 670.464 466.29865 
L 683.856 460.347089 
L 697.248 487.029751 
L 710.64 478.865445 
L 724.032 488.537132 
L 737.424 509.034981 
L 750.816 512.286242 
L 764.208 512.64 
L 777.6 500.405877 
" style="fill:none;stroke:#ff0000;stroke-linecap:square;stroke-width:1.5;"/>
   </g>
   <g id="patch_3">
    <path d="M 108 512.64 
L 108 69.12 
" style="fill:none;stroke:#000000;stroke-linecap:square;stroke-linejoin:miter;stroke-width:0.8;"/>
   </g>
   <g id="patch_4">
    <path d="M 777.6 512.64 
L 777.6 69.12 
" style="fill:none;stroke:#000000;stroke-linecap:square;stroke-linejoin:miter;stroke-width:0.8;"/>
   </g>
   <g id="patch_5">
    <path d="M 108 512.64 
L 777.6 512.64 
" style="fill:none;stroke:#000000;stroke-linecap:square;stroke-linejoin:miter;stroke-width:0.8;"/>
   </g>
   <g id="patch_6">
    <path d="M 108 69.12 
L 777.6 69.12 
" style="fill:none;stroke:#000000;stroke-linecap:square;stroke-linejoin:miter;stroke-width:0.8;"/>
   </g>
   <g id="legend_1">
    <g id="patch_7">
     <path d="M 705.923437 150.510625 
L 770.6 150.510625 
Q 772.6 150.510625 772.6 148.510625 
L 772.6 76.12 
Q 772.6 74.12 770.6 74.12 
L 705.923437 74.12 
Q 703.923437 74.12 703.923437 76.12 
L 703.923437 148.510625 
Q 703.923437 150.510625 705.923437 150.510625 
z
" style="fill:#ffffff;opacity:0.8;stroke:#cccccc;stroke-linejoin:miter;"/>
    </g>
    <g id="line2d_15">
     <path d="M 707.923437 82.218437 
L 727.923437 82.218437 
" style="fill:none;stroke:#800080;stroke-linecap:square;stroke-width:1.5;"/>
    </g>
    <g id="line2d_16"/>
    <g id="text_12">
     <!-- s=100 -->
     <g transform="translate(735.923437 85.718437)scale(0.1 -0.1)">
      <defs>
       <path d="M 10.59375 45.40625 
L 73.1875 45.40625 
L 73.1875 37.203125 
L 10.59375 37.203125 
z
M 10.59375 25.484375 
L 73.1875 25.484375 
L 73.1875 17.1875 
L 10.59375 17.1875 
z
" id="DejaVuSans-61"/>
      </defs>
      <use xlink:href="#DejaVuSans-115"/>
      <use x="52.099609" xlink:href="#DejaVuSans-61"/>
      <use x="135.888672" xlink:href="#DejaVuSans-49"/>
      <use x="199.511719" xlink:href="#DejaVuSans-48"/>
      <use x="263.134766" xlink:href="#DejaVuSans-48"/>
     </g>
    </g>
    <g id="line2d_17">
     <path d="M 707.923437 96.896563 
L 727.923437 96.896563 
" style="fill:none;stroke:#0000ff;stroke-linecap:square;stroke-width:1.5;"/>
    </g>
    <g id="line2d_18"/>
    <g id="text_13">
     <!-- s=80 -->
     <g transform="translate(735.923437 100.396563)scale(0.1 -0.1)">
      <defs>
       <path d="M 31.78125 34.625 
Q 24.75 34.625 20.71875 30.859375 
Q 16.703125 27.09375 16.703125 20.515625 
Q 16.703125 13.921875 20.71875 10.15625 
Q 24.75 6.390625 31.78125 6.390625 
Q 38.8125 6.390625 42.859375 10.171875 
Q 46.921875 13.96875 46.921875 20.515625 
Q 46.921875 27.09375 42.890625 30.859375 
Q 38.875 34.625 31.78125 34.625 
z
M 21.921875 38.8125 
Q 15.578125 40.375 12.03125 44.71875 
Q 8.5 49.078125 8.5 55.328125 
Q 8.5 64.0625 14.71875 69.140625 
Q 20.953125 74.21875 31.78125 74.21875 
Q 42.671875 74.21875 48.875 69.140625 
Q 55.078125 64.0625 55.078125 55.328125 
Q 55.078125 49.078125 51.53125 44.71875 
Q 48 40.375 41.703125 38.8125 
Q 48.828125 37.15625 52.796875 32.3125 
Q 56.78125 27.484375 56.78125 20.515625 
Q 56.78125 9.90625 50.3125 4.234375 
Q 43.84375 -1.421875 31.78125 -1.421875 
Q 19.734375 -1.421875 13.25 4.234375 
Q 6.78125 9.90625 6.78125 20.515625 
Q 6.78125 27.484375 10.78125 32.3125 
Q 14.796875 37.15625 21.921875 38.8125 
z
M 18.3125 54.390625 
Q 18.3125 48.734375 21.84375 45.5625 
Q 25.390625 42.390625 31.78125 42.390625 
Q 38.140625 42.390625 41.71875 45.5625 
Q 45.3125 48.734375 45.3125 54.390625 
Q 45.3125 60.0625 41.71875 63.234375 
Q 38.140625 66.40625 31.78125 66.40625 
Q 25.390625 66.40625 21.84375 63.234375 
Q 18.3125 60.0625 18.3125 54.390625 
z
" id="DejaVuSans-56"/>
      </defs>
      <use xlink:href="#DejaVuSans-115"/>
      <use x="52.099609" xlink:href="#DejaVuSans-61"/>
      <use x="135.888672" xlink:href="#DejaVuSans-56"/>
      <use x="199.511719" xlink:href="#DejaVuSans-48"/>
     </g>
    </g>
    <g id="line2d_19">
     <path d="M 707.923437 111.574687 
L 727.923437 111.574687 
" style="fill:none;stroke:#008000;stroke-linecap:square;stroke-width:1.5;"/>
    </g>
    <g id="line2d_20"/>
    <g id="text_14">
     <!-- s=60 -->
     <g transform="translate(735.923437 115.074687)scale(0.1 -0.1)">
      <defs>
       <path d="M 33.015625 40.375 
Q 26.375 40.375 22.484375 35.828125 
Q 18.609375 31.296875 18.609375 23.390625 
Q 18.609375 15.53125 22.484375 10.953125 
Q 26.375 6.390625 33.015625 6.390625 
Q 39.65625 6.390625 43.53125 10.953125 
Q 47.40625 15.53125 47.40625 23.390625 
Q 47.40625 31.296875 43.53125 35.828125 
Q 39.65625 40.375 33.015625 40.375 
z
M 52.59375 71.296875 
L 52.59375 62.3125 
Q 48.875 64.0625 45.09375 64.984375 
Q 41.3125 65.921875 37.59375 65.921875 
Q 27.828125 65.921875 22.671875 59.328125 
Q 17.53125 52.734375 16.796875 39.40625 
Q 19.671875 43.65625 24.015625 45.921875 
Q 28.375 48.1875 33.59375 48.1875 
Q 44.578125 48.1875 50.953125 41.515625 
Q 57.328125 34.859375 57.328125 23.390625 
Q 57.328125 12.15625 50.6875 5.359375 
Q 44.046875 -1.421875 33.015625 -1.421875 
Q 20.359375 -1.421875 13.671875 8.265625 
Q 6.984375 17.96875 6.984375 36.375 
Q 6.984375 53.65625 15.1875 63.9375 
Q 23.390625 74.21875 37.203125 74.21875 
Q 40.921875 74.21875 44.703125 73.484375 
Q 48.484375 72.75 52.59375 71.296875 
z
" id="DejaVuSans-54"/>
      </defs>
      <use xlink:href="#DejaVuSans-115"/>
      <use x="52.099609" xlink:href="#DejaVuSans-61"/>
      <use x="135.888672" xlink:href="#DejaVuSans-54"/>
      <use x="199.511719" xlink:href="#DejaVuSans-48"/>
     </g>
    </g>
    <g id="line2d_21">
     <path d="M 707.923437 126.252813 
L 727.923437 126.252813 
" style="fill:none;stroke:#bfbf00;stroke-linecap:square;stroke-width:1.5;"/>
    </g>
    <g id="line2d_22"/>
    <g id="text_15">
     <!-- s=40 -->
     <g transform="translate(735.923437 129.752813)scale(0.1 -0.1)">
      <use xlink:href="#DejaVuSans-115"/>
      <use x="52.099609" xlink:href="#DejaVuSans-61"/>
      <use x="135.888672" xlink:href="#DejaVuSans-52"/>
      <use x="199.511719" xlink:href="#DejaVuSans-48"/>
     </g>
    </g>
    <g id="line2d_23">
     <path d="M 707.923437 140.930938 
L 727.923437 140.930938 
" style="fill:none;stroke:#ff0000;stroke-linecap:square;stroke-width:1.5;"/>
    </g>
    <g id="line2d_24"/>
    <g id="text_16">
     <!-- s=20 -->
     <g transform="translate(735.923437 144.430938)scale(0.1 -0.1)">
      <use xlink:href="#DejaVuSans-115"/>
      <use x="52.099609" xlink:href="#DejaVuSans-61"/>
      <use x="135.888672" xlink:href="#DejaVuSans-50"/>
      <use x="199.511719" xlink:href="#DejaVuSans-48"/>
     </g>
    </g>
   </g>
  </g>
 </g>
 <defs>
  <clipPath id="p2def864a19">
   <rect height="443.52" width="669.6" x="108" y="69.12"/>
  </clipPath>
 </defs>
</svg>
