<?xml version="1.0" encoding="utf-8" standalone="no"?>
<!DOCTYPE svg PUBLIC "-//W3C//DTD SVG 1.1//EN"
  "http://www.w3.org/Graphics/SVG/1.1/DTD/svg11.dtd">
<!-- Created with matplotlib (https://matplotlib.org/) -->
<svg height="576pt" version="1.1" viewBox="0 0 864 576" width="864pt" xmlns="http://www.w3.org/2000/svg" xmlns:xlink="http://www.w3.org/1999/xlink">
 <metadata>
  <rdf:RDF xmlns:cc="http://creativecommons.org/ns#" xmlns:dc="http://purl.org/dc/elements/1.1/" xmlns:rdf="http://www.w3.org/1999/02/22-rdf-syntax-ns#">
   <cc:Work>
    <dc:type rdf:resource="http://purl.org/dc/dcmitype/StillImage"/>
    <dc:date>2023-04-23T10:33:59.215797</dc:date>
    <dc:format>image/svg+xml</dc:format>
    <dc:creator>
     <cc:Agent>
      <dc:title>Matplotlib v3.3.4, https://matplotlib.org/</dc:title>
     </cc:Agent>
    </dc:creator>
   </cc:Work>
  </rdf:RDF>
 </metadata>
 <defs>
  <style type="text/css">*{stroke-linecap:butt;stroke-linejoin:round;}</style>
 </defs>
 <g id="figure_1">
  <g id="patch_1">
   <path d="M 0 576 
L 864 576 
L 864 0 
L 0 0 
z
" style="fill:#ffffff;"/>
  </g>
  <g id="axes_1">
   <g id="patch_2">
    <path d="M 108 512.64 
L 777.6 512.64 
L 777.6 69.12 
L 108 69.12 
z
" style="fill:#ffffff;"/>
   </g>
   <g id="PathCollection_1">
    <defs>
     <path d="M 0 3 
C 0.795609 3 1.55874 2.683901 2.12132 2.12132 
C 2.683901 1.55874 3 0.795609 3 0 
C 3 -0.795609 2.683901 -1.55874 2.12132 -2.12132 
C 1.55874 -2.683901 0.795609 -3 0 -3 
C -0.795609 -3 -1.55874 -2.683901 -2.12132 -2.12132 
C -2.683901 -1.55874 -3 -0.795609 -3 0 
C -3 0.795609 -2.683901 1.55874 -2.12132 2.12132 
C -1.55874 2.683901 -0.795609 3 0 3 
z
" id="mc55c35bba7" style="stroke:#800080;"/>
    </defs>
    <g clip-path="url(#p9048fb17a2)">
     <use style="fill:#800080;stroke:#800080;" x="121.392" xlink:href="#mc55c35bba7" y="69.12"/>
     <use style="fill:#800080;stroke:#800080;" x="134.784" xlink:href="#mc55c35bba7" y="72.936426"/>
     <use style="fill:#800080;stroke:#800080;" x="148.176" xlink:href="#mc55c35bba7" y="78.524364"/>
     <use style="fill:#800080;stroke:#800080;" x="161.568" xlink:href="#mc55c35bba7" y="87.063742"/>
     <use style="fill:#800080;stroke:#800080;" x="174.96" xlink:href="#mc55c35bba7" y="96.887948"/>
     <use style="fill:#800080;stroke:#800080;" x="188.352" xlink:href="#mc55c35bba7" y="109.752434"/>
     <use style="fill:#800080;stroke:#800080;" x="201.744" xlink:href="#mc55c35bba7" y="126.640934"/>
     <use style="fill:#800080;stroke:#800080;" x="215.136" xlink:href="#mc55c35bba7" y="149.14231"/>
     <use style="fill:#800080;stroke:#800080;" x="228.528" xlink:href="#mc55c35bba7" y="183.572557"/>
     <use style="fill:#800080;stroke:#800080;" x="241.92" xlink:href="#mc55c35bba7" y="242.33511"/>
     <use style="fill:#800080;stroke:#800080;" x="255.312" xlink:href="#mc55c35bba7" y="339.084177"/>
     <use style="fill:#800080;stroke:#800080;" x="268.704" xlink:href="#mc55c35bba7" y="423.395856"/>
     <use style="fill:#800080;stroke:#800080;" x="282.096" xlink:href="#mc55c35bba7" y="446.866375"/>
     <use style="fill:#800080;stroke:#800080;" x="295.488" xlink:href="#mc55c35bba7" y="450.789639"/>
     <use style="fill:#800080;stroke:#800080;" x="308.88" xlink:href="#mc55c35bba7" y="457.475406"/>
     <use style="fill:#800080;stroke:#800080;" x="322.272" xlink:href="#mc55c35bba7" y="460.794905"/>
     <use style="fill:#800080;stroke:#800080;" x="335.664" xlink:href="#mc55c35bba7" y="467.254835"/>
     <use style="fill:#800080;stroke:#800080;" x="349.056" xlink:href="#mc55c35bba7" y="467.917861"/>
     <use style="fill:#800080;stroke:#800080;" x="362.448" xlink:href="#mc55c35bba7" y="472.801747"/>
     <use style="fill:#800080;stroke:#800080;" x="375.84" xlink:href="#mc55c35bba7" y="474.701097"/>
     <use style="fill:#800080;stroke:#800080;" x="389.232" xlink:href="#mc55c35bba7" y="479.273168"/>
     <use style="fill:#800080;stroke:#800080;" x="402.624" xlink:href="#mc55c35bba7" y="481.634864"/>
     <use style="fill:#800080;stroke:#800080;" x="416.016" xlink:href="#mc55c35bba7" y="484.820277"/>
     <use style="fill:#800080;stroke:#800080;" x="429.408" xlink:href="#mc55c35bba7" y="486.587797"/>
     <use style="fill:#800080;stroke:#800080;" x="442.8" xlink:href="#mc55c35bba7" y="486.946948"/>
     <use style="fill:#800080;stroke:#800080;" x="456.192" xlink:href="#mc55c35bba7" y="487.879382"/>
     <use style="fill:#800080;stroke:#800080;" x="469.584" xlink:href="#mc55c35bba7" y="488.968901"/>
     <use style="fill:#800080;stroke:#800080;" x="482.976" xlink:href="#mc55c35bba7" y="490.245433"/>
     <use style="fill:#800080;stroke:#800080;" x="496.368" xlink:href="#mc55c35bba7" y="489.795268"/>
     <use style="fill:#800080;stroke:#800080;" x="509.76" xlink:href="#mc55c35bba7" y="495.980722"/>
     <use style="fill:#800080;stroke:#800080;" x="523.152" xlink:href="#mc55c35bba7" y="497.775854"/>
     <use style="fill:#800080;stroke:#800080;" x="536.544" xlink:href="#mc55c35bba7" y="498.290052"/>
     <use style="fill:#800080;stroke:#800080;" x="549.936" xlink:href="#mc55c35bba7" y="499.075385"/>
     <use style="fill:#800080;stroke:#800080;" x="563.328" xlink:href="#mc55c35bba7" y="500.329291"/>
     <use style="fill:#800080;stroke:#800080;" x="576.72" xlink:href="#mc55c35bba7" y="501.739206"/>
     <use style="fill:#800080;stroke:#800080;" x="590.112" xlink:href="#mc55c35bba7" y="500.158109"/>
     <use style="fill:#800080;stroke:#800080;" x="603.504" xlink:href="#mc55c35bba7" y="502.456318"/>
     <use style="fill:#800080;stroke:#800080;" x="616.896" xlink:href="#mc55c35bba7" y="506.797592"/>
     <use style="fill:#800080;stroke:#800080;" x="630.288" xlink:href="#mc55c35bba7" y="504.960441"/>
     <use style="fill:#800080;stroke:#800080;" x="643.68" xlink:href="#mc55c35bba7" y="506.111401"/>
     <use style="fill:#800080;stroke:#800080;" x="657.072" xlink:href="#mc55c35bba7" y="505.929523"/>
     <use style="fill:#800080;stroke:#800080;" x="670.464" xlink:href="#mc55c35bba7" y="505.74432"/>
     <use style="fill:#800080;stroke:#800080;" x="683.856" xlink:href="#mc55c35bba7" y="506.495709"/>
     <use style="fill:#800080;stroke:#800080;" x="697.248" xlink:href="#mc55c35bba7" y="508.792941"/>
     <use style="fill:#800080;stroke:#800080;" x="710.64" xlink:href="#mc55c35bba7" y="507.560495"/>
     <use style="fill:#800080;stroke:#800080;" x="724.032" xlink:href="#mc55c35bba7" y="508.783843"/>
     <use style="fill:#800080;stroke:#800080;" x="737.424" xlink:href="#mc55c35bba7" y="508.268782"/>
     <use style="fill:#800080;stroke:#800080;" x="750.816" xlink:href="#mc55c35bba7" y="511.353279"/>
     <use style="fill:#800080;stroke:#800080;" x="764.208" xlink:href="#mc55c35bba7" y="510.069708"/>
     <use style="fill:#800080;stroke:#800080;" x="777.6" xlink:href="#mc55c35bba7" y="512.64"/>
    </g>
   </g>
   <g id="PathCollection_2">
    <defs>
     <path d="M 0 3 
C 0.795609 3 1.55874 2.683901 2.12132 2.12132 
C 2.683901 1.55874 3 0.795609 3 0 
C 3 -0.795609 2.683901 -1.55874 2.12132 -2.12132 
C 1.55874 -2.683901 0.795609 -3 0 -3 
C -0.795609 -3 -1.55874 -2.683901 -2.12132 -2.12132 
C -2.683901 -1.55874 -3 -0.795609 -3 0 
C -3 0.795609 -2.683901 1.55874 -2.12132 2.12132 
C -1.55874 2.683901 -0.795609 3 0 3 
z
" id="m109d886b37" style="stroke:#0000ff;"/>
    </defs>
    <g clip-path="url(#p9048fb17a2)">
     <use style="fill:#0000ff;stroke:#0000ff;" x="121.392" xlink:href="#m109d886b37" y="69.12"/>
     <use style="fill:#0000ff;stroke:#0000ff;" x="134.784" xlink:href="#m109d886b37" y="71.293976"/>
     <use style="fill:#0000ff;stroke:#0000ff;" x="148.176" xlink:href="#m109d886b37" y="74.344013"/>
     <use style="fill:#0000ff;stroke:#0000ff;" x="161.568" xlink:href="#m109d886b37" y="78.699696"/>
     <use style="fill:#0000ff;stroke:#0000ff;" x="174.96" xlink:href="#m109d886b37" y="84.135762"/>
     <use style="fill:#0000ff;stroke:#0000ff;" x="188.352" xlink:href="#m109d886b37" y="88.99338"/>
     <use style="fill:#0000ff;stroke:#0000ff;" x="201.744" xlink:href="#m109d886b37" y="94.556132"/>
     <use style="fill:#0000ff;stroke:#0000ff;" x="215.136" xlink:href="#m109d886b37" y="100.32118"/>
     <use style="fill:#0000ff;stroke:#0000ff;" x="228.528" xlink:href="#m109d886b37" y="109.054761"/>
     <use style="fill:#0000ff;stroke:#0000ff;" x="241.92" xlink:href="#m109d886b37" y="115.34396"/>
     <use style="fill:#0000ff;stroke:#0000ff;" x="255.312" xlink:href="#m109d886b37" y="126.83263"/>
     <use style="fill:#0000ff;stroke:#0000ff;" x="268.704" xlink:href="#m109d886b37" y="136.095726"/>
     <use style="fill:#0000ff;stroke:#0000ff;" x="282.096" xlink:href="#m109d886b37" y="150.633419"/>
     <use style="fill:#0000ff;stroke:#0000ff;" x="295.488" xlink:href="#m109d886b37" y="166.119371"/>
     <use style="fill:#0000ff;stroke:#0000ff;" x="308.88" xlink:href="#m109d886b37" y="181.71497"/>
     <use style="fill:#0000ff;stroke:#0000ff;" x="322.272" xlink:href="#m109d886b37" y="206.604286"/>
     <use style="fill:#0000ff;stroke:#0000ff;" x="335.664" xlink:href="#m109d886b37" y="237.240114"/>
     <use style="fill:#0000ff;stroke:#0000ff;" x="349.056" xlink:href="#m109d886b37" y="272.68307"/>
     <use style="fill:#0000ff;stroke:#0000ff;" x="362.448" xlink:href="#m109d886b37" y="329.088534"/>
     <use style="fill:#0000ff;stroke:#0000ff;" x="375.84" xlink:href="#m109d886b37" y="390.723319"/>
     <use style="fill:#0000ff;stroke:#0000ff;" x="389.232" xlink:href="#m109d886b37" y="449.176778"/>
     <use style="fill:#0000ff;stroke:#0000ff;" x="402.624" xlink:href="#m109d886b37" y="470.326526"/>
     <use style="fill:#0000ff;stroke:#0000ff;" x="416.016" xlink:href="#m109d886b37" y="478.45297"/>
     <use style="fill:#0000ff;stroke:#0000ff;" x="429.408" xlink:href="#m109d886b37" y="480.885119"/>
     <use style="fill:#0000ff;stroke:#0000ff;" x="442.8" xlink:href="#m109d886b37" y="483.864767"/>
     <use style="fill:#0000ff;stroke:#0000ff;" x="456.192" xlink:href="#m109d886b37" y="484.764205"/>
     <use style="fill:#0000ff;stroke:#0000ff;" x="469.584" xlink:href="#m109d886b37" y="487.142956"/>
     <use style="fill:#0000ff;stroke:#0000ff;" x="482.976" xlink:href="#m109d886b37" y="489.079436"/>
     <use style="fill:#0000ff;stroke:#0000ff;" x="496.368" xlink:href="#m109d886b37" y="488.172156"/>
     <use style="fill:#0000ff;stroke:#0000ff;" x="509.76" xlink:href="#m109d886b37" y="494.48038"/>
     <use style="fill:#0000ff;stroke:#0000ff;" x="523.152" xlink:href="#m109d886b37" y="495.95897"/>
     <use style="fill:#0000ff;stroke:#0000ff;" x="536.544" xlink:href="#m109d886b37" y="494.958224"/>
     <use style="fill:#0000ff;stroke:#0000ff;" x="549.936" xlink:href="#m109d886b37" y="496.37455"/>
     <use style="fill:#0000ff;stroke:#0000ff;" x="563.328" xlink:href="#m109d886b37" y="497.232786"/>
     <use style="fill:#0000ff;stroke:#0000ff;" x="576.72" xlink:href="#m109d886b37" y="498.369513"/>
     <use style="fill:#0000ff;stroke:#0000ff;" x="590.112" xlink:href="#m109d886b37" y="498.279528"/>
     <use style="fill:#0000ff;stroke:#0000ff;" x="603.504" xlink:href="#m109d886b37" y="500.181917"/>
     <use style="fill:#0000ff;stroke:#0000ff;" x="616.896" xlink:href="#m109d886b37" y="499.426763"/>
     <use style="fill:#0000ff;stroke:#0000ff;" x="630.288" xlink:href="#m109d886b37" y="504.469023"/>
     <use style="fill:#0000ff;stroke:#0000ff;" x="643.68" xlink:href="#m109d886b37" y="502.926392"/>
     <use style="fill:#0000ff;stroke:#0000ff;" x="657.072" xlink:href="#m109d886b37" y="503.645245"/>
     <use style="fill:#0000ff;stroke:#0000ff;" x="670.464" xlink:href="#m109d886b37" y="505.103403"/>
     <use style="fill:#0000ff;stroke:#0000ff;" x="683.856" xlink:href="#m109d886b37" y="508.155897"/>
     <use style="fill:#0000ff;stroke:#0000ff;" x="697.248" xlink:href="#m109d886b37" y="506.104271"/>
     <use style="fill:#0000ff;stroke:#0000ff;" x="710.64" xlink:href="#m109d886b37" y="508.044218"/>
     <use style="fill:#0000ff;stroke:#0000ff;" x="724.032" xlink:href="#m109d886b37" y="507.850631"/>
     <use style="fill:#0000ff;stroke:#0000ff;" x="737.424" xlink:href="#m109d886b37" y="509.898016"/>
     <use style="fill:#0000ff;stroke:#0000ff;" x="750.816" xlink:href="#m109d886b37" y="510.654925"/>
     <use style="fill:#0000ff;stroke:#0000ff;" x="764.208" xlink:href="#m109d886b37" y="510.998002"/>
     <use style="fill:#0000ff;stroke:#0000ff;" x="777.6" xlink:href="#m109d886b37" y="512.64"/>
    </g>
   </g>
   <g id="PathCollection_3">
    <defs>
     <path d="M 0 3 
C 0.795609 3 1.55874 2.683901 2.12132 2.12132 
C 2.683901 1.55874 3 0.795609 3 0 
C 3 -0.795609 2.683901 -1.55874 2.12132 -2.12132 
C 1.55874 -2.683901 0.795609 -3 0 -3 
C -0.795609 -3 -1.55874 -2.683901 -2.12132 -2.12132 
C -2.683901 -1.55874 -3 -0.795609 -3 0 
C -3 0.795609 -2.683901 1.55874 -2.12132 2.12132 
C -1.55874 2.683901 -0.795609 3 0 3 
z
" id="mfea34dd233" style="stroke:#008000;"/>
    </defs>
    <g clip-path="url(#p9048fb17a2)">
     <use style="fill:#008000;stroke:#008000;" x="121.392" xlink:href="#mfea34dd233" y="69.12"/>
     <use style="fill:#008000;stroke:#008000;" x="134.784" xlink:href="#mfea34dd233" y="73.493009"/>
     <use style="fill:#008000;stroke:#008000;" x="148.176" xlink:href="#mfea34dd233" y="76.399069"/>
     <use style="fill:#008000;stroke:#008000;" x="161.568" xlink:href="#mfea34dd233" y="81.228477"/>
     <use style="fill:#008000;stroke:#008000;" x="174.96" xlink:href="#mfea34dd233" y="83.576942"/>
     <use style="fill:#008000;stroke:#008000;" x="188.352" xlink:href="#mfea34dd233" y="91.28217"/>
     <use style="fill:#008000;stroke:#008000;" x="201.744" xlink:href="#mfea34dd233" y="97.318473"/>
     <use style="fill:#008000;stroke:#008000;" x="215.136" xlink:href="#mfea34dd233" y="104.456462"/>
     <use style="fill:#008000;stroke:#008000;" x="228.528" xlink:href="#mfea34dd233" y="110.223275"/>
     <use style="fill:#008000;stroke:#008000;" x="241.92" xlink:href="#mfea34dd233" y="121.758725"/>
     <use style="fill:#008000;stroke:#008000;" x="255.312" xlink:href="#mfea34dd233" y="130.658753"/>
     <use style="fill:#008000;stroke:#008000;" x="268.704" xlink:href="#mfea34dd233" y="144.503306"/>
     <use style="fill:#008000;stroke:#008000;" x="282.096" xlink:href="#mfea34dd233" y="160.988754"/>
     <use style="fill:#008000;stroke:#008000;" x="295.488" xlink:href="#mfea34dd233" y="180.00749"/>
     <use style="fill:#008000;stroke:#008000;" x="308.88" xlink:href="#mfea34dd233" y="204.036831"/>
     <use style="fill:#008000;stroke:#008000;" x="322.272" xlink:href="#mfea34dd233" y="236.540668"/>
     <use style="fill:#008000;stroke:#008000;" x="335.664" xlink:href="#mfea34dd233" y="281.214658"/>
     <use style="fill:#008000;stroke:#008000;" x="349.056" xlink:href="#mfea34dd233" y="334.345442"/>
     <use style="fill:#008000;stroke:#008000;" x="362.448" xlink:href="#mfea34dd233" y="397.712761"/>
     <use style="fill:#008000;stroke:#008000;" x="375.84" xlink:href="#mfea34dd233" y="446.115099"/>
     <use style="fill:#008000;stroke:#008000;" x="389.232" xlink:href="#mfea34dd233" y="468.201293"/>
     <use style="fill:#008000;stroke:#008000;" x="402.624" xlink:href="#mfea34dd233" y="470.927627"/>
     <use style="fill:#008000;stroke:#008000;" x="416.016" xlink:href="#mfea34dd233" y="475.204889"/>
     <use style="fill:#008000;stroke:#008000;" x="429.408" xlink:href="#mfea34dd233" y="481.151649"/>
     <use style="fill:#008000;stroke:#008000;" x="442.8" xlink:href="#mfea34dd233" y="480.642228"/>
     <use style="fill:#008000;stroke:#008000;" x="456.192" xlink:href="#mfea34dd233" y="486.238712"/>
     <use style="fill:#008000;stroke:#008000;" x="469.584" xlink:href="#mfea34dd233" y="487.994118"/>
     <use style="fill:#008000;stroke:#008000;" x="482.976" xlink:href="#mfea34dd233" y="487.77443"/>
     <use style="fill:#008000;stroke:#008000;" x="496.368" xlink:href="#mfea34dd233" y="488.705878"/>
     <use style="fill:#008000;stroke:#008000;" x="509.76" xlink:href="#mfea34dd233" y="491.106453"/>
     <use style="fill:#008000;stroke:#008000;" x="523.152" xlink:href="#mfea34dd233" y="494.36531"/>
     <use style="fill:#008000;stroke:#008000;" x="536.544" xlink:href="#mfea34dd233" y="493.727498"/>
     <use style="fill:#008000;stroke:#008000;" x="549.936" xlink:href="#mfea34dd233" y="495.931012"/>
     <use style="fill:#008000;stroke:#008000;" x="563.328" xlink:href="#mfea34dd233" y="497.186473"/>
     <use style="fill:#008000;stroke:#008000;" x="576.72" xlink:href="#mfea34dd233" y="499.599691"/>
     <use style="fill:#008000;stroke:#008000;" x="590.112" xlink:href="#mfea34dd233" y="500.112435"/>
     <use style="fill:#008000;stroke:#008000;" x="603.504" xlink:href="#mfea34dd233" y="498.592339"/>
     <use style="fill:#008000;stroke:#008000;" x="616.896" xlink:href="#mfea34dd233" y="504.939014"/>
     <use style="fill:#008000;stroke:#008000;" x="630.288" xlink:href="#mfea34dd233" y="502.727484"/>
     <use style="fill:#008000;stroke:#008000;" x="643.68" xlink:href="#mfea34dd233" y="506.982614"/>
     <use style="fill:#008000;stroke:#008000;" x="657.072" xlink:href="#mfea34dd233" y="505.742286"/>
     <use style="fill:#008000;stroke:#008000;" x="670.464" xlink:href="#mfea34dd233" y="505.731005"/>
     <use style="fill:#008000;stroke:#008000;" x="683.856" xlink:href="#mfea34dd233" y="506.676081"/>
     <use style="fill:#008000;stroke:#008000;" x="697.248" xlink:href="#mfea34dd233" y="508.885812"/>
     <use style="fill:#008000;stroke:#008000;" x="710.64" xlink:href="#mfea34dd233" y="509.322653"/>
     <use style="fill:#008000;stroke:#008000;" x="724.032" xlink:href="#mfea34dd233" y="509.026749"/>
     <use style="fill:#008000;stroke:#008000;" x="737.424" xlink:href="#mfea34dd233" y="508.746609"/>
     <use style="fill:#008000;stroke:#008000;" x="750.816" xlink:href="#mfea34dd233" y="510.20233"/>
     <use style="fill:#008000;stroke:#008000;" x="764.208" xlink:href="#mfea34dd233" y="508.453865"/>
     <use style="fill:#008000;stroke:#008000;" x="777.6" xlink:href="#mfea34dd233" y="512.64"/>
    </g>
   </g>
   <g id="PathCollection_4">
    <defs>
     <path d="M 0 3 
C 0.795609 3 1.55874 2.683901 2.12132 2.12132 
C 2.683901 1.55874 3 0.795609 3 0 
C 3 -0.795609 2.683901 -1.55874 2.12132 -2.12132 
C 1.55874 -2.683901 0.795609 -3 0 -3 
C -0.795609 -3 -1.55874 -2.683901 -2.12132 -2.12132 
C -2.683901 -1.55874 -3 -0.795609 -3 0 
C -3 0.795609 -2.683901 1.55874 -2.12132 2.12132 
C -1.55874 2.683901 -0.795609 3 0 3 
z
" id="m1bae804d13" style="stroke:#bfbf00;"/>
    </defs>
    <g clip-path="url(#p9048fb17a2)">
     <use style="fill:#bfbf00;stroke:#bfbf00;" x="121.392" xlink:href="#m1bae804d13" y="69.967276"/>
     <use style="fill:#bfbf00;stroke:#bfbf00;" x="134.784" xlink:href="#m1bae804d13" y="69.12"/>
     <use style="fill:#bfbf00;stroke:#bfbf00;" x="148.176" xlink:href="#m1bae804d13" y="72.100742"/>
     <use style="fill:#bfbf00;stroke:#bfbf00;" x="161.568" xlink:href="#m1bae804d13" y="72.231326"/>
     <use style="fill:#bfbf00;stroke:#bfbf00;" x="174.96" xlink:href="#m1bae804d13" y="75.549973"/>
     <use style="fill:#bfbf00;stroke:#bfbf00;" x="188.352" xlink:href="#m1bae804d13" y="77.418421"/>
     <use style="fill:#bfbf00;stroke:#bfbf00;" x="201.744" xlink:href="#m1bae804d13" y="81.792234"/>
     <use style="fill:#bfbf00;stroke:#bfbf00;" x="215.136" xlink:href="#m1bae804d13" y="85.061654"/>
     <use style="fill:#bfbf00;stroke:#bfbf00;" x="228.528" xlink:href="#m1bae804d13" y="88.440185"/>
     <use style="fill:#bfbf00;stroke:#bfbf00;" x="241.92" xlink:href="#m1bae804d13" y="93.494387"/>
     <use style="fill:#bfbf00;stroke:#bfbf00;" x="255.312" xlink:href="#m1bae804d13" y="95.74146"/>
     <use style="fill:#bfbf00;stroke:#bfbf00;" x="268.704" xlink:href="#m1bae804d13" y="101.063799"/>
     <use style="fill:#bfbf00;stroke:#bfbf00;" x="282.096" xlink:href="#m1bae804d13" y="106.015009"/>
     <use style="fill:#bfbf00;stroke:#bfbf00;" x="295.488" xlink:href="#m1bae804d13" y="110.381651"/>
     <use style="fill:#bfbf00;stroke:#bfbf00;" x="308.88" xlink:href="#m1bae804d13" y="117.646056"/>
     <use style="fill:#bfbf00;stroke:#bfbf00;" x="322.272" xlink:href="#m1bae804d13" y="120.356109"/>
     <use style="fill:#bfbf00;stroke:#bfbf00;" x="335.664" xlink:href="#m1bae804d13" y="131.327753"/>
     <use style="fill:#bfbf00;stroke:#bfbf00;" x="349.056" xlink:href="#m1bae804d13" y="141.84282"/>
     <use style="fill:#bfbf00;stroke:#bfbf00;" x="362.448" xlink:href="#m1bae804d13" y="148.912059"/>
     <use style="fill:#bfbf00;stroke:#bfbf00;" x="375.84" xlink:href="#m1bae804d13" y="161.114507"/>
     <use style="fill:#bfbf00;stroke:#bfbf00;" x="389.232" xlink:href="#m1bae804d13" y="178.82579"/>
     <use style="fill:#bfbf00;stroke:#bfbf00;" x="402.624" xlink:href="#m1bae804d13" y="194.398179"/>
     <use style="fill:#bfbf00;stroke:#bfbf00;" x="416.016" xlink:href="#m1bae804d13" y="208.860179"/>
     <use style="fill:#bfbf00;stroke:#bfbf00;" x="429.408" xlink:href="#m1bae804d13" y="230.97781"/>
     <use style="fill:#bfbf00;stroke:#bfbf00;" x="442.8" xlink:href="#m1bae804d13" y="260.795072"/>
     <use style="fill:#bfbf00;stroke:#bfbf00;" x="456.192" xlink:href="#m1bae804d13" y="296.446293"/>
     <use style="fill:#bfbf00;stroke:#bfbf00;" x="469.584" xlink:href="#m1bae804d13" y="334.295926"/>
     <use style="fill:#bfbf00;stroke:#bfbf00;" x="482.976" xlink:href="#m1bae804d13" y="380.265548"/>
     <use style="fill:#bfbf00;stroke:#bfbf00;" x="496.368" xlink:href="#m1bae804d13" y="418.239971"/>
     <use style="fill:#bfbf00;stroke:#bfbf00;" x="509.76" xlink:href="#m1bae804d13" y="466.731609"/>
     <use style="fill:#bfbf00;stroke:#bfbf00;" x="523.152" xlink:href="#m1bae804d13" y="478.605065"/>
     <use style="fill:#bfbf00;stroke:#bfbf00;" x="536.544" xlink:href="#m1bae804d13" y="480.221259"/>
     <use style="fill:#bfbf00;stroke:#bfbf00;" x="549.936" xlink:href="#m1bae804d13" y="482.829504"/>
     <use style="fill:#bfbf00;stroke:#bfbf00;" x="563.328" xlink:href="#m1bae804d13" y="487.941716"/>
     <use style="fill:#bfbf00;stroke:#bfbf00;" x="576.72" xlink:href="#m1bae804d13" y="494.519755"/>
     <use style="fill:#bfbf00;stroke:#bfbf00;" x="590.112" xlink:href="#m1bae804d13" y="495.390551"/>
     <use style="fill:#bfbf00;stroke:#bfbf00;" x="603.504" xlink:href="#m1bae804d13" y="493.680167"/>
     <use style="fill:#bfbf00;stroke:#bfbf00;" x="616.896" xlink:href="#m1bae804d13" y="495.853774"/>
     <use style="fill:#bfbf00;stroke:#bfbf00;" x="630.288" xlink:href="#m1bae804d13" y="500.263231"/>
     <use style="fill:#bfbf00;stroke:#bfbf00;" x="643.68" xlink:href="#m1bae804d13" y="502.418241"/>
     <use style="fill:#bfbf00;stroke:#bfbf00;" x="657.072" xlink:href="#m1bae804d13" y="499.157633"/>
     <use style="fill:#bfbf00;stroke:#bfbf00;" x="670.464" xlink:href="#m1bae804d13" y="504.532836"/>
     <use style="fill:#bfbf00;stroke:#bfbf00;" x="683.856" xlink:href="#m1bae804d13" y="500.911815"/>
     <use style="fill:#bfbf00;stroke:#bfbf00;" x="697.248" xlink:href="#m1bae804d13" y="503.352293"/>
     <use style="fill:#bfbf00;stroke:#bfbf00;" x="710.64" xlink:href="#m1bae804d13" y="506.993986"/>
     <use style="fill:#bfbf00;stroke:#bfbf00;" x="724.032" xlink:href="#m1bae804d13" y="505.585742"/>
     <use style="fill:#bfbf00;stroke:#bfbf00;" x="737.424" xlink:href="#m1bae804d13" y="510.771288"/>
     <use style="fill:#bfbf00;stroke:#bfbf00;" x="750.816" xlink:href="#m1bae804d13" y="510.17105"/>
     <use style="fill:#bfbf00;stroke:#bfbf00;" x="764.208" xlink:href="#m1bae804d13" y="509.115955"/>
     <use style="fill:#bfbf00;stroke:#bfbf00;" x="777.6" xlink:href="#m1bae804d13" y="512.64"/>
    </g>
   </g>
   <g id="PathCollection_5">
    <defs>
     <path d="M 0 3 
C 0.795609 3 1.55874 2.683901 2.12132 2.12132 
C 2.683901 1.55874 3 0.795609 3 0 
C 3 -0.795609 2.683901 -1.55874 2.12132 -2.12132 
C 1.55874 -2.683901 0.795609 -3 0 -3 
C -0.795609 -3 -1.55874 -2.683901 -2.12132 -2.12132 
C -2.683901 -1.55874 -3 -0.795609 -3 0 
C -3 0.795609 -2.683901 1.55874 -2.12132 2.12132 
C -1.55874 2.683901 -0.795609 3 0 3 
z
" id="m7d0325e76a" style="stroke:#ff0000;"/>
    </defs>
    <g clip-path="url(#p9048fb17a2)">
     <use style="fill:#ff0000;stroke:#ff0000;" x="121.392" xlink:href="#m7d0325e76a" y="69.12"/>
     <use style="fill:#ff0000;stroke:#ff0000;" x="134.784" xlink:href="#m7d0325e76a" y="82.496866"/>
     <use style="fill:#ff0000;stroke:#ff0000;" x="148.176" xlink:href="#m7d0325e76a" y="84.214548"/>
     <use style="fill:#ff0000;stroke:#ff0000;" x="161.568" xlink:href="#m7d0325e76a" y="79.673633"/>
     <use style="fill:#ff0000;stroke:#ff0000;" x="174.96" xlink:href="#m7d0325e76a" y="90.470067"/>
     <use style="fill:#ff0000;stroke:#ff0000;" x="188.352" xlink:href="#m7d0325e76a" y="94.153743"/>
     <use style="fill:#ff0000;stroke:#ff0000;" x="201.744" xlink:href="#m7d0325e76a" y="97.734094"/>
     <use style="fill:#ff0000;stroke:#ff0000;" x="215.136" xlink:href="#m7d0325e76a" y="97.057611"/>
     <use style="fill:#ff0000;stroke:#ff0000;" x="228.528" xlink:href="#m7d0325e76a" y="94.363726"/>
     <use style="fill:#ff0000;stroke:#ff0000;" x="241.92" xlink:href="#m7d0325e76a" y="102.663824"/>
     <use style="fill:#ff0000;stroke:#ff0000;" x="255.312" xlink:href="#m7d0325e76a" y="111.776676"/>
     <use style="fill:#ff0000;stroke:#ff0000;" x="268.704" xlink:href="#m7d0325e76a" y="115.248959"/>
     <use style="fill:#ff0000;stroke:#ff0000;" x="282.096" xlink:href="#m7d0325e76a" y="122.953079"/>
     <use style="fill:#ff0000;stroke:#ff0000;" x="295.488" xlink:href="#m7d0325e76a" y="121.109254"/>
     <use style="fill:#ff0000;stroke:#ff0000;" x="308.88" xlink:href="#m7d0325e76a" y="125.328656"/>
     <use style="fill:#ff0000;stroke:#ff0000;" x="322.272" xlink:href="#m7d0325e76a" y="141.597211"/>
     <use style="fill:#ff0000;stroke:#ff0000;" x="335.664" xlink:href="#m7d0325e76a" y="142.984791"/>
     <use style="fill:#ff0000;stroke:#ff0000;" x="349.056" xlink:href="#m7d0325e76a" y="145.059495"/>
     <use style="fill:#ff0000;stroke:#ff0000;" x="362.448" xlink:href="#m7d0325e76a" y="161.518291"/>
     <use style="fill:#ff0000;stroke:#ff0000;" x="375.84" xlink:href="#m7d0325e76a" y="157.661039"/>
     <use style="fill:#ff0000;stroke:#ff0000;" x="389.232" xlink:href="#m7d0325e76a" y="171.722465"/>
     <use style="fill:#ff0000;stroke:#ff0000;" x="402.624" xlink:href="#m7d0325e76a" y="173.683588"/>
     <use style="fill:#ff0000;stroke:#ff0000;" x="416.016" xlink:href="#m7d0325e76a" y="179.161991"/>
     <use style="fill:#ff0000;stroke:#ff0000;" x="429.408" xlink:href="#m7d0325e76a" y="196.473923"/>
     <use style="fill:#ff0000;stroke:#ff0000;" x="442.8" xlink:href="#m7d0325e76a" y="188.640839"/>
     <use style="fill:#ff0000;stroke:#ff0000;" x="456.192" xlink:href="#m7d0325e76a" y="194.959558"/>
     <use style="fill:#ff0000;stroke:#ff0000;" x="469.584" xlink:href="#m7d0325e76a" y="185.799274"/>
     <use style="fill:#ff0000;stroke:#ff0000;" x="482.976" xlink:href="#m7d0325e76a" y="229.141279"/>
     <use style="fill:#ff0000;stroke:#ff0000;" x="496.368" xlink:href="#m7d0325e76a" y="227.769852"/>
     <use style="fill:#ff0000;stroke:#ff0000;" x="509.76" xlink:href="#m7d0325e76a" y="233.707063"/>
     <use style="fill:#ff0000;stroke:#ff0000;" x="523.152" xlink:href="#m7d0325e76a" y="237.456503"/>
     <use style="fill:#ff0000;stroke:#ff0000;" x="536.544" xlink:href="#m7d0325e76a" y="258.641455"/>
     <use style="fill:#ff0000;stroke:#ff0000;" x="549.936" xlink:href="#m7d0325e76a" y="251.832776"/>
     <use style="fill:#ff0000;stroke:#ff0000;" x="563.328" xlink:href="#m7d0325e76a" y="268.320031"/>
     <use style="fill:#ff0000;stroke:#ff0000;" x="576.72" xlink:href="#m7d0325e76a" y="289.413965"/>
     <use style="fill:#ff0000;stroke:#ff0000;" x="590.112" xlink:href="#m7d0325e76a" y="283.589308"/>
     <use style="fill:#ff0000;stroke:#ff0000;" x="603.504" xlink:href="#m7d0325e76a" y="283.376889"/>
     <use style="fill:#ff0000;stroke:#ff0000;" x="616.896" xlink:href="#m7d0325e76a" y="311.00132"/>
     <use style="fill:#ff0000;stroke:#ff0000;" x="630.288" xlink:href="#m7d0325e76a" y="322.725756"/>
     <use style="fill:#ff0000;stroke:#ff0000;" x="643.68" xlink:href="#m7d0325e76a" y="344.787175"/>
     <use style="fill:#ff0000;stroke:#ff0000;" x="657.072" xlink:href="#m7d0325e76a" y="349.420775"/>
     <use style="fill:#ff0000;stroke:#ff0000;" x="670.464" xlink:href="#m7d0325e76a" y="367.632121"/>
     <use style="fill:#ff0000;stroke:#ff0000;" x="683.856" xlink:href="#m7d0325e76a" y="392.450369"/>
     <use style="fill:#ff0000;stroke:#ff0000;" x="697.248" xlink:href="#m7d0325e76a" y="401.095695"/>
     <use style="fill:#ff0000;stroke:#ff0000;" x="710.64" xlink:href="#m7d0325e76a" y="420.39221"/>
     <use style="fill:#ff0000;stroke:#ff0000;" x="724.032" xlink:href="#m7d0325e76a" y="428.152223"/>
     <use style="fill:#ff0000;stroke:#ff0000;" x="737.424" xlink:href="#m7d0325e76a" y="453.420947"/>
     <use style="fill:#ff0000;stroke:#ff0000;" x="750.816" xlink:href="#m7d0325e76a" y="468.428707"/>
     <use style="fill:#ff0000;stroke:#ff0000;" x="764.208" xlink:href="#m7d0325e76a" y="493.295412"/>
     <use style="fill:#ff0000;stroke:#ff0000;" x="777.6" xlink:href="#m7d0325e76a" y="512.64"/>
    </g>
   </g>
   <g id="matplotlib.axis_1">
    <g id="xtick_1">
     <g id="line2d_1">
      <defs>
       <path d="M 0 0 
L 0 3.5 
" id="mcec56b20e6" style="stroke:#000000;stroke-width:0.8;"/>
      </defs>
      <g>
       <use style="stroke:#000000;stroke-width:0.8;" x="108" xlink:href="#mcec56b20e6" y="512.64"/>
      </g>
     </g>
     <g id="text_1">
      <!-- 0 -->
      <g transform="translate(101.6375 534.836875)scale(0.2 -0.2)">
       <defs>
        <path d="M 31.78125 66.40625 
Q 24.171875 66.40625 20.328125 58.90625 
Q 16.5 51.421875 16.5 36.375 
Q 16.5 21.390625 20.328125 13.890625 
Q 24.171875 6.390625 31.78125 6.390625 
Q 39.453125 6.390625 43.28125 13.890625 
Q 47.125 21.390625 47.125 36.375 
Q 47.125 51.421875 43.28125 58.90625 
Q 39.453125 66.40625 31.78125 66.40625 
z
M 31.78125 74.21875 
Q 44.046875 74.21875 50.515625 64.515625 
Q 56.984375 54.828125 56.984375 36.375 
Q 56.984375 17.96875 50.515625 8.265625 
Q 44.046875 -1.421875 31.78125 -1.421875 
Q 19.53125 -1.421875 13.0625 8.265625 
Q 6.59375 17.96875 6.59375 36.375 
Q 6.59375 54.828125 13.0625 64.515625 
Q 19.53125 74.21875 31.78125 74.21875 
z
" id="DejaVuSans-48"/>
       </defs>
       <use xlink:href="#DejaVuSans-48"/>
      </g>
     </g>
    </g>
    <g id="xtick_2">
     <g id="line2d_2">
      <g>
       <use style="stroke:#000000;stroke-width:0.8;" x="241.92" xlink:href="#mcec56b20e6" y="512.64"/>
      </g>
     </g>
     <g id="text_2">
      <!-- 10 -->
      <g transform="translate(229.195 534.836875)scale(0.2 -0.2)">
       <defs>
        <path d="M 12.40625 8.296875 
L 28.515625 8.296875 
L 28.515625 63.921875 
L 10.984375 60.40625 
L 10.984375 69.390625 
L 28.421875 72.90625 
L 38.28125 72.90625 
L 38.28125 8.296875 
L 54.390625 8.296875 
L 54.390625 0 
L 12.40625 0 
z
" id="DejaVuSans-49"/>
       </defs>
       <use xlink:href="#DejaVuSans-49"/>
       <use x="63.623047" xlink:href="#DejaVuSans-48"/>
      </g>
     </g>
    </g>
    <g id="xtick_3">
     <g id="line2d_3">
      <g>
       <use style="stroke:#000000;stroke-width:0.8;" x="375.84" xlink:href="#mcec56b20e6" y="512.64"/>
      </g>
     </g>
     <g id="text_3">
      <!-- 20 -->
      <g transform="translate(363.115 534.836875)scale(0.2 -0.2)">
       <defs>
        <path d="M 19.1875 8.296875 
L 53.609375 8.296875 
L 53.609375 0 
L 7.328125 0 
L 7.328125 8.296875 
Q 12.9375 14.109375 22.625 23.890625 
Q 32.328125 33.6875 34.8125 36.53125 
Q 39.546875 41.84375 41.421875 45.53125 
Q 43.3125 49.21875 43.3125 52.78125 
Q 43.3125 58.59375 39.234375 62.25 
Q 35.15625 65.921875 28.609375 65.921875 
Q 23.96875 65.921875 18.8125 64.3125 
Q 13.671875 62.703125 7.8125 59.421875 
L 7.8125 69.390625 
Q 13.765625 71.78125 18.9375 73 
Q 24.125 74.21875 28.421875 74.21875 
Q 39.75 74.21875 46.484375 68.546875 
Q 53.21875 62.890625 53.21875 53.421875 
Q 53.21875 48.921875 51.53125 44.890625 
Q 49.859375 40.875 45.40625 35.40625 
Q 44.1875 33.984375 37.640625 27.21875 
Q 31.109375 20.453125 19.1875 8.296875 
z
" id="DejaVuSans-50"/>
       </defs>
       <use xlink:href="#DejaVuSans-50"/>
       <use x="63.623047" xlink:href="#DejaVuSans-48"/>
      </g>
     </g>
    </g>
    <g id="xtick_4">
     <g id="line2d_4">
      <g>
       <use style="stroke:#000000;stroke-width:0.8;" x="509.76" xlink:href="#mcec56b20e6" y="512.64"/>
      </g>
     </g>
     <g id="text_4">
      <!-- 30 -->
      <g transform="translate(497.035 534.836875)scale(0.2 -0.2)">
       <defs>
        <path d="M 40.578125 39.3125 
Q 47.65625 37.796875 51.625 33 
Q 55.609375 28.21875 55.609375 21.1875 
Q 55.609375 10.40625 48.1875 4.484375 
Q 40.765625 -1.421875 27.09375 -1.421875 
Q 22.515625 -1.421875 17.65625 -0.515625 
Q 12.796875 0.390625 7.625 2.203125 
L 7.625 11.71875 
Q 11.71875 9.328125 16.59375 8.109375 
Q 21.484375 6.890625 26.8125 6.890625 
Q 36.078125 6.890625 40.9375 10.546875 
Q 45.796875 14.203125 45.796875 21.1875 
Q 45.796875 27.640625 41.28125 31.265625 
Q 36.765625 34.90625 28.71875 34.90625 
L 20.21875 34.90625 
L 20.21875 43.015625 
L 29.109375 43.015625 
Q 36.375 43.015625 40.234375 45.921875 
Q 44.09375 48.828125 44.09375 54.296875 
Q 44.09375 59.90625 40.109375 62.90625 
Q 36.140625 65.921875 28.71875 65.921875 
Q 24.65625 65.921875 20.015625 65.03125 
Q 15.375 64.15625 9.8125 62.3125 
L 9.8125 71.09375 
Q 15.4375 72.65625 20.34375 73.4375 
Q 25.25 74.21875 29.59375 74.21875 
Q 40.828125 74.21875 47.359375 69.109375 
Q 53.90625 64.015625 53.90625 55.328125 
Q 53.90625 49.265625 50.4375 45.09375 
Q 46.96875 40.921875 40.578125 39.3125 
z
" id="DejaVuSans-51"/>
       </defs>
       <use xlink:href="#DejaVuSans-51"/>
       <use x="63.623047" xlink:href="#DejaVuSans-48"/>
      </g>
     </g>
    </g>
    <g id="xtick_5">
     <g id="line2d_5">
      <g>
       <use style="stroke:#000000;stroke-width:0.8;" x="643.68" xlink:href="#mcec56b20e6" y="512.64"/>
      </g>
     </g>
     <g id="text_5">
      <!-- 40 -->
      <g transform="translate(630.955 534.836875)scale(0.2 -0.2)">
       <defs>
        <path d="M 37.796875 64.3125 
L 12.890625 25.390625 
L 37.796875 25.390625 
z
M 35.203125 72.90625 
L 47.609375 72.90625 
L 47.609375 25.390625 
L 58.015625 25.390625 
L 58.015625 17.1875 
L 47.609375 17.1875 
L 47.609375 0 
L 37.796875 0 
L 37.796875 17.1875 
L 4.890625 17.1875 
L 4.890625 26.703125 
z
" id="DejaVuSans-52"/>
       </defs>
       <use xlink:href="#DejaVuSans-52"/>
       <use x="63.623047" xlink:href="#DejaVuSans-48"/>
      </g>
     </g>
    </g>
    <g id="xtick_6">
     <g id="line2d_6">
      <g>
       <use style="stroke:#000000;stroke-width:0.8;" x="777.6" xlink:href="#mcec56b20e6" y="512.64"/>
      </g>
     </g>
     <g id="text_6">
      <!-- 50 -->
      <g transform="translate(764.875 534.836875)scale(0.2 -0.2)">
       <defs>
        <path d="M 10.796875 72.90625 
L 49.515625 72.90625 
L 49.515625 64.59375 
L 19.828125 64.59375 
L 19.828125 46.734375 
Q 21.96875 47.46875 24.109375 47.828125 
Q 26.265625 48.1875 28.421875 48.1875 
Q 40.625 48.1875 47.75 41.5 
Q 54.890625 34.8125 54.890625 23.390625 
Q 54.890625 11.625 47.5625 5.09375 
Q 40.234375 -1.421875 26.90625 -1.421875 
Q 22.3125 -1.421875 17.546875 -0.640625 
Q 12.796875 0.140625 7.71875 1.703125 
L 7.71875 11.625 
Q 12.109375 9.234375 16.796875 8.0625 
Q 21.484375 6.890625 26.703125 6.890625 
Q 35.15625 6.890625 40.078125 11.328125 
Q 45.015625 15.765625 45.015625 23.390625 
Q 45.015625 31 40.078125 35.4375 
Q 35.15625 39.890625 26.703125 39.890625 
Q 22.75 39.890625 18.8125 39.015625 
Q 14.890625 38.140625 10.796875 36.28125 
z
" id="DejaVuSans-53"/>
       </defs>
       <use xlink:href="#DejaVuSans-53"/>
       <use x="63.623047" xlink:href="#DejaVuSans-48"/>
      </g>
     </g>
    </g>
    <g id="text_7">
     <!-- Iterations -->
     <g transform="translate(395.173437 558.193125)scale(0.2 -0.2)">
      <defs>
       <path d="M 9.8125 72.90625 
L 19.671875 72.90625 
L 19.671875 0 
L 9.8125 0 
z
" id="DejaVuSans-73"/>
       <path d="M 18.3125 70.21875 
L 18.3125 54.6875 
L 36.8125 54.6875 
L 36.8125 47.703125 
L 18.3125 47.703125 
L 18.3125 18.015625 
Q 18.3125 11.328125 20.140625 9.421875 
Q 21.96875 7.515625 27.59375 7.515625 
L 36.8125 7.515625 
L 36.8125 0 
L 27.59375 0 
Q 17.1875 0 13.234375 3.875 
Q 9.28125 7.765625 9.28125 18.015625 
L 9.28125 47.703125 
L 2.6875 47.703125 
L 2.6875 54.6875 
L 9.28125 54.6875 
L 9.28125 70.21875 
z
" id="DejaVuSans-116"/>
       <path d="M 56.203125 29.59375 
L 56.203125 25.203125 
L 14.890625 25.203125 
Q 15.484375 15.921875 20.484375 11.0625 
Q 25.484375 6.203125 34.421875 6.203125 
Q 39.59375 6.203125 44.453125 7.46875 
Q 49.3125 8.734375 54.109375 11.28125 
L 54.109375 2.78125 
Q 49.265625 0.734375 44.1875 -0.34375 
Q 39.109375 -1.421875 33.890625 -1.421875 
Q 20.796875 -1.421875 13.15625 6.1875 
Q 5.515625 13.8125 5.515625 26.8125 
Q 5.515625 40.234375 12.765625 48.109375 
Q 20.015625 56 32.328125 56 
Q 43.359375 56 49.78125 48.890625 
Q 56.203125 41.796875 56.203125 29.59375 
z
M 47.21875 32.234375 
Q 47.125 39.59375 43.09375 43.984375 
Q 39.0625 48.390625 32.421875 48.390625 
Q 24.90625 48.390625 20.390625 44.140625 
Q 15.875 39.890625 15.1875 32.171875 
z
" id="DejaVuSans-101"/>
       <path d="M 41.109375 46.296875 
Q 39.59375 47.171875 37.8125 47.578125 
Q 36.03125 48 33.890625 48 
Q 26.265625 48 22.1875 43.046875 
Q 18.109375 38.09375 18.109375 28.8125 
L 18.109375 0 
L 9.078125 0 
L 9.078125 54.6875 
L 18.109375 54.6875 
L 18.109375 46.1875 
Q 20.953125 51.171875 25.484375 53.578125 
Q 30.03125 56 36.53125 56 
Q 37.453125 56 38.578125 55.875 
Q 39.703125 55.765625 41.0625 55.515625 
z
" id="DejaVuSans-114"/>
       <path d="M 34.28125 27.484375 
Q 23.390625 27.484375 19.1875 25 
Q 14.984375 22.515625 14.984375 16.5 
Q 14.984375 11.71875 18.140625 8.90625 
Q 21.296875 6.109375 26.703125 6.109375 
Q 34.1875 6.109375 38.703125 11.40625 
Q 43.21875 16.703125 43.21875 25.484375 
L 43.21875 27.484375 
z
M 52.203125 31.203125 
L 52.203125 0 
L 43.21875 0 
L 43.21875 8.296875 
Q 40.140625 3.328125 35.546875 0.953125 
Q 30.953125 -1.421875 24.3125 -1.421875 
Q 15.921875 -1.421875 10.953125 3.296875 
Q 6 8.015625 6 15.921875 
Q 6 25.140625 12.171875 29.828125 
Q 18.359375 34.515625 30.609375 34.515625 
L 43.21875 34.515625 
L 43.21875 35.40625 
Q 43.21875 41.609375 39.140625 45 
Q 35.0625 48.390625 27.6875 48.390625 
Q 23 48.390625 18.546875 47.265625 
Q 14.109375 46.140625 10.015625 43.890625 
L 10.015625 52.203125 
Q 14.9375 54.109375 19.578125 55.046875 
Q 24.21875 56 28.609375 56 
Q 40.484375 56 46.34375 49.84375 
Q 52.203125 43.703125 52.203125 31.203125 
z
" id="DejaVuSans-97"/>
       <path d="M 9.421875 54.6875 
L 18.40625 54.6875 
L 18.40625 0 
L 9.421875 0 
z
M 9.421875 75.984375 
L 18.40625 75.984375 
L 18.40625 64.59375 
L 9.421875 64.59375 
z
" id="DejaVuSans-105"/>
       <path d="M 30.609375 48.390625 
Q 23.390625 48.390625 19.1875 42.75 
Q 14.984375 37.109375 14.984375 27.296875 
Q 14.984375 17.484375 19.15625 11.84375 
Q 23.34375 6.203125 30.609375 6.203125 
Q 37.796875 6.203125 41.984375 11.859375 
Q 46.1875 17.53125 46.1875 27.296875 
Q 46.1875 37.015625 41.984375 42.703125 
Q 37.796875 48.390625 30.609375 48.390625 
z
M 30.609375 56 
Q 42.328125 56 49.015625 48.375 
Q 55.71875 40.765625 55.71875 27.296875 
Q 55.71875 13.875 49.015625 6.21875 
Q 42.328125 -1.421875 30.609375 -1.421875 
Q 18.84375 -1.421875 12.171875 6.21875 
Q 5.515625 13.875 5.515625 27.296875 
Q 5.515625 40.765625 12.171875 48.375 
Q 18.84375 56 30.609375 56 
z
" id="DejaVuSans-111"/>
       <path d="M 54.890625 33.015625 
L 54.890625 0 
L 45.90625 0 
L 45.90625 32.71875 
Q 45.90625 40.484375 42.875 44.328125 
Q 39.84375 48.1875 33.796875 48.1875 
Q 26.515625 48.1875 22.3125 43.546875 
Q 18.109375 38.921875 18.109375 30.90625 
L 18.109375 0 
L 9.078125 0 
L 9.078125 54.6875 
L 18.109375 54.6875 
L 18.109375 46.1875 
Q 21.34375 51.125 25.703125 53.5625 
Q 30.078125 56 35.796875 56 
Q 45.21875 56 50.046875 50.171875 
Q 54.890625 44.34375 54.890625 33.015625 
z
" id="DejaVuSans-110"/>
       <path d="M 44.28125 53.078125 
L 44.28125 44.578125 
Q 40.484375 46.53125 36.375 47.5 
Q 32.28125 48.484375 27.875 48.484375 
Q 21.1875 48.484375 17.84375 46.4375 
Q 14.5 44.390625 14.5 40.28125 
Q 14.5 37.15625 16.890625 35.375 
Q 19.28125 33.59375 26.515625 31.984375 
L 29.59375 31.296875 
Q 39.15625 29.25 43.1875 25.515625 
Q 47.21875 21.78125 47.21875 15.09375 
Q 47.21875 7.46875 41.1875 3.015625 
Q 35.15625 -1.421875 24.609375 -1.421875 
Q 20.21875 -1.421875 15.453125 -0.5625 
Q 10.6875 0.296875 5.421875 2 
L 5.421875 11.28125 
Q 10.40625 8.6875 15.234375 7.390625 
Q 20.0625 6.109375 24.8125 6.109375 
Q 31.15625 6.109375 34.5625 8.28125 
Q 37.984375 10.453125 37.984375 14.40625 
Q 37.984375 18.0625 35.515625 20.015625 
Q 33.0625 21.96875 24.703125 23.78125 
L 21.578125 24.515625 
Q 13.234375 26.265625 9.515625 29.90625 
Q 5.8125 33.546875 5.8125 39.890625 
Q 5.8125 47.609375 11.28125 51.796875 
Q 16.75 56 26.8125 56 
Q 31.78125 56 36.171875 55.265625 
Q 40.578125 54.546875 44.28125 53.078125 
z
" id="DejaVuSans-115"/>
      </defs>
      <use xlink:href="#DejaVuSans-73"/>
      <use x="29.492188" xlink:href="#DejaVuSans-116"/>
      <use x="68.701172" xlink:href="#DejaVuSans-101"/>
      <use x="130.224609" xlink:href="#DejaVuSans-114"/>
      <use x="171.337891" xlink:href="#DejaVuSans-97"/>
      <use x="232.617188" xlink:href="#DejaVuSans-116"/>
      <use x="271.826172" xlink:href="#DejaVuSans-105"/>
      <use x="299.609375" xlink:href="#DejaVuSans-111"/>
      <use x="360.791016" xlink:href="#DejaVuSans-110"/>
      <use x="424.169922" xlink:href="#DejaVuSans-115"/>
     </g>
    </g>
   </g>
   <g id="matplotlib.axis_2">
    <g id="ytick_1">
     <g id="line2d_7">
      <defs>
       <path d="M 0 0 
L -3.5 0 
" id="m3920a36c7a" style="stroke:#000000;stroke-width:0.8;"/>
      </defs>
      <g>
       <use style="stroke:#000000;stroke-width:0.8;" x="108" xlink:href="#m3920a36c7a" y="512.64"/>
      </g>
     </g>
     <g id="text_8">
      <!-- 0.0 -->
      <g transform="translate(69.19375 520.238438)scale(0.2 -0.2)">
       <defs>
        <path d="M 10.6875 12.40625 
L 21 12.40625 
L 21 0 
L 10.6875 0 
z
" id="DejaVuSans-46"/>
       </defs>
       <use xlink:href="#DejaVuSans-48"/>
       <use x="63.623047" xlink:href="#DejaVuSans-46"/>
       <use x="95.410156" xlink:href="#DejaVuSans-48"/>
      </g>
     </g>
    </g>
    <g id="ytick_2">
     <g id="line2d_8">
      <g>
       <use style="stroke:#000000;stroke-width:0.8;" x="108" xlink:href="#m3920a36c7a" y="290.88"/>
      </g>
     </g>
     <g id="text_9">
      <!-- 0.5 -->
      <g transform="translate(69.19375 298.478437)scale(0.2 -0.2)">
       <use xlink:href="#DejaVuSans-48"/>
       <use x="63.623047" xlink:href="#DejaVuSans-46"/>
       <use x="95.410156" xlink:href="#DejaVuSans-53"/>
      </g>
     </g>
    </g>
    <g id="ytick_3">
     <g id="line2d_9">
      <g>
       <use style="stroke:#000000;stroke-width:0.8;" x="108" xlink:href="#m3920a36c7a" y="69.12"/>
      </g>
     </g>
     <g id="text_10">
      <!-- 1.0 -->
      <g transform="translate(69.19375 76.718437)scale(0.2 -0.2)">
       <use xlink:href="#DejaVuSans-49"/>
       <use x="63.623047" xlink:href="#DejaVuSans-46"/>
       <use x="95.410156" xlink:href="#DejaVuSans-48"/>
      </g>
     </g>
    </g>
    <g id="text_11">
     <!-- RER -->
     <g transform="translate(61.034375 311.095625)rotate(-90)scale(0.2 -0.2)">
      <defs>
       <path d="M 44.390625 34.1875 
Q 47.5625 33.109375 50.5625 29.59375 
Q 53.5625 26.078125 56.59375 19.921875 
L 66.609375 0 
L 56 0 
L 46.6875 18.703125 
Q 43.0625 26.03125 39.671875 28.421875 
Q 36.28125 30.8125 30.421875 30.8125 
L 19.671875 30.8125 
L 19.671875 0 
L 9.8125 0 
L 9.8125 72.90625 
L 32.078125 72.90625 
Q 44.578125 72.90625 50.734375 67.671875 
Q 56.890625 62.453125 56.890625 51.90625 
Q 56.890625 45.015625 53.6875 40.46875 
Q 50.484375 35.9375 44.390625 34.1875 
z
M 19.671875 64.796875 
L 19.671875 38.921875 
L 32.078125 38.921875 
Q 39.203125 38.921875 42.84375 42.21875 
Q 46.484375 45.515625 46.484375 51.90625 
Q 46.484375 58.296875 42.84375 61.546875 
Q 39.203125 64.796875 32.078125 64.796875 
z
" id="DejaVuSans-82"/>
       <path d="M 9.8125 72.90625 
L 55.90625 72.90625 
L 55.90625 64.59375 
L 19.671875 64.59375 
L 19.671875 43.015625 
L 54.390625 43.015625 
L 54.390625 34.71875 
L 19.671875 34.71875 
L 19.671875 8.296875 
L 56.78125 8.296875 
L 56.78125 0 
L 9.8125 0 
z
" id="DejaVuSans-69"/>
      </defs>
      <use xlink:href="#DejaVuSans-82"/>
      <use x="69.482422" xlink:href="#DejaVuSans-69"/>
      <use x="132.666016" xlink:href="#DejaVuSans-82"/>
     </g>
    </g>
   </g>
   <g id="line2d_10">
    <path clip-path="url(#p9048fb17a2)" d="M 121.392 69.12 
L 134.784 72.936426 
L 148.176 78.524364 
L 161.568 87.063742 
L 174.96 96.887948 
L 188.352 109.752434 
L 201.744 126.640934 
L 215.136 149.14231 
L 228.528 183.572557 
L 241.92 242.33511 
L 255.312 339.084177 
L 268.704 423.395856 
L 282.096 446.866375 
L 295.488 450.789639 
L 308.88 457.475406 
L 322.272 460.794905 
L 335.664 467.254835 
L 349.056 467.917861 
L 362.448 472.801747 
L 375.84 474.701097 
L 389.232 479.273168 
L 402.624 481.634864 
L 416.016 484.820277 
L 429.408 486.587797 
L 442.8 486.946948 
L 456.192 487.879382 
L 469.584 488.968901 
L 482.976 490.245433 
L 496.368 489.795268 
L 509.76 495.980722 
L 523.152 497.775854 
L 536.544 498.290052 
L 549.936 499.075385 
L 563.328 500.329291 
L 576.72 501.739206 
L 590.112 500.158109 
L 603.504 502.456318 
L 616.896 506.797592 
L 630.288 504.960441 
L 643.68 506.111401 
L 657.072 505.929523 
L 670.464 505.74432 
L 683.856 506.495709 
L 697.248 508.792941 
L 710.64 507.560495 
L 724.032 508.783843 
L 737.424 508.268782 
L 750.816 511.353279 
L 764.208 510.069708 
L 777.6 512.64 
" style="fill:none;stroke:#800080;stroke-linecap:square;stroke-width:1.5;"/>
   </g>
   <g id="line2d_11">
    <path clip-path="url(#p9048fb17a2)" d="M 121.392 69.12 
L 134.784 71.293976 
L 148.176 74.344013 
L 161.568 78.699696 
L 174.96 84.135762 
L 188.352 88.99338 
L 201.744 94.556132 
L 215.136 100.32118 
L 228.528 109.054761 
L 241.92 115.34396 
L 255.312 126.83263 
L 268.704 136.095726 
L 282.096 150.633419 
L 295.488 166.119371 
L 308.88 181.71497 
L 322.272 206.604286 
L 335.664 237.240114 
L 349.056 272.68307 
L 362.448 329.088534 
L 375.84 390.723319 
L 389.232 449.176778 
L 402.624 470.326526 
L 416.016 478.45297 
L 429.408 480.885119 
L 442.8 483.864767 
L 456.192 484.764205 
L 469.584 487.142956 
L 482.976 489.079436 
L 496.368 488.172156 
L 509.76 494.48038 
L 523.152 495.95897 
L 536.544 494.958224 
L 549.936 496.37455 
L 563.328 497.232786 
L 576.72 498.369513 
L 590.112 498.279528 
L 603.504 500.181917 
L 616.896 499.426763 
L 630.288 504.469023 
L 643.68 502.926392 
L 657.072 503.645245 
L 670.464 505.103403 
L 683.856 508.155897 
L 697.248 506.104271 
L 710.64 508.044218 
L 724.032 507.850631 
L 737.424 509.898016 
L 750.816 510.654925 
L 764.208 510.998002 
L 777.6 512.64 
" style="fill:none;stroke:#0000ff;stroke-linecap:square;stroke-width:1.5;"/>
   </g>
   <g id="line2d_12">
    <path clip-path="url(#p9048fb17a2)" d="M 121.392 69.12 
L 134.784 73.493009 
L 148.176 76.399069 
L 161.568 81.228477 
L 174.96 83.576942 
L 188.352 91.28217 
L 201.744 97.318473 
L 215.136 104.456462 
L 228.528 110.223275 
L 241.92 121.758725 
L 255.312 130.658753 
L 268.704 144.503306 
L 282.096 160.988754 
L 295.488 180.00749 
L 308.88 204.036831 
L 322.272 236.540668 
L 335.664 281.214658 
L 349.056 334.345442 
L 362.448 397.712761 
L 375.84 446.115099 
L 389.232 468.201293 
L 402.624 470.927627 
L 416.016 475.204889 
L 429.408 481.151649 
L 442.8 480.642228 
L 456.192 486.238712 
L 469.584 487.994118 
L 482.976 487.77443 
L 496.368 488.705878 
L 509.76 491.106453 
L 523.152 494.36531 
L 536.544 493.727498 
L 549.936 495.931012 
L 563.328 497.186473 
L 576.72 499.599691 
L 590.112 500.112435 
L 603.504 498.592339 
L 616.896 504.939014 
L 630.288 502.727484 
L 643.68 506.982614 
L 657.072 505.742286 
L 670.464 505.731005 
L 683.856 506.676081 
L 697.248 508.885812 
L 710.64 509.322653 
L 724.032 509.026749 
L 737.424 508.746609 
L 750.816 510.20233 
L 764.208 508.453865 
L 777.6 512.64 
" style="fill:none;stroke:#008000;stroke-linecap:square;stroke-width:1.5;"/>
   </g>
   <g id="line2d_13">
    <path clip-path="url(#p9048fb17a2)" d="M 121.392 69.967276 
L 134.784 69.12 
L 148.176 72.100742 
L 161.568 72.231326 
L 174.96 75.549973 
L 188.352 77.418421 
L 201.744 81.792234 
L 215.136 85.061654 
L 228.528 88.440185 
L 241.92 93.494387 
L 255.312 95.74146 
L 268.704 101.063799 
L 282.096 106.015009 
L 295.488 110.381651 
L 308.88 117.646056 
L 322.272 120.356109 
L 335.664 131.327753 
L 349.056 141.84282 
L 362.448 148.912059 
L 375.84 161.114507 
L 389.232 178.82579 
L 402.624 194.398179 
L 416.016 208.860179 
L 429.408 230.97781 
L 442.8 260.795072 
L 456.192 296.446293 
L 469.584 334.295926 
L 482.976 380.265548 
L 496.368 418.239971 
L 509.76 466.731609 
L 523.152 478.605065 
L 536.544 480.221259 
L 549.936 482.829504 
L 563.328 487.941716 
L 576.72 494.519755 
L 590.112 495.390551 
L 603.504 493.680167 
L 616.896 495.853774 
L 630.288 500.263231 
L 643.68 502.418241 
L 657.072 499.157633 
L 670.464 504.532836 
L 683.856 500.911815 
L 697.248 503.352293 
L 710.64 506.993986 
L 724.032 505.585742 
L 737.424 510.771288 
L 750.816 510.17105 
L 764.208 509.115955 
L 777.6 512.64 
" style="fill:none;stroke:#bfbf00;stroke-linecap:square;stroke-width:1.5;"/>
   </g>
   <g id="line2d_14">
    <path clip-path="url(#p9048fb17a2)" d="M 121.392 69.12 
L 134.784 82.496866 
L 148.176 84.214548 
L 161.568 79.673633 
L 174.96 90.470067 
L 188.352 94.153743 
L 201.744 97.734094 
L 215.136 97.057611 
L 228.528 94.363726 
L 241.92 102.663824 
L 255.312 111.776676 
L 268.704 115.248959 
L 282.096 122.953079 
L 295.488 121.109254 
L 308.88 125.328656 
L 322.272 141.597211 
L 335.664 142.984791 
L 349.056 145.059495 
L 362.448 161.518291 
L 375.84 157.661039 
L 389.232 171.722465 
L 402.624 173.683588 
L 416.016 179.161991 
L 429.408 196.473923 
L 442.8 188.640839 
L 456.192 194.959558 
L 469.584 185.799274 
L 482.976 229.141279 
L 496.368 227.769852 
L 509.76 233.707063 
L 523.152 237.456503 
L 536.544 258.641455 
L 549.936 251.832776 
L 563.328 268.320031 
L 576.72 289.413965 
L 590.112 283.589308 
L 603.504 283.376889 
L 616.896 311.00132 
L 630.288 322.725756 
L 643.68 344.787175 
L 657.072 349.420775 
L 670.464 367.632121 
L 683.856 392.450369 
L 697.248 401.095695 
L 710.64 420.39221 
L 724.032 428.152223 
L 737.424 453.420947 
L 750.816 468.428707 
L 764.208 493.295412 
L 777.6 512.64 
" style="fill:none;stroke:#ff0000;stroke-linecap:square;stroke-width:1.5;"/>
   </g>
   <g id="patch_3">
    <path d="M 108 512.64 
L 108 69.12 
" style="fill:none;stroke:#000000;stroke-linecap:square;stroke-linejoin:miter;stroke-width:0.8;"/>
   </g>
   <g id="patch_4">
    <path d="M 777.6 512.64 
L 777.6 69.12 
" style="fill:none;stroke:#000000;stroke-linecap:square;stroke-linejoin:miter;stroke-width:0.8;"/>
   </g>
   <g id="patch_5">
    <path d="M 108 512.64 
L 777.6 512.64 
" style="fill:none;stroke:#000000;stroke-linecap:square;stroke-linejoin:miter;stroke-width:0.8;"/>
   </g>
   <g id="patch_6">
    <path d="M 108 69.12 
L 777.6 69.12 
" style="fill:none;stroke:#000000;stroke-linecap:square;stroke-linejoin:miter;stroke-width:0.8;"/>
   </g>
   <g id="legend_1">
    <g id="patch_7">
     <path d="M 705.923437 150.510625 
L 770.6 150.510625 
Q 772.6 150.510625 772.6 148.510625 
L 772.6 76.12 
Q 772.6 74.12 770.6 74.12 
L 705.923437 74.12 
Q 703.923437 74.12 703.923437 76.12 
L 703.923437 148.510625 
Q 703.923437 150.510625 705.923437 150.510625 
z
" style="fill:#ffffff;opacity:0.8;stroke:#cccccc;stroke-linejoin:miter;"/>
    </g>
    <g id="line2d_15">
     <path d="M 707.923437 82.218437 
L 727.923437 82.218437 
" style="fill:none;stroke:#800080;stroke-linecap:square;stroke-width:1.5;"/>
    </g>
    <g id="line2d_16"/>
    <g id="text_12">
     <!-- s=100 -->
     <g transform="translate(735.923437 85.718437)scale(0.1 -0.1)">
      <defs>
       <path d="M 10.59375 45.40625 
L 73.1875 45.40625 
L 73.1875 37.203125 
L 10.59375 37.203125 
z
M 10.59375 25.484375 
L 73.1875 25.484375 
L 73.1875 17.1875 
L 10.59375 17.1875 
z
" id="DejaVuSans-61"/>
      </defs>
      <use xlink:href="#DejaVuSans-115"/>
      <use x="52.099609" xlink:href="#DejaVuSans-61"/>
      <use x="135.888672" xlink:href="#DejaVuSans-49"/>
      <use x="199.511719" xlink:href="#DejaVuSans-48"/>
      <use x="263.134766" xlink:href="#DejaVuSans-48"/>
     </g>
    </g>
    <g id="line2d_17">
     <path d="M 707.923437 96.896563 
L 727.923437 96.896563 
" style="fill:none;stroke:#0000ff;stroke-linecap:square;stroke-width:1.5;"/>
    </g>
    <g id="line2d_18"/>
    <g id="text_13">
     <!-- s=80 -->
     <g transform="translate(735.923437 100.396563)scale(0.1 -0.1)">
      <defs>
       <path d="M 31.78125 34.625 
Q 24.75 34.625 20.71875 30.859375 
Q 16.703125 27.09375 16.703125 20.515625 
Q 16.703125 13.921875 20.71875 10.15625 
Q 24.75 6.390625 31.78125 6.390625 
Q 38.8125 6.390625 42.859375 10.171875 
Q 46.921875 13.96875 46.921875 20.515625 
Q 46.921875 27.09375 42.890625 30.859375 
Q 38.875 34.625 31.78125 34.625 
z
M 21.921875 38.8125 
Q 15.578125 40.375 12.03125 44.71875 
Q 8.5 49.078125 8.5 55.328125 
Q 8.5 64.0625 14.71875 69.140625 
Q 20.953125 74.21875 31.78125 74.21875 
Q 42.671875 74.21875 48.875 69.140625 
Q 55.078125 64.0625 55.078125 55.328125 
Q 55.078125 49.078125 51.53125 44.71875 
Q 48 40.375 41.703125 38.8125 
Q 48.828125 37.15625 52.796875 32.3125 
Q 56.78125 27.484375 56.78125 20.515625 
Q 56.78125 9.90625 50.3125 4.234375 
Q 43.84375 -1.421875 31.78125 -1.421875 
Q 19.734375 -1.421875 13.25 4.234375 
Q 6.78125 9.90625 6.78125 20.515625 
Q 6.78125 27.484375 10.78125 32.3125 
Q 14.796875 37.15625 21.921875 38.8125 
z
M 18.3125 54.390625 
Q 18.3125 48.734375 21.84375 45.5625 
Q 25.390625 42.390625 31.78125 42.390625 
Q 38.140625 42.390625 41.71875 45.5625 
Q 45.3125 48.734375 45.3125 54.390625 
Q 45.3125 60.0625 41.71875 63.234375 
Q 38.140625 66.40625 31.78125 66.40625 
Q 25.390625 66.40625 21.84375 63.234375 
Q 18.3125 60.0625 18.3125 54.390625 
z
" id="DejaVuSans-56"/>
      </defs>
      <use xlink:href="#DejaVuSans-115"/>
      <use x="52.099609" xlink:href="#DejaVuSans-61"/>
      <use x="135.888672" xlink:href="#DejaVuSans-56"/>
      <use x="199.511719" xlink:href="#DejaVuSans-48"/>
     </g>
    </g>
    <g id="line2d_19">
     <path d="M 707.923437 111.574687 
L 727.923437 111.574687 
" style="fill:none;stroke:#008000;stroke-linecap:square;stroke-width:1.5;"/>
    </g>
    <g id="line2d_20"/>
    <g id="text_14">
     <!-- s=60 -->
     <g transform="translate(735.923437 115.074687)scale(0.1 -0.1)">
      <defs>
       <path d="M 33.015625 40.375 
Q 26.375 40.375 22.484375 35.828125 
Q 18.609375 31.296875 18.609375 23.390625 
Q 18.609375 15.53125 22.484375 10.953125 
Q 26.375 6.390625 33.015625 6.390625 
Q 39.65625 6.390625 43.53125 10.953125 
Q 47.40625 15.53125 47.40625 23.390625 
Q 47.40625 31.296875 43.53125 35.828125 
Q 39.65625 40.375 33.015625 40.375 
z
M 52.59375 71.296875 
L 52.59375 62.3125 
Q 48.875 64.0625 45.09375 64.984375 
Q 41.3125 65.921875 37.59375 65.921875 
Q 27.828125 65.921875 22.671875 59.328125 
Q 17.53125 52.734375 16.796875 39.40625 
Q 19.671875 43.65625 24.015625 45.921875 
Q 28.375 48.1875 33.59375 48.1875 
Q 44.578125 48.1875 50.953125 41.515625 
Q 57.328125 34.859375 57.328125 23.390625 
Q 57.328125 12.15625 50.6875 5.359375 
Q 44.046875 -1.421875 33.015625 -1.421875 
Q 20.359375 -1.421875 13.671875 8.265625 
Q 6.984375 17.96875 6.984375 36.375 
Q 6.984375 53.65625 15.1875 63.9375 
Q 23.390625 74.21875 37.203125 74.21875 
Q 40.921875 74.21875 44.703125 73.484375 
Q 48.484375 72.75 52.59375 71.296875 
z
" id="DejaVuSans-54"/>
      </defs>
      <use xlink:href="#DejaVuSans-115"/>
      <use x="52.099609" xlink:href="#DejaVuSans-61"/>
      <use x="135.888672" xlink:href="#DejaVuSans-54"/>
      <use x="199.511719" xlink:href="#DejaVuSans-48"/>
     </g>
    </g>
    <g id="line2d_21">
     <path d="M 707.923437 126.252813 
L 727.923437 126.252813 
" style="fill:none;stroke:#bfbf00;stroke-linecap:square;stroke-width:1.5;"/>
    </g>
    <g id="line2d_22"/>
    <g id="text_15">
     <!-- s=40 -->
     <g transform="translate(735.923437 129.752813)scale(0.1 -0.1)">
      <use xlink:href="#DejaVuSans-115"/>
      <use x="52.099609" xlink:href="#DejaVuSans-61"/>
      <use x="135.888672" xlink:href="#DejaVuSans-52"/>
      <use x="199.511719" xlink:href="#DejaVuSans-48"/>
     </g>
    </g>
    <g id="line2d_23">
     <path d="M 707.923437 140.930938 
L 727.923437 140.930938 
" style="fill:none;stroke:#ff0000;stroke-linecap:square;stroke-width:1.5;"/>
    </g>
    <g id="line2d_24"/>
    <g id="text_16">
     <!-- s=20 -->
     <g transform="translate(735.923437 144.430938)scale(0.1 -0.1)">
      <use xlink:href="#DejaVuSans-115"/>
      <use x="52.099609" xlink:href="#DejaVuSans-61"/>
      <use x="135.888672" xlink:href="#DejaVuSans-50"/>
      <use x="199.511719" xlink:href="#DejaVuSans-48"/>
     </g>
    </g>
   </g>
  </g>
 </g>
 <defs>
  <clipPath id="p9048fb17a2">
   <rect height="443.52" width="669.6" x="108" y="69.12"/>
  </clipPath>
 </defs>
</svg>
