<?xml version="1.0" encoding="utf-8" standalone="no"?>
<!DOCTYPE svg PUBLIC "-//W3C//DTD SVG 1.1//EN"
  "http://www.w3.org/Graphics/SVG/1.1/DTD/svg11.dtd">
<!-- Created with matplotlib (https://matplotlib.org/) -->
<svg height="576pt" version="1.1" viewBox="0 0 864 576" width="864pt" xmlns="http://www.w3.org/2000/svg" xmlns:xlink="http://www.w3.org/1999/xlink">
 <metadata>
  <rdf:RDF xmlns:cc="http://creativecommons.org/ns#" xmlns:dc="http://purl.org/dc/elements/1.1/" xmlns:rdf="http://www.w3.org/1999/02/22-rdf-syntax-ns#">
   <cc:Work>
    <dc:type rdf:resource="http://purl.org/dc/dcmitype/StillImage"/>
    <dc:date>2023-04-23T10:34:55.361696</dc:date>
    <dc:format>image/svg+xml</dc:format>
    <dc:creator>
     <cc:Agent>
      <dc:title>Matplotlib v3.3.4, https://matplotlib.org/</dc:title>
     </cc:Agent>
    </dc:creator>
   </cc:Work>
  </rdf:RDF>
 </metadata>
 <defs>
  <style type="text/css">*{stroke-linecap:butt;stroke-linejoin:round;}</style>
 </defs>
 <g id="figure_1">
  <g id="patch_1">
   <path d="M 0 576 
L 864 576 
L 864 0 
L 0 0 
z
" style="fill:#ffffff;"/>
  </g>
  <g id="axes_1">
   <g id="patch_2">
    <path d="M 108 512.64 
L 777.6 512.64 
L 777.6 69.12 
L 108 69.12 
z
" style="fill:#ffffff;"/>
   </g>
   <g id="PathCollection_1">
    <defs>
     <path d="M 0 3 
C 0.795609 3 1.55874 2.683901 2.12132 2.12132 
C 2.683901 1.55874 3 0.795609 3 0 
C 3 -0.795609 2.683901 -1.55874 2.12132 -2.12132 
C 1.55874 -2.683901 0.795609 -3 0 -3 
C -0.795609 -3 -1.55874 -2.683901 -2.12132 -2.12132 
C -2.683901 -1.55874 -3 -0.795609 -3 0 
C -3 0.795609 -2.683901 1.55874 -2.12132 2.12132 
C -1.55874 2.683901 -0.795609 3 0 3 
z
" id="mfdae2e7017" style="stroke:#800080;"/>
    </defs>
    <g clip-path="url(#p3c20fa9053)">
     <use style="fill:#800080;stroke:#800080;" x="121.392" xlink:href="#mfdae2e7017" y="69.12"/>
     <use style="fill:#800080;stroke:#800080;" x="134.784" xlink:href="#mfdae2e7017" y="71.771128"/>
     <use style="fill:#800080;stroke:#800080;" x="148.176" xlink:href="#mfdae2e7017" y="74.691275"/>
     <use style="fill:#800080;stroke:#800080;" x="161.568" xlink:href="#mfdae2e7017" y="77.672772"/>
     <use style="fill:#800080;stroke:#800080;" x="174.96" xlink:href="#mfdae2e7017" y="82.023978"/>
     <use style="fill:#800080;stroke:#800080;" x="188.352" xlink:href="#mfdae2e7017" y="86.897864"/>
     <use style="fill:#800080;stroke:#800080;" x="201.744" xlink:href="#mfdae2e7017" y="93.459249"/>
     <use style="fill:#800080;stroke:#800080;" x="215.136" xlink:href="#mfdae2e7017" y="98.761672"/>
     <use style="fill:#800080;stroke:#800080;" x="228.528" xlink:href="#mfdae2e7017" y="108.728319"/>
     <use style="fill:#800080;stroke:#800080;" x="241.92" xlink:href="#mfdae2e7017" y="117.266812"/>
     <use style="fill:#800080;stroke:#800080;" x="255.312" xlink:href="#mfdae2e7017" y="131.306846"/>
     <use style="fill:#800080;stroke:#800080;" x="268.704" xlink:href="#mfdae2e7017" y="150.032149"/>
     <use style="fill:#800080;stroke:#800080;" x="282.096" xlink:href="#mfdae2e7017" y="171.268778"/>
     <use style="fill:#800080;stroke:#800080;" x="295.488" xlink:href="#mfdae2e7017" y="205.430597"/>
     <use style="fill:#800080;stroke:#800080;" x="308.88" xlink:href="#mfdae2e7017" y="257.970996"/>
     <use style="fill:#800080;stroke:#800080;" x="322.272" xlink:href="#mfdae2e7017" y="335.539172"/>
     <use style="fill:#800080;stroke:#800080;" x="335.664" xlink:href="#mfdae2e7017" y="415.989296"/>
     <use style="fill:#800080;stroke:#800080;" x="349.056" xlink:href="#mfdae2e7017" y="446.665317"/>
     <use style="fill:#800080;stroke:#800080;" x="362.448" xlink:href="#mfdae2e7017" y="458.043004"/>
     <use style="fill:#800080;stroke:#800080;" x="375.84" xlink:href="#mfdae2e7017" y="465.097266"/>
     <use style="fill:#800080;stroke:#800080;" x="389.232" xlink:href="#mfdae2e7017" y="473.13879"/>
     <use style="fill:#800080;stroke:#800080;" x="402.624" xlink:href="#mfdae2e7017" y="477.40716"/>
     <use style="fill:#800080;stroke:#800080;" x="416.016" xlink:href="#mfdae2e7017" y="481.571161"/>
     <use style="fill:#800080;stroke:#800080;" x="429.408" xlink:href="#mfdae2e7017" y="484.600699"/>
     <use style="fill:#800080;stroke:#800080;" x="442.8" xlink:href="#mfdae2e7017" y="487.360617"/>
     <use style="fill:#800080;stroke:#800080;" x="456.192" xlink:href="#mfdae2e7017" y="487.665406"/>
     <use style="fill:#800080;stroke:#800080;" x="469.584" xlink:href="#mfdae2e7017" y="492.91148"/>
     <use style="fill:#800080;stroke:#800080;" x="482.976" xlink:href="#mfdae2e7017" y="493.057913"/>
     <use style="fill:#800080;stroke:#800080;" x="496.368" xlink:href="#mfdae2e7017" y="493.694825"/>
     <use style="fill:#800080;stroke:#800080;" x="509.76" xlink:href="#mfdae2e7017" y="495.454768"/>
     <use style="fill:#800080;stroke:#800080;" x="523.152" xlink:href="#mfdae2e7017" y="498.365789"/>
     <use style="fill:#800080;stroke:#800080;" x="536.544" xlink:href="#mfdae2e7017" y="498.717773"/>
     <use style="fill:#800080;stroke:#800080;" x="549.936" xlink:href="#mfdae2e7017" y="500.182257"/>
     <use style="fill:#800080;stroke:#800080;" x="563.328" xlink:href="#mfdae2e7017" y="500.683731"/>
     <use style="fill:#800080;stroke:#800080;" x="576.72" xlink:href="#mfdae2e7017" y="501.062369"/>
     <use style="fill:#800080;stroke:#800080;" x="590.112" xlink:href="#mfdae2e7017" y="503.964278"/>
     <use style="fill:#800080;stroke:#800080;" x="603.504" xlink:href="#mfdae2e7017" y="504.432296"/>
     <use style="fill:#800080;stroke:#800080;" x="616.896" xlink:href="#mfdae2e7017" y="505.050757"/>
     <use style="fill:#800080;stroke:#800080;" x="630.288" xlink:href="#mfdae2e7017" y="505.749122"/>
     <use style="fill:#800080;stroke:#800080;" x="643.68" xlink:href="#mfdae2e7017" y="507.005662"/>
     <use style="fill:#800080;stroke:#800080;" x="657.072" xlink:href="#mfdae2e7017" y="507.303763"/>
     <use style="fill:#800080;stroke:#800080;" x="670.464" xlink:href="#mfdae2e7017" y="507.492011"/>
     <use style="fill:#800080;stroke:#800080;" x="683.856" xlink:href="#mfdae2e7017" y="508.568808"/>
     <use style="fill:#800080;stroke:#800080;" x="697.248" xlink:href="#mfdae2e7017" y="508.268538"/>
     <use style="fill:#800080;stroke:#800080;" x="710.64" xlink:href="#mfdae2e7017" y="509.815225"/>
     <use style="fill:#800080;stroke:#800080;" x="724.032" xlink:href="#mfdae2e7017" y="510.755182"/>
     <use style="fill:#800080;stroke:#800080;" x="737.424" xlink:href="#mfdae2e7017" y="511.851913"/>
     <use style="fill:#800080;stroke:#800080;" x="750.816" xlink:href="#mfdae2e7017" y="510.717264"/>
     <use style="fill:#800080;stroke:#800080;" x="764.208" xlink:href="#mfdae2e7017" y="512.64"/>
     <use style="fill:#800080;stroke:#800080;" x="777.6" xlink:href="#mfdae2e7017" y="511.804842"/>
    </g>
   </g>
   <g id="PathCollection_2">
    <defs>
     <path d="M 0 3 
C 0.795609 3 1.55874 2.683901 2.12132 2.12132 
C 2.683901 1.55874 3 0.795609 3 0 
C 3 -0.795609 2.683901 -1.55874 2.12132 -2.12132 
C 1.55874 -2.683901 0.795609 -3 0 -3 
C -0.795609 -3 -1.55874 -2.683901 -2.12132 -2.12132 
C -2.683901 -1.55874 -3 -0.795609 -3 0 
C -3 0.795609 -2.683901 1.55874 -2.12132 2.12132 
C -1.55874 2.683901 -0.795609 3 0 3 
z
" id="m4d33d87f3a" style="stroke:#0000ff;"/>
    </defs>
    <g clip-path="url(#p3c20fa9053)">
     <use style="fill:#0000ff;stroke:#0000ff;" x="121.392" xlink:href="#m4d33d87f3a" y="69.12"/>
     <use style="fill:#0000ff;stroke:#0000ff;" x="134.784" xlink:href="#m4d33d87f3a" y="70.202002"/>
     <use style="fill:#0000ff;stroke:#0000ff;" x="148.176" xlink:href="#m4d33d87f3a" y="74.845755"/>
     <use style="fill:#0000ff;stroke:#0000ff;" x="161.568" xlink:href="#m4d33d87f3a" y="76.245439"/>
     <use style="fill:#0000ff;stroke:#0000ff;" x="174.96" xlink:href="#m4d33d87f3a" y="79.732635"/>
     <use style="fill:#0000ff;stroke:#0000ff;" x="188.352" xlink:href="#m4d33d87f3a" y="84.003071"/>
     <use style="fill:#0000ff;stroke:#0000ff;" x="201.744" xlink:href="#m4d33d87f3a" y="89.19312"/>
     <use style="fill:#0000ff;stroke:#0000ff;" x="215.136" xlink:href="#m4d33d87f3a" y="94.035814"/>
     <use style="fill:#0000ff;stroke:#0000ff;" x="228.528" xlink:href="#m4d33d87f3a" y="100.691341"/>
     <use style="fill:#0000ff;stroke:#0000ff;" x="241.92" xlink:href="#m4d33d87f3a" y="106.083664"/>
     <use style="fill:#0000ff;stroke:#0000ff;" x="255.312" xlink:href="#m4d33d87f3a" y="116.537861"/>
     <use style="fill:#0000ff;stroke:#0000ff;" x="268.704" xlink:href="#m4d33d87f3a" y="126.727269"/>
     <use style="fill:#0000ff;stroke:#0000ff;" x="282.096" xlink:href="#m4d33d87f3a" y="137.44612"/>
     <use style="fill:#0000ff;stroke:#0000ff;" x="295.488" xlink:href="#m4d33d87f3a" y="155.941149"/>
     <use style="fill:#0000ff;stroke:#0000ff;" x="308.88" xlink:href="#m4d33d87f3a" y="174.341947"/>
     <use style="fill:#0000ff;stroke:#0000ff;" x="322.272" xlink:href="#m4d33d87f3a" y="197.115663"/>
     <use style="fill:#0000ff;stroke:#0000ff;" x="335.664" xlink:href="#m4d33d87f3a" y="230.824722"/>
     <use style="fill:#0000ff;stroke:#0000ff;" x="349.056" xlink:href="#m4d33d87f3a" y="272.947554"/>
     <use style="fill:#0000ff;stroke:#0000ff;" x="362.448" xlink:href="#m4d33d87f3a" y="335.483765"/>
     <use style="fill:#0000ff;stroke:#0000ff;" x="375.84" xlink:href="#m4d33d87f3a" y="423.189492"/>
     <use style="fill:#0000ff;stroke:#0000ff;" x="389.232" xlink:href="#m4d33d87f3a" y="472.887685"/>
     <use style="fill:#0000ff;stroke:#0000ff;" x="402.624" xlink:href="#m4d33d87f3a" y="486.274612"/>
     <use style="fill:#0000ff;stroke:#0000ff;" x="416.016" xlink:href="#m4d33d87f3a" y="488.667302"/>
     <use style="fill:#0000ff;stroke:#0000ff;" x="429.408" xlink:href="#m4d33d87f3a" y="486.551482"/>
     <use style="fill:#0000ff;stroke:#0000ff;" x="442.8" xlink:href="#m4d33d87f3a" y="493.063219"/>
     <use style="fill:#0000ff;stroke:#0000ff;" x="456.192" xlink:href="#m4d33d87f3a" y="495.9189"/>
     <use style="fill:#0000ff;stroke:#0000ff;" x="469.584" xlink:href="#m4d33d87f3a" y="489.298185"/>
     <use style="fill:#0000ff;stroke:#0000ff;" x="482.976" xlink:href="#m4d33d87f3a" y="492.658839"/>
     <use style="fill:#0000ff;stroke:#0000ff;" x="496.368" xlink:href="#m4d33d87f3a" y="495.958926"/>
     <use style="fill:#0000ff;stroke:#0000ff;" x="509.76" xlink:href="#m4d33d87f3a" y="496.766187"/>
     <use style="fill:#0000ff;stroke:#0000ff;" x="523.152" xlink:href="#m4d33d87f3a" y="499.07259"/>
     <use style="fill:#0000ff;stroke:#0000ff;" x="536.544" xlink:href="#m4d33d87f3a" y="499.384924"/>
     <use style="fill:#0000ff;stroke:#0000ff;" x="549.936" xlink:href="#m4d33d87f3a" y="502.279374"/>
     <use style="fill:#0000ff;stroke:#0000ff;" x="563.328" xlink:href="#m4d33d87f3a" y="503.084838"/>
     <use style="fill:#0000ff;stroke:#0000ff;" x="576.72" xlink:href="#m4d33d87f3a" y="504.244359"/>
     <use style="fill:#0000ff;stroke:#0000ff;" x="590.112" xlink:href="#m4d33d87f3a" y="503.556991"/>
     <use style="fill:#0000ff;stroke:#0000ff;" x="603.504" xlink:href="#m4d33d87f3a" y="506.936751"/>
     <use style="fill:#0000ff;stroke:#0000ff;" x="616.896" xlink:href="#m4d33d87f3a" y="507.187131"/>
     <use style="fill:#0000ff;stroke:#0000ff;" x="630.288" xlink:href="#m4d33d87f3a" y="507.153159"/>
     <use style="fill:#0000ff;stroke:#0000ff;" x="643.68" xlink:href="#m4d33d87f3a" y="506.936919"/>
     <use style="fill:#0000ff;stroke:#0000ff;" x="657.072" xlink:href="#m4d33d87f3a" y="508.440152"/>
     <use style="fill:#0000ff;stroke:#0000ff;" x="670.464" xlink:href="#m4d33d87f3a" y="507.813179"/>
     <use style="fill:#0000ff;stroke:#0000ff;" x="683.856" xlink:href="#m4d33d87f3a" y="509.714466"/>
     <use style="fill:#0000ff;stroke:#0000ff;" x="697.248" xlink:href="#m4d33d87f3a" y="510.393979"/>
     <use style="fill:#0000ff;stroke:#0000ff;" x="710.64" xlink:href="#m4d33d87f3a" y="510.274469"/>
     <use style="fill:#0000ff;stroke:#0000ff;" x="724.032" xlink:href="#m4d33d87f3a" y="512.002915"/>
     <use style="fill:#0000ff;stroke:#0000ff;" x="737.424" xlink:href="#m4d33d87f3a" y="510.316296"/>
     <use style="fill:#0000ff;stroke:#0000ff;" x="750.816" xlink:href="#m4d33d87f3a" y="512.64"/>
     <use style="fill:#0000ff;stroke:#0000ff;" x="764.208" xlink:href="#m4d33d87f3a" y="512.37462"/>
     <use style="fill:#0000ff;stroke:#0000ff;" x="777.6" xlink:href="#m4d33d87f3a" y="512.482019"/>
    </g>
   </g>
   <g id="PathCollection_3">
    <defs>
     <path d="M 0 3 
C 0.795609 3 1.55874 2.683901 2.12132 2.12132 
C 2.683901 1.55874 3 0.795609 3 0 
C 3 -0.795609 2.683901 -1.55874 2.12132 -2.12132 
C 1.55874 -2.683901 0.795609 -3 0 -3 
C -0.795609 -3 -1.55874 -2.683901 -2.12132 -2.12132 
C -2.683901 -1.55874 -3 -0.795609 -3 0 
C -3 0.795609 -2.683901 1.55874 -2.12132 2.12132 
C -1.55874 2.683901 -0.795609 3 0 3 
z
" id="mc385e2de82" style="stroke:#008000;"/>
    </defs>
    <g clip-path="url(#p3c20fa9053)">
     <use style="fill:#008000;stroke:#008000;" x="121.392" xlink:href="#mc385e2de82" y="69.12"/>
     <use style="fill:#008000;stroke:#008000;" x="134.784" xlink:href="#mc385e2de82" y="71.742222"/>
     <use style="fill:#008000;stroke:#008000;" x="148.176" xlink:href="#mc385e2de82" y="74.507865"/>
     <use style="fill:#008000;stroke:#008000;" x="161.568" xlink:href="#mc385e2de82" y="77.61122"/>
     <use style="fill:#008000;stroke:#008000;" x="174.96" xlink:href="#mc385e2de82" y="78.776797"/>
     <use style="fill:#008000;stroke:#008000;" x="188.352" xlink:href="#mc385e2de82" y="82.548677"/>
     <use style="fill:#008000;stroke:#008000;" x="201.744" xlink:href="#mc385e2de82" y="85.092862"/>
     <use style="fill:#008000;stroke:#008000;" x="215.136" xlink:href="#mc385e2de82" y="89.845859"/>
     <use style="fill:#008000;stroke:#008000;" x="228.528" xlink:href="#mc385e2de82" y="95.020876"/>
     <use style="fill:#008000;stroke:#008000;" x="241.92" xlink:href="#mc385e2de82" y="99.843077"/>
     <use style="fill:#008000;stroke:#008000;" x="255.312" xlink:href="#mc385e2de82" y="106.023887"/>
     <use style="fill:#008000;stroke:#008000;" x="268.704" xlink:href="#mc385e2de82" y="114.379332"/>
     <use style="fill:#008000;stroke:#008000;" x="282.096" xlink:href="#mc385e2de82" y="122.877157"/>
     <use style="fill:#008000;stroke:#008000;" x="295.488" xlink:href="#mc385e2de82" y="135.035429"/>
     <use style="fill:#008000;stroke:#008000;" x="308.88" xlink:href="#mc385e2de82" y="151.861833"/>
     <use style="fill:#008000;stroke:#008000;" x="322.272" xlink:href="#mc385e2de82" y="168.714175"/>
     <use style="fill:#008000;stroke:#008000;" x="335.664" xlink:href="#mc385e2de82" y="194.840737"/>
     <use style="fill:#008000;stroke:#008000;" x="349.056" xlink:href="#mc385e2de82" y="228.236466"/>
     <use style="fill:#008000;stroke:#008000;" x="362.448" xlink:href="#mc385e2de82" y="275.785576"/>
     <use style="fill:#008000;stroke:#008000;" x="375.84" xlink:href="#mc385e2de82" y="347.093916"/>
     <use style="fill:#008000;stroke:#008000;" x="389.232" xlink:href="#mc385e2de82" y="430.385251"/>
     <use style="fill:#008000;stroke:#008000;" x="402.624" xlink:href="#mc385e2de82" y="468.310887"/>
     <use style="fill:#008000;stroke:#008000;" x="416.016" xlink:href="#mc385e2de82" y="477.330255"/>
     <use style="fill:#008000;stroke:#008000;" x="429.408" xlink:href="#mc385e2de82" y="482.367372"/>
     <use style="fill:#008000;stroke:#008000;" x="442.8" xlink:href="#mc385e2de82" y="480.964912"/>
     <use style="fill:#008000;stroke:#008000;" x="456.192" xlink:href="#mc385e2de82" y="483.030452"/>
     <use style="fill:#008000;stroke:#008000;" x="469.584" xlink:href="#mc385e2de82" y="487.933918"/>
     <use style="fill:#008000;stroke:#008000;" x="482.976" xlink:href="#mc385e2de82" y="490.445375"/>
     <use style="fill:#008000;stroke:#008000;" x="496.368" xlink:href="#mc385e2de82" y="492.899919"/>
     <use style="fill:#008000;stroke:#008000;" x="509.76" xlink:href="#mc385e2de82" y="494.343624"/>
     <use style="fill:#008000;stroke:#008000;" x="523.152" xlink:href="#mc385e2de82" y="494.254789"/>
     <use style="fill:#008000;stroke:#008000;" x="536.544" xlink:href="#mc385e2de82" y="494.536382"/>
     <use style="fill:#008000;stroke:#008000;" x="549.936" xlink:href="#mc385e2de82" y="497.018363"/>
     <use style="fill:#008000;stroke:#008000;" x="563.328" xlink:href="#mc385e2de82" y="497.929128"/>
     <use style="fill:#008000;stroke:#008000;" x="576.72" xlink:href="#mc385e2de82" y="500.04806"/>
     <use style="fill:#008000;stroke:#008000;" x="590.112" xlink:href="#mc385e2de82" y="499.942717"/>
     <use style="fill:#008000;stroke:#008000;" x="603.504" xlink:href="#mc385e2de82" y="500.988474"/>
     <use style="fill:#008000;stroke:#008000;" x="616.896" xlink:href="#mc385e2de82" y="502.914921"/>
     <use style="fill:#008000;stroke:#008000;" x="630.288" xlink:href="#mc385e2de82" y="504.217512"/>
     <use style="fill:#008000;stroke:#008000;" x="643.68" xlink:href="#mc385e2de82" y="505.375792"/>
     <use style="fill:#008000;stroke:#008000;" x="657.072" xlink:href="#mc385e2de82" y="506.456305"/>
     <use style="fill:#008000;stroke:#008000;" x="670.464" xlink:href="#mc385e2de82" y="506.609349"/>
     <use style="fill:#008000;stroke:#008000;" x="683.856" xlink:href="#mc385e2de82" y="508.538538"/>
     <use style="fill:#008000;stroke:#008000;" x="697.248" xlink:href="#mc385e2de82" y="509.57006"/>
     <use style="fill:#008000;stroke:#008000;" x="710.64" xlink:href="#mc385e2de82" y="508.191413"/>
     <use style="fill:#008000;stroke:#008000;" x="724.032" xlink:href="#mc385e2de82" y="510.571553"/>
     <use style="fill:#008000;stroke:#008000;" x="737.424" xlink:href="#mc385e2de82" y="511.437998"/>
     <use style="fill:#008000;stroke:#008000;" x="750.816" xlink:href="#mc385e2de82" y="511.436667"/>
     <use style="fill:#008000;stroke:#008000;" x="764.208" xlink:href="#mc385e2de82" y="512.64"/>
     <use style="fill:#008000;stroke:#008000;" x="777.6" xlink:href="#mc385e2de82" y="510.652785"/>
    </g>
   </g>
   <g id="PathCollection_4">
    <defs>
     <path d="M 0 3 
C 0.795609 3 1.55874 2.683901 2.12132 2.12132 
C 2.683901 1.55874 3 0.795609 3 0 
C 3 -0.795609 2.683901 -1.55874 2.12132 -2.12132 
C 1.55874 -2.683901 0.795609 -3 0 -3 
C -0.795609 -3 -1.55874 -2.683901 -2.12132 -2.12132 
C -2.683901 -1.55874 -3 -0.795609 -3 0 
C -3 0.795609 -2.683901 1.55874 -2.12132 2.12132 
C -1.55874 2.683901 -0.795609 3 0 3 
z
" id="m74ad76a799" style="stroke:#bfbf00;"/>
    </defs>
    <g clip-path="url(#p3c20fa9053)">
     <use style="fill:#bfbf00;stroke:#bfbf00;" x="121.392" xlink:href="#m74ad76a799" y="69.12"/>
     <use style="fill:#bfbf00;stroke:#bfbf00;" x="134.784" xlink:href="#m74ad76a799" y="72.024193"/>
     <use style="fill:#bfbf00;stroke:#bfbf00;" x="148.176" xlink:href="#m74ad76a799" y="71.130422"/>
     <use style="fill:#bfbf00;stroke:#bfbf00;" x="161.568" xlink:href="#m74ad76a799" y="73.509283"/>
     <use style="fill:#bfbf00;stroke:#bfbf00;" x="174.96" xlink:href="#m74ad76a799" y="76.876417"/>
     <use style="fill:#bfbf00;stroke:#bfbf00;" x="188.352" xlink:href="#m74ad76a799" y="78.376861"/>
     <use style="fill:#bfbf00;stroke:#bfbf00;" x="201.744" xlink:href="#m74ad76a799" y="78.423167"/>
     <use style="fill:#bfbf00;stroke:#bfbf00;" x="215.136" xlink:href="#m74ad76a799" y="80.031639"/>
     <use style="fill:#bfbf00;stroke:#bfbf00;" x="228.528" xlink:href="#m74ad76a799" y="84.139734"/>
     <use style="fill:#bfbf00;stroke:#bfbf00;" x="241.92" xlink:href="#m74ad76a799" y="83.482612"/>
     <use style="fill:#bfbf00;stroke:#bfbf00;" x="255.312" xlink:href="#m74ad76a799" y="87.844599"/>
     <use style="fill:#bfbf00;stroke:#bfbf00;" x="268.704" xlink:href="#m74ad76a799" y="90.048958"/>
     <use style="fill:#bfbf00;stroke:#bfbf00;" x="282.096" xlink:href="#m74ad76a799" y="93.711904"/>
     <use style="fill:#bfbf00;stroke:#bfbf00;" x="295.488" xlink:href="#m74ad76a799" y="97.535886"/>
     <use style="fill:#bfbf00;stroke:#bfbf00;" x="308.88" xlink:href="#m74ad76a799" y="98.515811"/>
     <use style="fill:#bfbf00;stroke:#bfbf00;" x="322.272" xlink:href="#m74ad76a799" y="104.760817"/>
     <use style="fill:#bfbf00;stroke:#bfbf00;" x="335.664" xlink:href="#m74ad76a799" y="108.751866"/>
     <use style="fill:#bfbf00;stroke:#bfbf00;" x="349.056" xlink:href="#m74ad76a799" y="113.226024"/>
     <use style="fill:#bfbf00;stroke:#bfbf00;" x="362.448" xlink:href="#m74ad76a799" y="119.582287"/>
     <use style="fill:#bfbf00;stroke:#bfbf00;" x="375.84" xlink:href="#m74ad76a799" y="124.450961"/>
     <use style="fill:#bfbf00;stroke:#bfbf00;" x="389.232" xlink:href="#m74ad76a799" y="135.220635"/>
     <use style="fill:#bfbf00;stroke:#bfbf00;" x="402.624" xlink:href="#m74ad76a799" y="144.564625"/>
     <use style="fill:#bfbf00;stroke:#bfbf00;" x="416.016" xlink:href="#m74ad76a799" y="156.825848"/>
     <use style="fill:#bfbf00;stroke:#bfbf00;" x="429.408" xlink:href="#m74ad76a799" y="169.425928"/>
     <use style="fill:#bfbf00;stroke:#bfbf00;" x="442.8" xlink:href="#m74ad76a799" y="184.58522"/>
     <use style="fill:#bfbf00;stroke:#bfbf00;" x="456.192" xlink:href="#m74ad76a799" y="206.483533"/>
     <use style="fill:#bfbf00;stroke:#bfbf00;" x="469.584" xlink:href="#m74ad76a799" y="235.792154"/>
     <use style="fill:#bfbf00;stroke:#bfbf00;" x="482.976" xlink:href="#m74ad76a799" y="273.087292"/>
     <use style="fill:#bfbf00;stroke:#bfbf00;" x="496.368" xlink:href="#m74ad76a799" y="320.896383"/>
     <use style="fill:#bfbf00;stroke:#bfbf00;" x="509.76" xlink:href="#m74ad76a799" y="384.632841"/>
     <use style="fill:#bfbf00;stroke:#bfbf00;" x="523.152" xlink:href="#m74ad76a799" y="435.864085"/>
     <use style="fill:#bfbf00;stroke:#bfbf00;" x="536.544" xlink:href="#m74ad76a799" y="463.701387"/>
     <use style="fill:#bfbf00;stroke:#bfbf00;" x="549.936" xlink:href="#m74ad76a799" y="479.251114"/>
     <use style="fill:#bfbf00;stroke:#bfbf00;" x="563.328" xlink:href="#m74ad76a799" y="478.074265"/>
     <use style="fill:#bfbf00;stroke:#bfbf00;" x="576.72" xlink:href="#m74ad76a799" y="485.151976"/>
     <use style="fill:#bfbf00;stroke:#bfbf00;" x="590.112" xlink:href="#m74ad76a799" y="488.318477"/>
     <use style="fill:#bfbf00;stroke:#bfbf00;" x="603.504" xlink:href="#m74ad76a799" y="488.687853"/>
     <use style="fill:#bfbf00;stroke:#bfbf00;" x="616.896" xlink:href="#m74ad76a799" y="491.792717"/>
     <use style="fill:#bfbf00;stroke:#bfbf00;" x="630.288" xlink:href="#m74ad76a799" y="495.563051"/>
     <use style="fill:#bfbf00;stroke:#bfbf00;" x="643.68" xlink:href="#m74ad76a799" y="503.699423"/>
     <use style="fill:#bfbf00;stroke:#bfbf00;" x="657.072" xlink:href="#m74ad76a799" y="503.084311"/>
     <use style="fill:#bfbf00;stroke:#bfbf00;" x="670.464" xlink:href="#m74ad76a799" y="503.074776"/>
     <use style="fill:#bfbf00;stroke:#bfbf00;" x="683.856" xlink:href="#m74ad76a799" y="502.826946"/>
     <use style="fill:#bfbf00;stroke:#bfbf00;" x="697.248" xlink:href="#m74ad76a799" y="507.403206"/>
     <use style="fill:#bfbf00;stroke:#bfbf00;" x="710.64" xlink:href="#m74ad76a799" y="505.779639"/>
     <use style="fill:#bfbf00;stroke:#bfbf00;" x="724.032" xlink:href="#m74ad76a799" y="505.711017"/>
     <use style="fill:#bfbf00;stroke:#bfbf00;" x="737.424" xlink:href="#m74ad76a799" y="508.22652"/>
     <use style="fill:#bfbf00;stroke:#bfbf00;" x="750.816" xlink:href="#m74ad76a799" y="507.346016"/>
     <use style="fill:#bfbf00;stroke:#bfbf00;" x="764.208" xlink:href="#m74ad76a799" y="512.64"/>
     <use style="fill:#bfbf00;stroke:#bfbf00;" x="777.6" xlink:href="#m74ad76a799" y="510.645267"/>
    </g>
   </g>
   <g id="PathCollection_5">
    <defs>
     <path d="M 0 3 
C 0.795609 3 1.55874 2.683901 2.12132 2.12132 
C 2.683901 1.55874 3 0.795609 3 0 
C 3 -0.795609 2.683901 -1.55874 2.12132 -2.12132 
C 1.55874 -2.683901 0.795609 -3 0 -3 
C -0.795609 -3 -1.55874 -2.683901 -2.12132 -2.12132 
C -2.683901 -1.55874 -3 -0.795609 -3 0 
C -3 0.795609 -2.683901 1.55874 -2.12132 2.12132 
C -1.55874 2.683901 -0.795609 3 0 3 
z
" id="ma93f3cd6f7" style="stroke:#ff0000;"/>
    </defs>
    <g clip-path="url(#p3c20fa9053)">
     <use style="fill:#ff0000;stroke:#ff0000;" x="121.392" xlink:href="#ma93f3cd6f7" y="69.12"/>
     <use style="fill:#ff0000;stroke:#ff0000;" x="134.784" xlink:href="#ma93f3cd6f7" y="73.655889"/>
     <use style="fill:#ff0000;stroke:#ff0000;" x="148.176" xlink:href="#ma93f3cd6f7" y="73.272884"/>
     <use style="fill:#ff0000;stroke:#ff0000;" x="161.568" xlink:href="#ma93f3cd6f7" y="77.459743"/>
     <use style="fill:#ff0000;stroke:#ff0000;" x="174.96" xlink:href="#ma93f3cd6f7" y="72.794912"/>
     <use style="fill:#ff0000;stroke:#ff0000;" x="188.352" xlink:href="#ma93f3cd6f7" y="75.867823"/>
     <use style="fill:#ff0000;stroke:#ff0000;" x="201.744" xlink:href="#ma93f3cd6f7" y="73.759452"/>
     <use style="fill:#ff0000;stroke:#ff0000;" x="215.136" xlink:href="#ma93f3cd6f7" y="80.492811"/>
     <use style="fill:#ff0000;stroke:#ff0000;" x="228.528" xlink:href="#ma93f3cd6f7" y="87.182508"/>
     <use style="fill:#ff0000;stroke:#ff0000;" x="241.92" xlink:href="#ma93f3cd6f7" y="86.690619"/>
     <use style="fill:#ff0000;stroke:#ff0000;" x="255.312" xlink:href="#ma93f3cd6f7" y="87.038284"/>
     <use style="fill:#ff0000;stroke:#ff0000;" x="268.704" xlink:href="#ma93f3cd6f7" y="95.270235"/>
     <use style="fill:#ff0000;stroke:#ff0000;" x="282.096" xlink:href="#ma93f3cd6f7" y="90.965349"/>
     <use style="fill:#ff0000;stroke:#ff0000;" x="295.488" xlink:href="#ma93f3cd6f7" y="88.278037"/>
     <use style="fill:#ff0000;stroke:#ff0000;" x="308.88" xlink:href="#ma93f3cd6f7" y="93.564518"/>
     <use style="fill:#ff0000;stroke:#ff0000;" x="322.272" xlink:href="#ma93f3cd6f7" y="96.777422"/>
     <use style="fill:#ff0000;stroke:#ff0000;" x="335.664" xlink:href="#ma93f3cd6f7" y="101.512114"/>
     <use style="fill:#ff0000;stroke:#ff0000;" x="349.056" xlink:href="#ma93f3cd6f7" y="102.689783"/>
     <use style="fill:#ff0000;stroke:#ff0000;" x="362.448" xlink:href="#ma93f3cd6f7" y="100.135233"/>
     <use style="fill:#ff0000;stroke:#ff0000;" x="375.84" xlink:href="#ma93f3cd6f7" y="104.384039"/>
     <use style="fill:#ff0000;stroke:#ff0000;" x="389.232" xlink:href="#ma93f3cd6f7" y="112.026677"/>
     <use style="fill:#ff0000;stroke:#ff0000;" x="402.624" xlink:href="#ma93f3cd6f7" y="116.134807"/>
     <use style="fill:#ff0000;stroke:#ff0000;" x="416.016" xlink:href="#ma93f3cd6f7" y="121.04033"/>
     <use style="fill:#ff0000;stroke:#ff0000;" x="429.408" xlink:href="#ma93f3cd6f7" y="120.653777"/>
     <use style="fill:#ff0000;stroke:#ff0000;" x="442.8" xlink:href="#ma93f3cd6f7" y="127.566018"/>
     <use style="fill:#ff0000;stroke:#ff0000;" x="456.192" xlink:href="#ma93f3cd6f7" y="131.947859"/>
     <use style="fill:#ff0000;stroke:#ff0000;" x="469.584" xlink:href="#ma93f3cd6f7" y="135.845997"/>
     <use style="fill:#ff0000;stroke:#ff0000;" x="482.976" xlink:href="#ma93f3cd6f7" y="139.629112"/>
     <use style="fill:#ff0000;stroke:#ff0000;" x="496.368" xlink:href="#ma93f3cd6f7" y="144.63465"/>
     <use style="fill:#ff0000;stroke:#ff0000;" x="509.76" xlink:href="#ma93f3cd6f7" y="146.322765"/>
     <use style="fill:#ff0000;stroke:#ff0000;" x="523.152" xlink:href="#ma93f3cd6f7" y="159.753598"/>
     <use style="fill:#ff0000;stroke:#ff0000;" x="536.544" xlink:href="#ma93f3cd6f7" y="161.71447"/>
     <use style="fill:#ff0000;stroke:#ff0000;" x="549.936" xlink:href="#ma93f3cd6f7" y="166.069295"/>
     <use style="fill:#ff0000;stroke:#ff0000;" x="563.328" xlink:href="#ma93f3cd6f7" y="182.948198"/>
     <use style="fill:#ff0000;stroke:#ff0000;" x="576.72" xlink:href="#ma93f3cd6f7" y="184.882463"/>
     <use style="fill:#ff0000;stroke:#ff0000;" x="590.112" xlink:href="#ma93f3cd6f7" y="192.786533"/>
     <use style="fill:#ff0000;stroke:#ff0000;" x="603.504" xlink:href="#ma93f3cd6f7" y="207.570165"/>
     <use style="fill:#ff0000;stroke:#ff0000;" x="616.896" xlink:href="#ma93f3cd6f7" y="213.597277"/>
     <use style="fill:#ff0000;stroke:#ff0000;" x="630.288" xlink:href="#ma93f3cd6f7" y="229.417834"/>
     <use style="fill:#ff0000;stroke:#ff0000;" x="643.68" xlink:href="#ma93f3cd6f7" y="238.921465"/>
     <use style="fill:#ff0000;stroke:#ff0000;" x="657.072" xlink:href="#ma93f3cd6f7" y="261.178337"/>
     <use style="fill:#ff0000;stroke:#ff0000;" x="670.464" xlink:href="#ma93f3cd6f7" y="277.743141"/>
     <use style="fill:#ff0000;stroke:#ff0000;" x="683.856" xlink:href="#ma93f3cd6f7" y="298.920175"/>
     <use style="fill:#ff0000;stroke:#ff0000;" x="697.248" xlink:href="#ma93f3cd6f7" y="315.475905"/>
     <use style="fill:#ff0000;stroke:#ff0000;" x="710.64" xlink:href="#ma93f3cd6f7" y="362.107093"/>
     <use style="fill:#ff0000;stroke:#ff0000;" x="724.032" xlink:href="#ma93f3cd6f7" y="361.908018"/>
     <use style="fill:#ff0000;stroke:#ff0000;" x="737.424" xlink:href="#ma93f3cd6f7" y="402.582909"/>
     <use style="fill:#ff0000;stroke:#ff0000;" x="750.816" xlink:href="#ma93f3cd6f7" y="427.534666"/>
     <use style="fill:#ff0000;stroke:#ff0000;" x="764.208" xlink:href="#ma93f3cd6f7" y="475.746313"/>
     <use style="fill:#ff0000;stroke:#ff0000;" x="777.6" xlink:href="#ma93f3cd6f7" y="512.64"/>
    </g>
   </g>
   <g id="matplotlib.axis_1">
    <g id="xtick_1">
     <g id="line2d_1">
      <defs>
       <path d="M 0 0 
L 0 3.5 
" id="m84275bff5b" style="stroke:#000000;stroke-width:0.8;"/>
      </defs>
      <g>
       <use style="stroke:#000000;stroke-width:0.8;" x="108" xlink:href="#m84275bff5b" y="512.64"/>
      </g>
     </g>
     <g id="text_1">
      <!-- 0 -->
      <g transform="translate(101.6375 534.836875)scale(0.2 -0.2)">
       <defs>
        <path d="M 31.78125 66.40625 
Q 24.171875 66.40625 20.328125 58.90625 
Q 16.5 51.421875 16.5 36.375 
Q 16.5 21.390625 20.328125 13.890625 
Q 24.171875 6.390625 31.78125 6.390625 
Q 39.453125 6.390625 43.28125 13.890625 
Q 47.125 21.390625 47.125 36.375 
Q 47.125 51.421875 43.28125 58.90625 
Q 39.453125 66.40625 31.78125 66.40625 
z
M 31.78125 74.21875 
Q 44.046875 74.21875 50.515625 64.515625 
Q 56.984375 54.828125 56.984375 36.375 
Q 56.984375 17.96875 50.515625 8.265625 
Q 44.046875 -1.421875 31.78125 -1.421875 
Q 19.53125 -1.421875 13.0625 8.265625 
Q 6.59375 17.96875 6.59375 36.375 
Q 6.59375 54.828125 13.0625 64.515625 
Q 19.53125 74.21875 31.78125 74.21875 
z
" id="DejaVuSans-48"/>
       </defs>
       <use xlink:href="#DejaVuSans-48"/>
      </g>
     </g>
    </g>
    <g id="xtick_2">
     <g id="line2d_2">
      <g>
       <use style="stroke:#000000;stroke-width:0.8;" x="241.92" xlink:href="#m84275bff5b" y="512.64"/>
      </g>
     </g>
     <g id="text_2">
      <!-- 10 -->
      <g transform="translate(229.195 534.836875)scale(0.2 -0.2)">
       <defs>
        <path d="M 12.40625 8.296875 
L 28.515625 8.296875 
L 28.515625 63.921875 
L 10.984375 60.40625 
L 10.984375 69.390625 
L 28.421875 72.90625 
L 38.28125 72.90625 
L 38.28125 8.296875 
L 54.390625 8.296875 
L 54.390625 0 
L 12.40625 0 
z
" id="DejaVuSans-49"/>
       </defs>
       <use xlink:href="#DejaVuSans-49"/>
       <use x="63.623047" xlink:href="#DejaVuSans-48"/>
      </g>
     </g>
    </g>
    <g id="xtick_3">
     <g id="line2d_3">
      <g>
       <use style="stroke:#000000;stroke-width:0.8;" x="375.84" xlink:href="#m84275bff5b" y="512.64"/>
      </g>
     </g>
     <g id="text_3">
      <!-- 20 -->
      <g transform="translate(363.115 534.836875)scale(0.2 -0.2)">
       <defs>
        <path d="M 19.1875 8.296875 
L 53.609375 8.296875 
L 53.609375 0 
L 7.328125 0 
L 7.328125 8.296875 
Q 12.9375 14.109375 22.625 23.890625 
Q 32.328125 33.6875 34.8125 36.53125 
Q 39.546875 41.84375 41.421875 45.53125 
Q 43.3125 49.21875 43.3125 52.78125 
Q 43.3125 58.59375 39.234375 62.25 
Q 35.15625 65.921875 28.609375 65.921875 
Q 23.96875 65.921875 18.8125 64.3125 
Q 13.671875 62.703125 7.8125 59.421875 
L 7.8125 69.390625 
Q 13.765625 71.78125 18.9375 73 
Q 24.125 74.21875 28.421875 74.21875 
Q 39.75 74.21875 46.484375 68.546875 
Q 53.21875 62.890625 53.21875 53.421875 
Q 53.21875 48.921875 51.53125 44.890625 
Q 49.859375 40.875 45.40625 35.40625 
Q 44.1875 33.984375 37.640625 27.21875 
Q 31.109375 20.453125 19.1875 8.296875 
z
" id="DejaVuSans-50"/>
       </defs>
       <use xlink:href="#DejaVuSans-50"/>
       <use x="63.623047" xlink:href="#DejaVuSans-48"/>
      </g>
     </g>
    </g>
    <g id="xtick_4">
     <g id="line2d_4">
      <g>
       <use style="stroke:#000000;stroke-width:0.8;" x="509.76" xlink:href="#m84275bff5b" y="512.64"/>
      </g>
     </g>
     <g id="text_4">
      <!-- 30 -->
      <g transform="translate(497.035 534.836875)scale(0.2 -0.2)">
       <defs>
        <path d="M 40.578125 39.3125 
Q 47.65625 37.796875 51.625 33 
Q 55.609375 28.21875 55.609375 21.1875 
Q 55.609375 10.40625 48.1875 4.484375 
Q 40.765625 -1.421875 27.09375 -1.421875 
Q 22.515625 -1.421875 17.65625 -0.515625 
Q 12.796875 0.390625 7.625 2.203125 
L 7.625 11.71875 
Q 11.71875 9.328125 16.59375 8.109375 
Q 21.484375 6.890625 26.8125 6.890625 
Q 36.078125 6.890625 40.9375 10.546875 
Q 45.796875 14.203125 45.796875 21.1875 
Q 45.796875 27.640625 41.28125 31.265625 
Q 36.765625 34.90625 28.71875 34.90625 
L 20.21875 34.90625 
L 20.21875 43.015625 
L 29.109375 43.015625 
Q 36.375 43.015625 40.234375 45.921875 
Q 44.09375 48.828125 44.09375 54.296875 
Q 44.09375 59.90625 40.109375 62.90625 
Q 36.140625 65.921875 28.71875 65.921875 
Q 24.65625 65.921875 20.015625 65.03125 
Q 15.375 64.15625 9.8125 62.3125 
L 9.8125 71.09375 
Q 15.4375 72.65625 20.34375 73.4375 
Q 25.25 74.21875 29.59375 74.21875 
Q 40.828125 74.21875 47.359375 69.109375 
Q 53.90625 64.015625 53.90625 55.328125 
Q 53.90625 49.265625 50.4375 45.09375 
Q 46.96875 40.921875 40.578125 39.3125 
z
" id="DejaVuSans-51"/>
       </defs>
       <use xlink:href="#DejaVuSans-51"/>
       <use x="63.623047" xlink:href="#DejaVuSans-48"/>
      </g>
     </g>
    </g>
    <g id="xtick_5">
     <g id="line2d_5">
      <g>
       <use style="stroke:#000000;stroke-width:0.8;" x="643.68" xlink:href="#m84275bff5b" y="512.64"/>
      </g>
     </g>
     <g id="text_5">
      <!-- 40 -->
      <g transform="translate(630.955 534.836875)scale(0.2 -0.2)">
       <defs>
        <path d="M 37.796875 64.3125 
L 12.890625 25.390625 
L 37.796875 25.390625 
z
M 35.203125 72.90625 
L 47.609375 72.90625 
L 47.609375 25.390625 
L 58.015625 25.390625 
L 58.015625 17.1875 
L 47.609375 17.1875 
L 47.609375 0 
L 37.796875 0 
L 37.796875 17.1875 
L 4.890625 17.1875 
L 4.890625 26.703125 
z
" id="DejaVuSans-52"/>
       </defs>
       <use xlink:href="#DejaVuSans-52"/>
       <use x="63.623047" xlink:href="#DejaVuSans-48"/>
      </g>
     </g>
    </g>
    <g id="xtick_6">
     <g id="line2d_6">
      <g>
       <use style="stroke:#000000;stroke-width:0.8;" x="777.6" xlink:href="#m84275bff5b" y="512.64"/>
      </g>
     </g>
     <g id="text_6">
      <!-- 50 -->
      <g transform="translate(764.875 534.836875)scale(0.2 -0.2)">
       <defs>
        <path d="M 10.796875 72.90625 
L 49.515625 72.90625 
L 49.515625 64.59375 
L 19.828125 64.59375 
L 19.828125 46.734375 
Q 21.96875 47.46875 24.109375 47.828125 
Q 26.265625 48.1875 28.421875 48.1875 
Q 40.625 48.1875 47.75 41.5 
Q 54.890625 34.8125 54.890625 23.390625 
Q 54.890625 11.625 47.5625 5.09375 
Q 40.234375 -1.421875 26.90625 -1.421875 
Q 22.3125 -1.421875 17.546875 -0.640625 
Q 12.796875 0.140625 7.71875 1.703125 
L 7.71875 11.625 
Q 12.109375 9.234375 16.796875 8.0625 
Q 21.484375 6.890625 26.703125 6.890625 
Q 35.15625 6.890625 40.078125 11.328125 
Q 45.015625 15.765625 45.015625 23.390625 
Q 45.015625 31 40.078125 35.4375 
Q 35.15625 39.890625 26.703125 39.890625 
Q 22.75 39.890625 18.8125 39.015625 
Q 14.890625 38.140625 10.796875 36.28125 
z
" id="DejaVuSans-53"/>
       </defs>
       <use xlink:href="#DejaVuSans-53"/>
       <use x="63.623047" xlink:href="#DejaVuSans-48"/>
      </g>
     </g>
    </g>
    <g id="text_7">
     <!-- Iterations -->
     <g transform="translate(395.173437 558.193125)scale(0.2 -0.2)">
      <defs>
       <path d="M 9.8125 72.90625 
L 19.671875 72.90625 
L 19.671875 0 
L 9.8125 0 
z
" id="DejaVuSans-73"/>
       <path d="M 18.3125 70.21875 
L 18.3125 54.6875 
L 36.8125 54.6875 
L 36.8125 47.703125 
L 18.3125 47.703125 
L 18.3125 18.015625 
Q 18.3125 11.328125 20.140625 9.421875 
Q 21.96875 7.515625 27.59375 7.515625 
L 36.8125 7.515625 
L 36.8125 0 
L 27.59375 0 
Q 17.1875 0 13.234375 3.875 
Q 9.28125 7.765625 9.28125 18.015625 
L 9.28125 47.703125 
L 2.6875 47.703125 
L 2.6875 54.6875 
L 9.28125 54.6875 
L 9.28125 70.21875 
z
" id="DejaVuSans-116"/>
       <path d="M 56.203125 29.59375 
L 56.203125 25.203125 
L 14.890625 25.203125 
Q 15.484375 15.921875 20.484375 11.0625 
Q 25.484375 6.203125 34.421875 6.203125 
Q 39.59375 6.203125 44.453125 7.46875 
Q 49.3125 8.734375 54.109375 11.28125 
L 54.109375 2.78125 
Q 49.265625 0.734375 44.1875 -0.34375 
Q 39.109375 -1.421875 33.890625 -1.421875 
Q 20.796875 -1.421875 13.15625 6.1875 
Q 5.515625 13.8125 5.515625 26.8125 
Q 5.515625 40.234375 12.765625 48.109375 
Q 20.015625 56 32.328125 56 
Q 43.359375 56 49.78125 48.890625 
Q 56.203125 41.796875 56.203125 29.59375 
z
M 47.21875 32.234375 
Q 47.125 39.59375 43.09375 43.984375 
Q 39.0625 48.390625 32.421875 48.390625 
Q 24.90625 48.390625 20.390625 44.140625 
Q 15.875 39.890625 15.1875 32.171875 
z
" id="DejaVuSans-101"/>
       <path d="M 41.109375 46.296875 
Q 39.59375 47.171875 37.8125 47.578125 
Q 36.03125 48 33.890625 48 
Q 26.265625 48 22.1875 43.046875 
Q 18.109375 38.09375 18.109375 28.8125 
L 18.109375 0 
L 9.078125 0 
L 9.078125 54.6875 
L 18.109375 54.6875 
L 18.109375 46.1875 
Q 20.953125 51.171875 25.484375 53.578125 
Q 30.03125 56 36.53125 56 
Q 37.453125 56 38.578125 55.875 
Q 39.703125 55.765625 41.0625 55.515625 
z
" id="DejaVuSans-114"/>
       <path d="M 34.28125 27.484375 
Q 23.390625 27.484375 19.1875 25 
Q 14.984375 22.515625 14.984375 16.5 
Q 14.984375 11.71875 18.140625 8.90625 
Q 21.296875 6.109375 26.703125 6.109375 
Q 34.1875 6.109375 38.703125 11.40625 
Q 43.21875 16.703125 43.21875 25.484375 
L 43.21875 27.484375 
z
M 52.203125 31.203125 
L 52.203125 0 
L 43.21875 0 
L 43.21875 8.296875 
Q 40.140625 3.328125 35.546875 0.953125 
Q 30.953125 -1.421875 24.3125 -1.421875 
Q 15.921875 -1.421875 10.953125 3.296875 
Q 6 8.015625 6 15.921875 
Q 6 25.140625 12.171875 29.828125 
Q 18.359375 34.515625 30.609375 34.515625 
L 43.21875 34.515625 
L 43.21875 35.40625 
Q 43.21875 41.609375 39.140625 45 
Q 35.0625 48.390625 27.6875 48.390625 
Q 23 48.390625 18.546875 47.265625 
Q 14.109375 46.140625 10.015625 43.890625 
L 10.015625 52.203125 
Q 14.9375 54.109375 19.578125 55.046875 
Q 24.21875 56 28.609375 56 
Q 40.484375 56 46.34375 49.84375 
Q 52.203125 43.703125 52.203125 31.203125 
z
" id="DejaVuSans-97"/>
       <path d="M 9.421875 54.6875 
L 18.40625 54.6875 
L 18.40625 0 
L 9.421875 0 
z
M 9.421875 75.984375 
L 18.40625 75.984375 
L 18.40625 64.59375 
L 9.421875 64.59375 
z
" id="DejaVuSans-105"/>
       <path d="M 30.609375 48.390625 
Q 23.390625 48.390625 19.1875 42.75 
Q 14.984375 37.109375 14.984375 27.296875 
Q 14.984375 17.484375 19.15625 11.84375 
Q 23.34375 6.203125 30.609375 6.203125 
Q 37.796875 6.203125 41.984375 11.859375 
Q 46.1875 17.53125 46.1875 27.296875 
Q 46.1875 37.015625 41.984375 42.703125 
Q 37.796875 48.390625 30.609375 48.390625 
z
M 30.609375 56 
Q 42.328125 56 49.015625 48.375 
Q 55.71875 40.765625 55.71875 27.296875 
Q 55.71875 13.875 49.015625 6.21875 
Q 42.328125 -1.421875 30.609375 -1.421875 
Q 18.84375 -1.421875 12.171875 6.21875 
Q 5.515625 13.875 5.515625 27.296875 
Q 5.515625 40.765625 12.171875 48.375 
Q 18.84375 56 30.609375 56 
z
" id="DejaVuSans-111"/>
       <path d="M 54.890625 33.015625 
L 54.890625 0 
L 45.90625 0 
L 45.90625 32.71875 
Q 45.90625 40.484375 42.875 44.328125 
Q 39.84375 48.1875 33.796875 48.1875 
Q 26.515625 48.1875 22.3125 43.546875 
Q 18.109375 38.921875 18.109375 30.90625 
L 18.109375 0 
L 9.078125 0 
L 9.078125 54.6875 
L 18.109375 54.6875 
L 18.109375 46.1875 
Q 21.34375 51.125 25.703125 53.5625 
Q 30.078125 56 35.796875 56 
Q 45.21875 56 50.046875 50.171875 
Q 54.890625 44.34375 54.890625 33.015625 
z
" id="DejaVuSans-110"/>
       <path d="M 44.28125 53.078125 
L 44.28125 44.578125 
Q 40.484375 46.53125 36.375 47.5 
Q 32.28125 48.484375 27.875 48.484375 
Q 21.1875 48.484375 17.84375 46.4375 
Q 14.5 44.390625 14.5 40.28125 
Q 14.5 37.15625 16.890625 35.375 
Q 19.28125 33.59375 26.515625 31.984375 
L 29.59375 31.296875 
Q 39.15625 29.25 43.1875 25.515625 
Q 47.21875 21.78125 47.21875 15.09375 
Q 47.21875 7.46875 41.1875 3.015625 
Q 35.15625 -1.421875 24.609375 -1.421875 
Q 20.21875 -1.421875 15.453125 -0.5625 
Q 10.6875 0.296875 5.421875 2 
L 5.421875 11.28125 
Q 10.40625 8.6875 15.234375 7.390625 
Q 20.0625 6.109375 24.8125 6.109375 
Q 31.15625 6.109375 34.5625 8.28125 
Q 37.984375 10.453125 37.984375 14.40625 
Q 37.984375 18.0625 35.515625 20.015625 
Q 33.0625 21.96875 24.703125 23.78125 
L 21.578125 24.515625 
Q 13.234375 26.265625 9.515625 29.90625 
Q 5.8125 33.546875 5.8125 39.890625 
Q 5.8125 47.609375 11.28125 51.796875 
Q 16.75 56 26.8125 56 
Q 31.78125 56 36.171875 55.265625 
Q 40.578125 54.546875 44.28125 53.078125 
z
" id="DejaVuSans-115"/>
      </defs>
      <use xlink:href="#DejaVuSans-73"/>
      <use x="29.492188" xlink:href="#DejaVuSans-116"/>
      <use x="68.701172" xlink:href="#DejaVuSans-101"/>
      <use x="130.224609" xlink:href="#DejaVuSans-114"/>
      <use x="171.337891" xlink:href="#DejaVuSans-97"/>
      <use x="232.617188" xlink:href="#DejaVuSans-116"/>
      <use x="271.826172" xlink:href="#DejaVuSans-105"/>
      <use x="299.609375" xlink:href="#DejaVuSans-111"/>
      <use x="360.791016" xlink:href="#DejaVuSans-110"/>
      <use x="424.169922" xlink:href="#DejaVuSans-115"/>
     </g>
    </g>
   </g>
   <g id="matplotlib.axis_2">
    <g id="ytick_1">
     <g id="line2d_7">
      <defs>
       <path d="M 0 0 
L -3.5 0 
" id="maae2e5c82a" style="stroke:#000000;stroke-width:0.8;"/>
      </defs>
      <g>
       <use style="stroke:#000000;stroke-width:0.8;" x="108" xlink:href="#maae2e5c82a" y="512.64"/>
      </g>
     </g>
     <g id="text_8">
      <!-- 0.0 -->
      <g transform="translate(69.19375 520.238438)scale(0.2 -0.2)">
       <defs>
        <path d="M 10.6875 12.40625 
L 21 12.40625 
L 21 0 
L 10.6875 0 
z
" id="DejaVuSans-46"/>
       </defs>
       <use xlink:href="#DejaVuSans-48"/>
       <use x="63.623047" xlink:href="#DejaVuSans-46"/>
       <use x="95.410156" xlink:href="#DejaVuSans-48"/>
      </g>
     </g>
    </g>
    <g id="ytick_2">
     <g id="line2d_8">
      <g>
       <use style="stroke:#000000;stroke-width:0.8;" x="108" xlink:href="#maae2e5c82a" y="290.88"/>
      </g>
     </g>
     <g id="text_9">
      <!-- 0.5 -->
      <g transform="translate(69.19375 298.478437)scale(0.2 -0.2)">
       <use xlink:href="#DejaVuSans-48"/>
       <use x="63.623047" xlink:href="#DejaVuSans-46"/>
       <use x="95.410156" xlink:href="#DejaVuSans-53"/>
      </g>
     </g>
    </g>
    <g id="ytick_3">
     <g id="line2d_9">
      <g>
       <use style="stroke:#000000;stroke-width:0.8;" x="108" xlink:href="#maae2e5c82a" y="69.12"/>
      </g>
     </g>
     <g id="text_10">
      <!-- 1.0 -->
      <g transform="translate(69.19375 76.718437)scale(0.2 -0.2)">
       <use xlink:href="#DejaVuSans-49"/>
       <use x="63.623047" xlink:href="#DejaVuSans-46"/>
       <use x="95.410156" xlink:href="#DejaVuSans-48"/>
      </g>
     </g>
    </g>
    <g id="text_11">
     <!-- RER -->
     <g transform="translate(61.034375 311.095625)rotate(-90)scale(0.2 -0.2)">
      <defs>
       <path d="M 44.390625 34.1875 
Q 47.5625 33.109375 50.5625 29.59375 
Q 53.5625 26.078125 56.59375 19.921875 
L 66.609375 0 
L 56 0 
L 46.6875 18.703125 
Q 43.0625 26.03125 39.671875 28.421875 
Q 36.28125 30.8125 30.421875 30.8125 
L 19.671875 30.8125 
L 19.671875 0 
L 9.8125 0 
L 9.8125 72.90625 
L 32.078125 72.90625 
Q 44.578125 72.90625 50.734375 67.671875 
Q 56.890625 62.453125 56.890625 51.90625 
Q 56.890625 45.015625 53.6875 40.46875 
Q 50.484375 35.9375 44.390625 34.1875 
z
M 19.671875 64.796875 
L 19.671875 38.921875 
L 32.078125 38.921875 
Q 39.203125 38.921875 42.84375 42.21875 
Q 46.484375 45.515625 46.484375 51.90625 
Q 46.484375 58.296875 42.84375 61.546875 
Q 39.203125 64.796875 32.078125 64.796875 
z
" id="DejaVuSans-82"/>
       <path d="M 9.8125 72.90625 
L 55.90625 72.90625 
L 55.90625 64.59375 
L 19.671875 64.59375 
L 19.671875 43.015625 
L 54.390625 43.015625 
L 54.390625 34.71875 
L 19.671875 34.71875 
L 19.671875 8.296875 
L 56.78125 8.296875 
L 56.78125 0 
L 9.8125 0 
z
" id="DejaVuSans-69"/>
      </defs>
      <use xlink:href="#DejaVuSans-82"/>
      <use x="69.482422" xlink:href="#DejaVuSans-69"/>
      <use x="132.666016" xlink:href="#DejaVuSans-82"/>
     </g>
    </g>
   </g>
   <g id="line2d_10">
    <path clip-path="url(#p3c20fa9053)" d="M 121.392 69.12 
L 134.784 71.771128 
L 148.176 74.691275 
L 161.568 77.672772 
L 174.96 82.023978 
L 188.352 86.897864 
L 201.744 93.459249 
L 215.136 98.761672 
L 228.528 108.728319 
L 241.92 117.266812 
L 255.312 131.306846 
L 268.704 150.032149 
L 282.096 171.268778 
L 295.488 205.430597 
L 308.88 257.970996 
L 322.272 335.539172 
L 335.664 415.989296 
L 349.056 446.665317 
L 362.448 458.043004 
L 375.84 465.097266 
L 389.232 473.13879 
L 402.624 477.40716 
L 416.016 481.571161 
L 429.408 484.600699 
L 442.8 487.360617 
L 456.192 487.665406 
L 469.584 492.91148 
L 482.976 493.057913 
L 496.368 493.694825 
L 509.76 495.454768 
L 523.152 498.365789 
L 536.544 498.717773 
L 549.936 500.182257 
L 563.328 500.683731 
L 576.72 501.062369 
L 590.112 503.964278 
L 603.504 504.432296 
L 616.896 505.050757 
L 630.288 505.749122 
L 643.68 507.005662 
L 657.072 507.303763 
L 670.464 507.492011 
L 683.856 508.568808 
L 697.248 508.268538 
L 710.64 509.815225 
L 724.032 510.755182 
L 737.424 511.851913 
L 750.816 510.717264 
L 764.208 512.64 
L 777.6 511.804842 
" style="fill:none;stroke:#800080;stroke-linecap:square;stroke-width:1.5;"/>
   </g>
   <g id="line2d_11">
    <path clip-path="url(#p3c20fa9053)" d="M 121.392 69.12 
L 134.784 70.202002 
L 148.176 74.845755 
L 161.568 76.245439 
L 174.96 79.732635 
L 188.352 84.003071 
L 201.744 89.19312 
L 215.136 94.035814 
L 228.528 100.691341 
L 241.92 106.083664 
L 255.312 116.537861 
L 268.704 126.727269 
L 282.096 137.44612 
L 295.488 155.941149 
L 308.88 174.341947 
L 322.272 197.115663 
L 335.664 230.824722 
L 349.056 272.947554 
L 362.448 335.483765 
L 375.84 423.189492 
L 389.232 472.887685 
L 402.624 486.274612 
L 416.016 488.667302 
L 429.408 486.551482 
L 442.8 493.063219 
L 456.192 495.9189 
L 469.584 489.298185 
L 482.976 492.658839 
L 496.368 495.958926 
L 509.76 496.766187 
L 523.152 499.07259 
L 536.544 499.384924 
L 549.936 502.279374 
L 563.328 503.084838 
L 576.72 504.244359 
L 590.112 503.556991 
L 603.504 506.936751 
L 616.896 507.187131 
L 630.288 507.153159 
L 643.68 506.936919 
L 657.072 508.440152 
L 670.464 507.813179 
L 683.856 509.714466 
L 697.248 510.393979 
L 710.64 510.274469 
L 724.032 512.002915 
L 737.424 510.316296 
L 750.816 512.64 
L 764.208 512.37462 
L 777.6 512.482019 
" style="fill:none;stroke:#0000ff;stroke-linecap:square;stroke-width:1.5;"/>
   </g>
   <g id="line2d_12">
    <path clip-path="url(#p3c20fa9053)" d="M 121.392 69.12 
L 134.784 71.742222 
L 148.176 74.507865 
L 161.568 77.61122 
L 174.96 78.776797 
L 188.352 82.548677 
L 201.744 85.092862 
L 215.136 89.845859 
L 228.528 95.020876 
L 241.92 99.843077 
L 255.312 106.023887 
L 268.704 114.379332 
L 282.096 122.877157 
L 295.488 135.035429 
L 308.88 151.861833 
L 322.272 168.714175 
L 335.664 194.840737 
L 349.056 228.236466 
L 362.448 275.785576 
L 375.84 347.093916 
L 389.232 430.385251 
L 402.624 468.310887 
L 416.016 477.330255 
L 429.408 482.367372 
L 442.8 480.964912 
L 456.192 483.030452 
L 469.584 487.933918 
L 482.976 490.445375 
L 496.368 492.899919 
L 509.76 494.343624 
L 523.152 494.254789 
L 536.544 494.536382 
L 549.936 497.018363 
L 563.328 497.929128 
L 576.72 500.04806 
L 590.112 499.942717 
L 603.504 500.988474 
L 616.896 502.914921 
L 630.288 504.217512 
L 643.68 505.375792 
L 657.072 506.456305 
L 670.464 506.609349 
L 683.856 508.538538 
L 697.248 509.57006 
L 710.64 508.191413 
L 724.032 510.571553 
L 737.424 511.437998 
L 750.816 511.436667 
L 764.208 512.64 
L 777.6 510.652785 
" style="fill:none;stroke:#008000;stroke-linecap:square;stroke-width:1.5;"/>
   </g>
   <g id="line2d_13">
    <path clip-path="url(#p3c20fa9053)" d="M 121.392 69.12 
L 134.784 72.024193 
L 148.176 71.130422 
L 161.568 73.509283 
L 174.96 76.876417 
L 188.352 78.376861 
L 201.744 78.423167 
L 215.136 80.031639 
L 228.528 84.139734 
L 241.92 83.482612 
L 255.312 87.844599 
L 268.704 90.048958 
L 282.096 93.711904 
L 295.488 97.535886 
L 308.88 98.515811 
L 322.272 104.760817 
L 335.664 108.751866 
L 349.056 113.226024 
L 362.448 119.582287 
L 375.84 124.450961 
L 389.232 135.220635 
L 402.624 144.564625 
L 416.016 156.825848 
L 429.408 169.425928 
L 442.8 184.58522 
L 456.192 206.483533 
L 469.584 235.792154 
L 482.976 273.087292 
L 496.368 320.896383 
L 509.76 384.632841 
L 523.152 435.864085 
L 536.544 463.701387 
L 549.936 479.251114 
L 563.328 478.074265 
L 576.72 485.151976 
L 590.112 488.318477 
L 603.504 488.687853 
L 616.896 491.792717 
L 630.288 495.563051 
L 643.68 503.699423 
L 657.072 503.084311 
L 670.464 503.074776 
L 683.856 502.826946 
L 697.248 507.403206 
L 710.64 505.779639 
L 724.032 505.711017 
L 737.424 508.22652 
L 750.816 507.346016 
L 764.208 512.64 
L 777.6 510.645267 
" style="fill:none;stroke:#bfbf00;stroke-linecap:square;stroke-width:1.5;"/>
   </g>
   <g id="line2d_14">
    <path clip-path="url(#p3c20fa9053)" d="M 121.392 69.12 
L 134.784 73.655889 
L 148.176 73.272884 
L 161.568 77.459743 
L 174.96 72.794912 
L 188.352 75.867823 
L 201.744 73.759452 
L 215.136 80.492811 
L 228.528 87.182508 
L 241.92 86.690619 
L 255.312 87.038284 
L 268.704 95.270235 
L 282.096 90.965349 
L 295.488 88.278037 
L 308.88 93.564518 
L 322.272 96.777422 
L 335.664 101.512114 
L 349.056 102.689783 
L 362.448 100.135233 
L 375.84 104.384039 
L 389.232 112.026677 
L 402.624 116.134807 
L 416.016 121.04033 
L 429.408 120.653777 
L 442.8 127.566018 
L 456.192 131.947859 
L 469.584 135.845997 
L 482.976 139.629112 
L 496.368 144.63465 
L 509.76 146.322765 
L 523.152 159.753598 
L 536.544 161.71447 
L 549.936 166.069295 
L 563.328 182.948198 
L 576.72 184.882463 
L 590.112 192.786533 
L 603.504 207.570165 
L 616.896 213.597277 
L 630.288 229.417834 
L 643.68 238.921465 
L 657.072 261.178337 
L 670.464 277.743141 
L 683.856 298.920175 
L 697.248 315.475905 
L 710.64 362.107093 
L 724.032 361.908018 
L 737.424 402.582909 
L 750.816 427.534666 
L 764.208 475.746313 
L 777.6 512.64 
" style="fill:none;stroke:#ff0000;stroke-linecap:square;stroke-width:1.5;"/>
   </g>
   <g id="patch_3">
    <path d="M 108 512.64 
L 108 69.12 
" style="fill:none;stroke:#000000;stroke-linecap:square;stroke-linejoin:miter;stroke-width:0.8;"/>
   </g>
   <g id="patch_4">
    <path d="M 777.6 512.64 
L 777.6 69.12 
" style="fill:none;stroke:#000000;stroke-linecap:square;stroke-linejoin:miter;stroke-width:0.8;"/>
   </g>
   <g id="patch_5">
    <path d="M 108 512.64 
L 777.6 512.64 
" style="fill:none;stroke:#000000;stroke-linecap:square;stroke-linejoin:miter;stroke-width:0.8;"/>
   </g>
   <g id="patch_6">
    <path d="M 108 69.12 
L 777.6 69.12 
" style="fill:none;stroke:#000000;stroke-linecap:square;stroke-linejoin:miter;stroke-width:0.8;"/>
   </g>
   <g id="legend_1">
    <g id="patch_7">
     <path d="M 705.923437 150.510625 
L 770.6 150.510625 
Q 772.6 150.510625 772.6 148.510625 
L 772.6 76.12 
Q 772.6 74.12 770.6 74.12 
L 705.923437 74.12 
Q 703.923437 74.12 703.923437 76.12 
L 703.923437 148.510625 
Q 703.923437 150.510625 705.923437 150.510625 
z
" style="fill:#ffffff;opacity:0.8;stroke:#cccccc;stroke-linejoin:miter;"/>
    </g>
    <g id="line2d_15">
     <path d="M 707.923437 82.218437 
L 727.923437 82.218437 
" style="fill:none;stroke:#800080;stroke-linecap:square;stroke-width:1.5;"/>
    </g>
    <g id="line2d_16"/>
    <g id="text_12">
     <!-- s=100 -->
     <g transform="translate(735.923437 85.718437)scale(0.1 -0.1)">
      <defs>
       <path d="M 10.59375 45.40625 
L 73.1875 45.40625 
L 73.1875 37.203125 
L 10.59375 37.203125 
z
M 10.59375 25.484375 
L 73.1875 25.484375 
L 73.1875 17.1875 
L 10.59375 17.1875 
z
" id="DejaVuSans-61"/>
      </defs>
      <use xlink:href="#DejaVuSans-115"/>
      <use x="52.099609" xlink:href="#DejaVuSans-61"/>
      <use x="135.888672" xlink:href="#DejaVuSans-49"/>
      <use x="199.511719" xlink:href="#DejaVuSans-48"/>
      <use x="263.134766" xlink:href="#DejaVuSans-48"/>
     </g>
    </g>
    <g id="line2d_17">
     <path d="M 707.923437 96.896563 
L 727.923437 96.896563 
" style="fill:none;stroke:#0000ff;stroke-linecap:square;stroke-width:1.5;"/>
    </g>
    <g id="line2d_18"/>
    <g id="text_13">
     <!-- s=80 -->
     <g transform="translate(735.923437 100.396563)scale(0.1 -0.1)">
      <defs>
       <path d="M 31.78125 34.625 
Q 24.75 34.625 20.71875 30.859375 
Q 16.703125 27.09375 16.703125 20.515625 
Q 16.703125 13.921875 20.71875 10.15625 
Q 24.75 6.390625 31.78125 6.390625 
Q 38.8125 6.390625 42.859375 10.171875 
Q 46.921875 13.96875 46.921875 20.515625 
Q 46.921875 27.09375 42.890625 30.859375 
Q 38.875 34.625 31.78125 34.625 
z
M 21.921875 38.8125 
Q 15.578125 40.375 12.03125 44.71875 
Q 8.5 49.078125 8.5 55.328125 
Q 8.5 64.0625 14.71875 69.140625 
Q 20.953125 74.21875 31.78125 74.21875 
Q 42.671875 74.21875 48.875 69.140625 
Q 55.078125 64.0625 55.078125 55.328125 
Q 55.078125 49.078125 51.53125 44.71875 
Q 48 40.375 41.703125 38.8125 
Q 48.828125 37.15625 52.796875 32.3125 
Q 56.78125 27.484375 56.78125 20.515625 
Q 56.78125 9.90625 50.3125 4.234375 
Q 43.84375 -1.421875 31.78125 -1.421875 
Q 19.734375 -1.421875 13.25 4.234375 
Q 6.78125 9.90625 6.78125 20.515625 
Q 6.78125 27.484375 10.78125 32.3125 
Q 14.796875 37.15625 21.921875 38.8125 
z
M 18.3125 54.390625 
Q 18.3125 48.734375 21.84375 45.5625 
Q 25.390625 42.390625 31.78125 42.390625 
Q 38.140625 42.390625 41.71875 45.5625 
Q 45.3125 48.734375 45.3125 54.390625 
Q 45.3125 60.0625 41.71875 63.234375 
Q 38.140625 66.40625 31.78125 66.40625 
Q 25.390625 66.40625 21.84375 63.234375 
Q 18.3125 60.0625 18.3125 54.390625 
z
" id="DejaVuSans-56"/>
      </defs>
      <use xlink:href="#DejaVuSans-115"/>
      <use x="52.099609" xlink:href="#DejaVuSans-61"/>
      <use x="135.888672" xlink:href="#DejaVuSans-56"/>
      <use x="199.511719" xlink:href="#DejaVuSans-48"/>
     </g>
    </g>
    <g id="line2d_19">
     <path d="M 707.923437 111.574687 
L 727.923437 111.574687 
" style="fill:none;stroke:#008000;stroke-linecap:square;stroke-width:1.5;"/>
    </g>
    <g id="line2d_20"/>
    <g id="text_14">
     <!-- s=60 -->
     <g transform="translate(735.923437 115.074687)scale(0.1 -0.1)">
      <defs>
       <path d="M 33.015625 40.375 
Q 26.375 40.375 22.484375 35.828125 
Q 18.609375 31.296875 18.609375 23.390625 
Q 18.609375 15.53125 22.484375 10.953125 
Q 26.375 6.390625 33.015625 6.390625 
Q 39.65625 6.390625 43.53125 10.953125 
Q 47.40625 15.53125 47.40625 23.390625 
Q 47.40625 31.296875 43.53125 35.828125 
Q 39.65625 40.375 33.015625 40.375 
z
M 52.59375 71.296875 
L 52.59375 62.3125 
Q 48.875 64.0625 45.09375 64.984375 
Q 41.3125 65.921875 37.59375 65.921875 
Q 27.828125 65.921875 22.671875 59.328125 
Q 17.53125 52.734375 16.796875 39.40625 
Q 19.671875 43.65625 24.015625 45.921875 
Q 28.375 48.1875 33.59375 48.1875 
Q 44.578125 48.1875 50.953125 41.515625 
Q 57.328125 34.859375 57.328125 23.390625 
Q 57.328125 12.15625 50.6875 5.359375 
Q 44.046875 -1.421875 33.015625 -1.421875 
Q 20.359375 -1.421875 13.671875 8.265625 
Q 6.984375 17.96875 6.984375 36.375 
Q 6.984375 53.65625 15.1875 63.9375 
Q 23.390625 74.21875 37.203125 74.21875 
Q 40.921875 74.21875 44.703125 73.484375 
Q 48.484375 72.75 52.59375 71.296875 
z
" id="DejaVuSans-54"/>
      </defs>
      <use xlink:href="#DejaVuSans-115"/>
      <use x="52.099609" xlink:href="#DejaVuSans-61"/>
      <use x="135.888672" xlink:href="#DejaVuSans-54"/>
      <use x="199.511719" xlink:href="#DejaVuSans-48"/>
     </g>
    </g>
    <g id="line2d_21">
     <path d="M 707.923437 126.252813 
L 727.923437 126.252813 
" style="fill:none;stroke:#bfbf00;stroke-linecap:square;stroke-width:1.5;"/>
    </g>
    <g id="line2d_22"/>
    <g id="text_15">
     <!-- s=40 -->
     <g transform="translate(735.923437 129.752813)scale(0.1 -0.1)">
      <use xlink:href="#DejaVuSans-115"/>
      <use x="52.099609" xlink:href="#DejaVuSans-61"/>
      <use x="135.888672" xlink:href="#DejaVuSans-52"/>
      <use x="199.511719" xlink:href="#DejaVuSans-48"/>
     </g>
    </g>
    <g id="line2d_23">
     <path d="M 707.923437 140.930938 
L 727.923437 140.930938 
" style="fill:none;stroke:#ff0000;stroke-linecap:square;stroke-width:1.5;"/>
    </g>
    <g id="line2d_24"/>
    <g id="text_16">
     <!-- s=20 -->
     <g transform="translate(735.923437 144.430938)scale(0.1 -0.1)">
      <use xlink:href="#DejaVuSans-115"/>
      <use x="52.099609" xlink:href="#DejaVuSans-61"/>
      <use x="135.888672" xlink:href="#DejaVuSans-50"/>
      <use x="199.511719" xlink:href="#DejaVuSans-48"/>
     </g>
    </g>
   </g>
  </g>
 </g>
 <defs>
  <clipPath id="p3c20fa9053">
   <rect height="443.52" width="669.6" x="108" y="69.12"/>
  </clipPath>
 </defs>
</svg>
